{
.appVersion = "1342";
copyright = "Copyright (c) Justin Callaghan (latin) / Mr. Nobody (cyrillic). All rights reserved. http://fonts.by";
customParameters = (
{
name = description;
value = "Space Age Cyrillic Regular is a font designed by Justin Callaghan (latin) in 2002 & Mr. Nobody (cyrillic) in 2012. http://fonts.by";
},
{
name = trademark;
value = "Space Age Cyrillic";
},
{
name = panose;
value = (
0,
0,
0,
0,
0,
0,
0,
0,
0,
0
);
},
{
name = unicodeRanges;
value = (
0,
1,
2,
5,
7,
9,
31,
33,
35
);
},
{
name = fsType;
value = (
);
},
{
name = glyphOrder;
value = (
.notdef,
.null,
CR,
space,
exclam,
quotedbl,
numbersign,
dollar,
percent,
ampersand,
quotesingle,
parenleft,
parenright,
asterisk,
plus,
comma,
hyphen,
period,
slash,
zero,
one,
two,
three,
four,
five,
six,
seven,
eight,
nine,
colon,
semicolon,
less,
equal,
greater,
question,
at,
A,
B,
C,
D,
E,
F,
G,
H,
I,
J,
K,
L,
M,
N,
O,
P,
Q,
R,
S,
T,
U,
V,
W,
X,
Y,
Z,
bracketleft,
backslash,
bracketright,
asciicircum,
underscore,
grave,
a,
b,
c,
d,
e,
f,
g,
h,
i,
j,
k,
l,
m,
n,
o,
p,
q,
r,
s,
t,
u,
v,
w,
x,
y,
z,
braceleft,
bar,
braceright,
asciitilde,
quotesinglbase,
quotedblbase,
ellipsis,
Euro,
guilsinglleft,
quoteleft,
quoteright,
quotedblleft,
quotedblright,
bullet,
endash,
emdash,
trademark,
guilsinglright,
uni00A0,
uni040E,
uni045E,
currency,
uni0401,
copyright,
guillemotleft,
logicalnot,
uni00AD,
registered,
paragraph,
uni0451,
uni2116,
guillemotright,
uni0410,
uni0411,
uni0412,
uni0413,
uni0414,
uni0415,
uni0416,
uni0417,
uni0418,
uni0419,
uni041A,
uni041B,
uni041C,
uni041D,
uni041E,
uni041F,
uni0420,
uni0421,
uni0422,
uni0423,
uni0424,
uni0425,
uni0426,
uni0427,
uni0428,
uni0429,
uni042A,
uni042B,
uni042C,
uni042D,
uni042E,
uni042F,
uni0430,
uni0431,
uni0432,
uni0433,
uni0434,
uni0435,
uni0436,
uni0437,
uni0438,
uni0439,
uni043A,
uni043B,
uni043C,
uni043D,
uni043E,
uni043F,
uni0440,
uni0441,
uni0442,
uni0443,
uni0444,
uni0445,
uni0446,
uni0447,
uni0448,
uni0449,
uni044A,
uni044B,
uni044C,
uni044D,

glyphs = (
{
glyphname = exclam;
layers = (
{
layerId = "54A34634-507D-4D60-97FE-E6568C7C6955";
paths = (
{
closed = 1;
nodes = (
"72 59 OFFCURVE",
"98 59 QCURVE SMOOTH",
"124 59 OFFCURVE",
"160 95 OFFCURVE",
"160 121 QCURVE SMOOTH",
"160 147 OFFCURVE",
"124 183 OFFCURVE",
"98 183 QCURVE SMOOTH",
"72 183 OFFCURVE",
"36 147 OFFCURVE",
"36 121 QCURVE SMOOTH",
"36 95 OFFCURVE"
);
},
{
closed = 1;
nodes = (
"146 481 OFFCURVE",
"118 509 OFFCURVE",
"98 509 QCURVE SMOOTH",
"78 509 OFFCURVE",
"50 481 OFFCURVE",
"50 461 QCURVE SMOOTH",
"50 291 LINE SMOOTH",
"50 271 OFFCURVE",
"78 243 OFFCURVE",
"98 243 QCURVE SMOOTH",
"118 243 OFFCURVE",
"146 271 OFFCURVE",
"146 291 QCURVE SMOOTH",
"146 461 LINE SMOOTH"
);
}
);
userData = {
assembly = "PUSHW[ ]	/* 4 values pushed */\0126 7 0 4 \012CALL[ ]	/* CallFunction */\012NPUSHW[ ]	/* 11 values pushed */\0126 6 22 6 38 6 54 6 70 6 5 \012DELTAP1[ ]	/* DeltaExceptionP1 */\012PUSHW[ ]	/* 3 values pushed */\01218 0 6 \012SRP1[ ]	/* SetRefPoint1 */\012SRP2[ ]	/* SetRefPoint2 */\012IP[ ]	/* InterpolatePts */\012PUSHW[ ]	/* 1 value pushed */\01218 \012MDAP[1]	/* MoveDirectAbsPt */\012PUSHW[ ]	/* 2 values pushed */\01212 6 \012MIRP[10100]	/* MoveIndirectRelPt */\012PUSHW[ ]	/* 1 value pushed */\0126 \012SRP0[ ]	/* SetRefPoint0 */\012PUSHW[ ]	/* 1 value pushed */\01227 \012MDRP[11100]	/* MoveDirectRelPt */\012SVTCA[0]	/* SetFreedomAndProjectionVectorToAxis */\012PUSHW[ ]	/* 4 values pushed */\0123 5 9 4 \012CALL[ ]	/* CallFunction */\012IUP[0]	/* InterpolateUntPts */\012IUP[1]	/* InterpolateUntPts */";
};
width = 196;
}
);
note = exclam;
unicode = 0021;
},
{
glyphname = quotedbl;
layers = (
{
layerId = "54A34634-507D-4D60-97FE-E6568C7C6955";
paths = (
{
closed = 1;
nodes = (
"290 592 OFFCURVE",
"262 620 OFFCURVE",
"242 620 QCURVE SMOOTH",
"222 620 OFFCURVE",
"194 592 OFFCURVE",
"194 572 QCURVE SMOOTH",
"194 450 LINE SMOOTH",
"194 430 OFFCURVE",
"222 402 OFFCURVE",
"242 402 QCURVE SMOOTH",
"262 402 OFFCURVE",
"290 430 OFFCURVE",
"290 450 QCURVE SMOOTH",
"290 572 LINE SMOOTH"
);
},
{
closed = 1;
nodes = (
"146 592 OFFCURVE",
"118 620 OFFCURVE",
"98 620 QCURVE SMOOTH",
"78 620 OFFCURVE",
"50 592 OFFCURVE",
"50 572 QCURVE SMOOTH",
"50 450 LINE SMOOTH",
"50 430 OFFCURVE",
"78 402 OFFCURVE",
"98 402 QCURVE SMOOTH",
"118 402 OFFCURVE",
"146 430 OFFCURVE",
"146 450 QCURVE SMOOTH",
"146 572 LINE SMOOTH"
);
}
);
userData = {
assembly = "PUSHW[ ]	/* 1 value pushed */\01228 \012MDAP[1]	/* MoveDirectAbsPt */\012PUSHW[ ]	/* 1 value pushed */\0126 \012MDAP[1]	/* MoveDirectAbsPt */\012PUSHW[ ]	/* 2 values pushed */\0120 6 \012MIRP[10100]	/* MoveIndirectRelPt */\012PUSHW[ ]	/* 1 value pushed */\01228 \012SRP0[ ]	/* SetRefPoint0 */\012PUSHW[ ]	/* 1 value pushed */\01220 \012MDRP[10000]	/* MoveDirectRelPt */\012PUSHW[ ]	/* 1 value pushed */\01220 \012MDAP[1]	/* MoveDirectAbsPt */\012PUSHW[ ]	/* 2 values pushed */\01214 6 \012MIRP[10100]	/* MoveIndirectRelPt */\012PUSHW[ ]	/* 1 value pushed */\0120 \012SRP0[ ]	/* SetRefPoint0 */\012PUSHW[ ]	/* 1 value pushed */\01229 \012MDRP[11100]	/* MoveDirectRelPt */\012SVTCA[0]	/* SetFreedomAndProjectionVectorToAxis */\012PUSHW[ ]	/* 4 values pushed */\01210 5 3 4 \012CALL[ ]	/* CallFunction */\012PUSHW[ ]	/* 1 value pushed */\0123 \012SRP0[ ]	/* SetRefPoint0 */\012PUSHW[ ]	/* 1 value pushed */\01217 \012MDRP[10000]	/* MoveDirectRelPt */\012PUSHW[ ]	/* 1 value pushed */\01210 \012SRP0[ ]	/* SetRefPoint0 */\012PUSHW[ ]	/* 1 value pushed */\01224 \012MDRP[10000]	/* MoveDirectRelPt */\012IUP[0]	/* InterpolateUntPts */\012IUP[1]	/* InterpolateUntPts */";
};
width = 340;
}
);
note = quotedbl;
unicode = 0022;
},
{
glyphname = numbersign;
layers = (
{
layerId = "54A34634-507D-4D60-97FE-E6568C7C6955";
paths = (
{
closed = 1;
nodes = (
"574 328 LINE",
"553 255 LINE",
"361 255 LINE",
"382 328 LINE"
);
},
{
closed = 1;
nodes = (
"260 255 LINE",
"98 255 LINE SMOOTH",
"78 255 OFFCURVE",
"50 227 OFFCURVE",
"50 207 QCURVE SMOOTH",
"50 188 OFFCURVE",
"76 161 OFFCURVE",
"94 159 QCURVE",
"233 159 LINE",
"226 134 LINE SMOOTH",
"224 124 OFFCURVE",
"224 122 QCURVE SMOOTH",
"224 102 OFFCURVE",
"253 73 OFFCURVE",
"273 73 QCURVE SMOOTH",
"289 73 OFFCURVE",
"314 92 OFFCURVE",
"319 108 QCURVE SMOOTH",
"333 159 LINE",
"526 159 LINE",
"516 125 LINE SMOOTH",
"514 115 OFFCURVE",
"514 113 QCURVE SMOOTH",
"514 93 OFFCURVE",
"543 64 OFFCURVE",
"563 64 QCURVE SMOOTH",
"579 64 OFFCURVE",
"604 83 OFFCURVE",
"609 99 QCURVE SMOOTH",
"626 159 LINE",
"786 159 LINE SMOOTH",
"806 159 OFFCURVE",
"834 187 OFFCURVE",
"834 207 QCURVE SMOOTH",
"834 227 OFFCURVE",
"806 255 OFFCURVE",
"786 255 QCURVE SMOOTH",
"654 255 LINE",
"675 328 LINE",
"835 328 LINE SMOOTH",
"855 328 OFFCURVE",
"883 356 OFFCURVE",
"883 376 QCURVE SMOOTH",
"883 396 OFFCURVE",
"855 424 OFFCURVE",
"835 424 QCURVE SMOOTH",
"702 424 LINE",
"707 439 LINE SMOOTH",
"709 449 OFFCURVE",
"709 452 QCURVE SMOOTH",
"709 471 OFFCURVE",
"680 500 OFFCURVE",
"660 500 QCURVE SMOOTH",
"644 500 OFFCURVE",
"619 481 OFFCURVE",
"614 465 QCURVE SMOOTH",
"602 424 LINE",
"410 424 LINE",
"417 448 LINE SMOOTH",
"419 458 OFFCURVE",
"419 461 QCURVE SMOOTH",
"419 480 OFFCURVE",
"390 509 OFFCURVE",
"370 509 QCURVE SMOOTH",
"354 509 OFFCURVE",
"329 490 OFFCURVE",
"324 474 QCURVE SMOOTH",
"309 424 LINE",
"147 424 LINE SMOOTH",
"127 424 OFFCURVE",
"99 396 OFFCURVE",
"99 376 QCURVE SMOOTH",
"99 357 OFFCURVE",
"125 330 OFFCURVE",
"143 328 QCURVE",
"281 328 LINE"
);
}
);
userData = {
assembly = "SVTCA[0]	/* SetFreedomAndProjectionVectorToAxis */\012PUSHW[ ]	/* 4 values pushed */\01242 1 48 4 \012CALL[ ]	/* CallFunction */\012PUSHW[ ]	/* 4 values pushed */\01222 1 2 4 \012CALL[ ]	/* CallFunction */\012PUSHW[ ]	/* 1 value pushed */\01242 \012SRP0[ ]	/* SetRefPoint0 */\012PUSHW[ ]	/* 1 value pushed */\0120 \012MDRP[10000]	/* MoveDirectRelPt */\012PUSHW[ ]	/* 1 value pushed */\0122 \012SRP0[ ]	/* SetRefPoint0 */\012PUSHW[ ]	/* 1 value pushed */\0124 \012MDRP[10000]	/* MoveDirectRelPt */\012PUSHW[ ]	/* 1 value pushed */\01222 \012SRP0[ ]	/* SetRefPoint0 */\012PUSHW[ ]	/* 1 value pushed */\01210 \012MDRP[10000]	/* MoveDirectRelPt */\012PUSHW[ ]	/* 1 value pushed */\01222 \012SRP0[ ]	/* SetRefPoint0 */\012PUSHW[ ]	/* 1 value pushed */\01232 \012MDRP[10000]	/* MoveDirectRelPt */\012PUSHW[ ]	/* 1 value pushed */\0122 \012SRP0[ ]	/* SetRefPoint0 */\012PUSHW[ ]	/* 1 value pushed */\01239 \012MDRP[10000]	/* MoveDirectRelPt */\012PUSHW[ ]	/* 1 value pushed */\01248 \012SRP0[ ]	/* SetRefPoint0 */\012PUSHW[ ]	/* 1 value pushed */\01259 \012MDRP[10000]	/* MoveDirectRelPt */\012PUSHW[ ]	/* 1 value pushed */\01248 \012SRP0[ ]	/* SetRefPoint0 */\012PUSHW[ ]	/* 1 value pushed */\01270 \012MDRP[10000]	/* MoveDirectRelPt */\012PUSHW[ ]	/* 1 value pushed */\01242 \012SRP0[ ]	/* SetRefPoint0 */\012PUSHW[ ]	/* 1 value pushed */\01277 \012MDRP[10000]	/* MoveDirectRelPt */\012IUP[0]	/* InterpolateUntPts */\012IUP[1]	/* InterpolateUntPts */";
};
width = 884;
}
);
note = numbersign;
unicode = 0023;
},
{
glyphname = dollar;
layers = (
{
layerId = "54A34634-507D-4D60-97FE-E6568C7C6955";
paths = (
{
closed = 1;
nodes = (
"433 -94 OFFCURVE",
"459 -94 QCURVE SMOOTH",
"485 -94 OFFCURVE",
"521 -58 OFFCURVE",
"521 -32 QCURVE SMOOTH",
"521 -6 OFFCURVE",
"485 29 OFFCURVE",
"459 29 QCURVE SMOOTH",
"433 29 OFFCURVE",
"397 -6 OFFCURVE",
"397 -32 QCURVE SMOOTH",
"397 -58 OFFCURVE"
);
},
{
closed = 1;
nodes = (
"433 553 OFFCURVE",
"459 553 QCURVE SMOOTH",
"485 553 OFFCURVE",
"521 589 OFFCURVE",
"521 615 QCURVE SMOOTH",
"521 641 OFFCURVE",
"485 677 OFFCURVE",
"459 677 QCURVE SMOOTH",
"433 677 OFFCURVE",
"397 641 OFFCURVE",
"397 615 QCURVE SMOOTH",
"397 589 OFFCURVE"
);
},
{
closed = 1;
nodes = (
"753 243 OFFCURVE",
"775 221 OFFCURVE",
"775 205 QCURVE SMOOTH",
"775 190 OFFCURVE",
"753 169 OFFCURVE",
"738 169 QCURVE SMOOTH",
"128 169 LINE SMOOTH",
"108 169 OFFCURVE",
"80 141 OFFCURVE",
"80 121 QCURVE SMOOTH",
"80 101 OFFCURVE",
"108 73 OFFCURVE",
"128 73 QCURVE SMOOTH",
"734 73 LINE SMOOTH",
"762 73 OFFCURVE",
"811 93 OFFCURVE",
"847 129 OFFCURVE",
"868 177 OFFCURVE",
"868 205 QCURVE SMOOTH",
"868 233 OFFCURVE",
"847 282 OFFCURVE",
"811 318 OFFCURVE",
"762 339 OFFCURVE",
"734 339 QCURVE SMOOTH",
"181 339 LINE SMOOTH",
"166 339 OFFCURVE",
"143 361 OFFCURVE",
"143 376 QCURVE SMOOTH",
"143 392 OFFCURVE",
"166 413 OFFCURVE",
"181 413 QCURVE SMOOTH",
"790 413 LINE SMOOTH",
"810 413 OFFCURVE",
"838 441 OFFCURVE",
"838 461 QCURVE SMOOTH",
"838 481 OFFCURVE",
"810 509 OFFCURVE",
"790 509 QCURVE SMOOTH",
"183 509 LINE SMOOTH",
"155 509 OFFCURVE",
"107 488 OFFCURVE",
"71 452 OFFCURVE",
"50 404 OFFCURVE",
"50 376 QCURVE SMOOTH",
"50 348 OFFCURVE",
"71 300 OFFCURVE",
"107 264 OFFCURVE",
"155 243 OFFCURVE",
"183 243 QCURVE SMOOTH",
"738 243 LINE SMOOTH"
);
}
);
userData = {
assembly = "PUSHW[ ]	/* 1 value pushed */\01274 \012MDAP[1]	/* MoveDirectAbsPt */\012PUSHW[ ]	/* 1 value pushed */\01229 \012MDRP[10000]	/* MoveDirectRelPt */\012PUSHW[ ]	/* 1 value pushed */\01229 \012MDAP[1]	/* MoveDirectAbsPt */\012PUSHW[ ]	/* 1 value pushed */\0120 \012MDRP[11100]	/* MoveDirectRelPt */\012NPUSHW[ ]	/* 3 values pushed */\01215 0 1 \012DELTAP1[ ]	/* DeltaExceptionP1 */\012NPUSHW[ ]	/* 3 values pushed */\01264 0 1 \012DELTAP1[ ]	/* DeltaExceptionP1 */\012PUSHW[ ]	/* 2 values pushed */\0126 7 \012MIRP[10100]	/* MoveIndirectRelPt */\012PUSHW[ ]	/* 1 value pushed */\0120 \012SRP0[ ]	/* SetRefPoint0 */\012PUSHW[ ]	/* 1 value pushed */\01212 \012MDRP[10000]	/* MoveDirectRelPt */\012PUSHW[ ]	/* 1 value pushed */\0126 \012SRP0[ ]	/* SetRefPoint0 */\012PUSHW[ ]	/* 1 value pushed */\01218 \012MDRP[10000]	/* MoveDirectRelPt */\012PUSHW[ ]	/* 1 value pushed */\01229 \012SRP0[ ]	/* SetRefPoint0 */\012PUSHW[ ]	/* 2 values pushed */\01245 6 \012MIRP[10100]	/* MoveIndirectRelPt */\012PUSHW[ ]	/* 1 value pushed */\0120 \012SRP0[ ]	/* SetRefPoint0 */\012PUSHW[ ]	/* 1 value pushed */\01270 \012MDRP[11100]	/* MoveDirectRelPt */\012NPUSHW[ ]	/* 3 values pushed */\01215 70 1 \012DELTAP1[ ]	/* DeltaExceptionP1 */\012NPUSHW[ ]	/* 3 values pushed */\01264 70 1 \012DELTAP1[ ]	/* DeltaExceptionP1 */\012PUSHW[ ]	/* 2 values pushed */\01254 6 \012MIRP[10100]	/* MoveIndirectRelPt */\012PUSHW[ ]	/* 1 value pushed */\01275 \012MDRP[11100]	/* MoveDirectRelPt */\012SVTCA[0]	/* SetFreedomAndProjectionVectorToAxis */\012PUSHW[ ]	/* 1 value pushed */\0120 \012RCVT[ ]	/* ReadCVT */\012IF[ ]	/* If */\012PUSHW[ ]	/* 1 value pushed */\01234 \012MDAP[1]	/* MoveDirectAbsPt */\012ELSE[ ]	/* Else */\012PUSHW[ ]	/* 2 values pushed */\01234 10 \012MIAP[0]	/* MoveIndirectAbsPt */\012EIF[ ]	/* EndIf */\012PUSHW[ ]	/* 4 values pushed */\0123 5 9 4 \012CALL[ ]	/* CallFunction */\012PUSHW[ ]	/* 4 values pushed */\01215 5 21 4 \012CALL[ ]	/* CallFunction */\012PUSHW[ ]	/* 4 values pushed */\01267 1 59 4 \012CALL[ ]	/* CallFunction */\012PUSHW[ ]	/* 4 values pushed */\01248 1 24 4 \012CALL[ ]	/* CallFunction */\012PUSHW[ ]	/* 1 value pushed */\01234 \012SRP0[ ]	/* SetRefPoint0 */\012PUSHW[ ]	/* 2 values pushed */\01241 1 \012MIRP[10100]	/* MoveIndirectRelPt */\012IUP[0]	/* InterpolateUntPts */\012IUP[1]	/* InterpolateUntPts */";
};
width = 918;
}
);
note = dollar;
unicode = 0024;
},
{
glyphname = percent;
layers = (
{
layerId = "54A34634-507D-4D60-97FE-E6568C7C6955";
paths = (
{
closed = 1;
nodes = (
"995 169 OFFCURVE",
"966 183 OFFCURVE",
"950 204 OFFCURVE",
"944 227 OFFCURVE",
"944 237 QCURVE SMOOTH",
"944 247 OFFCURVE",
"950 270 OFFCURVE",
"966 290 OFFCURVE",
"995 304 OFFCURVE",
"1018 304 QCURVE SMOOTH",
"1208 304 LINE SMOOTH",
"1231 304 OFFCURVE",
"1260 290 OFFCURVE",
"1276 270 OFFCURVE",
"1282 247 OFFCURVE",
"1282 237 QCURVE SMOOTH",
"1282 227 OFFCURVE",
"1276 204 OFFCURVE",
"1260 183 OFFCURVE",
"1231 169 OFFCURVE",
"1208 169 QCURVE SMOOTH",
"1018 169 LINE SMOOTH"
);
},
{
closed = 1;
nodes = (
"1360 323 OFFCURVE",
"1327 370 OFFCURVE",
"1278 400 OFFCURVE",
"1248 400 QCURVE SMOOTH",
"986 400 LINE SMOOTH",
"953 400 OFFCURVE",
"902 370 OFFCURVE",
"867 324 OFFCURVE",
"848 265 OFFCURVE",
"848 237 QCURVE SMOOTH",
"848 209 OFFCURVE",
"866 151 OFFCURVE",
"899 103 OFFCURVE",
"947 73 OFFCURVE",
"978 73 QCURVE SMOOTH",
"1240 73 LINE SMOOTH",
"1272 73 OFFCURVE",
"1323 103 OFFCURVE",
"1359 150 OFFCURVE",
"1378 208 OFFCURVE",
"1378 237 QCURVE SMOOTH",
"1378 265 OFFCURVE"
);
},
{
closed = 1;
nodes = (
"197 278 OFFCURVE",
"168 292 OFFCURVE",
"152 313 OFFCURVE",
"146 336 OFFCURVE",
"146 346 QCURVE SMOOTH",
"146 356 OFFCURVE",
"152 379 OFFCURVE",
"168 399 OFFCURVE",
"197 413 OFFCURVE",
"220 413 QCURVE SMOOTH",
"410 413 LINE SMOOTH",
"433 413 OFFCURVE",
"462 399 OFFCURVE",
"478 379 OFFCURVE",
"484 356 OFFCURVE",
"484 346 QCURVE SMOOTH",
"484 336 OFFCURVE",
"478 313 OFFCURVE",
"462 292 OFFCURVE",
"433 278 OFFCURVE",
"410 278 QCURVE SMOOTH",
"220 278 LINE SMOOTH"
);
},
{
closed = 1;
nodes = (
"562 432 OFFCURVE",
"529 479 OFFCURVE",
"480 509 OFFCURVE",
"450 509 QCURVE SMOOTH",
"188 509 LINE SMOOTH",
"155 509 OFFCURVE",
"104 479 OFFCURVE",
"69 433 OFFCURVE",
"50 374 OFFCURVE",
"50 346 QCURVE SMOOTH",
"50 318 OFFCURVE",
"68 260 OFFCURVE",
"101 212 OFFCURVE",
"149 182 OFFCURVE",
"180 182 QCURVE SMOOTH",
"442 182 LINE SMOOTH",
"474 182 OFFCURVE",
"525 212 OFFCURVE",
"561 259 OFFCURVE",
"580 317 OFFCURVE",
"580 346 QCURVE SMOOTH",
"580 374 OFFCURVE"
);
},
{
closed = 1;
nodes = (
"862 447 OFFCURVE",
"862 461 QCURVE SMOOTH",
"862 480 OFFCURVE",
"835 509 OFFCURVE",
"815 509 QCURVE SMOOTH",
"802 509 OFFCURVE",
"779 497 OFFCURVE",
"772 485 QCURVE SMOOTH",
"572 145 LINE SMOOTH",
"566 134 OFFCURVE",
"566 121 QCURVE SMOOTH",
"566 102 OFFCURVE",
"593 73 OFFCURVE",
"613 73 QCURVE SMOOTH",
"626 73 OFFCURVE",
"649 85 OFFCURVE",
"656 97 QCURVE SMOOTH",
"856 437 LINE SMOOTH"
);
}
);
userData = {
assembly = "PUSHW[ ]	/* 4 values pushed */\01260 6 77 4 \012CALL[ ]	/* CallFunction */\012PUSHW[ ]	/* 4 values pushed */\01266 6 49 4 \012CALL[ ]	/* CallFunction */\012PUSHW[ ]	/* 4 values pushed */\01216 6 33 4 \012CALL[ ]	/* CallFunction */\012PUSHW[ ]	/* 4 values pushed */\01222 6 5 4 \012CALL[ ]	/* CallFunction */\012NPUSHW[ ]	/* 11 values pushed */\0129 5 25 5 41 5 57 5 73 5 5 \012DELTAP1[ ]	/* DeltaExceptionP1 */\012NPUSHW[ ]	/* 11 values pushed */\0129 33 25 33 41 33 57 33 73 33 5 \012DELTAP1[ ]	/* DeltaExceptionP1 */\012NPUSHW[ ]	/* 11 values pushed */\0126 60 22 60 38 60 54 60 70 60 5 \012DELTAP1[ ]	/* DeltaExceptionP1 */\012NPUSHW[ ]	/* 11 values pushed */\0126 66 22 66 38 66 54 66 70 66 5 \012DELTAP1[ ]	/* DeltaExceptionP1 */\012PUSHW[ ]	/* 1 value pushed */\01222 \012SRP0[ ]	/* SetRefPoint0 */\012PUSHW[ ]	/* 1 value pushed */\012107 \012MDRP[11100]	/* MoveDirectRelPt */\012SVTCA[0]	/* SetFreedomAndProjectionVectorToAxis */\012PUSHW[ ]	/* 1 value pushed */\0120 \012RCVT[ ]	/* ReadCVT */\012IF[ ]	/* If */\012PUSHW[ ]	/* 1 value pushed */\01282 \012MDAP[1]	/* MoveDirectAbsPt */\012ELSE[ ]	/* Else */\012PUSHW[ ]	/* 2 values pushed */\01282 10 \012MIAP[0]	/* MoveIndirectAbsPt */\012EIF[ ]	/* EndIf */\012PUSHW[ ]	/* 1 value pushed */\0120 \012RCVT[ ]	/* ReadCVT */\012IF[ ]	/* If */\012PUSHW[ ]	/* 1 value pushed */\012100 \012MDAP[1]	/* MoveDirectAbsPt */\012ELSE[ ]	/* Else */\012PUSHW[ ]	/* 2 values pushed */\012100 10 \012MIAP[0]	/* MoveIndirectAbsPt */\012EIF[ ]	/* EndIf */\012PUSHW[ ]	/* 4 values pushed */\0120 1 27 4 \012CALL[ ]	/* CallFunction */\012PUSHW[ ]	/* 4 values pushed */\01244 1 71 4 \012CALL[ ]	/* CallFunction */\012PUSHW[ ]	/* 4 values pushed */\01239 1 10 4 \012CALL[ ]	/* CallFunction */\012PUSHW[ ]	/* 1 value pushed */\01282 \012SRP0[ ]	/* SetRefPoint0 */\012PUSHW[ ]	/* 2 values pushed */\01254 1 \012MIRP[10100]	/* MoveIndirectRelPt */\012PUSHW[ ]	/* 1 value pushed */\01227 \012SRP0[ ]	/* SetRefPoint0 */\012PUSHW[ ]	/* 1 value pushed */\01291 \012MDRP[10000]	/* MoveDirectRelPt */\012IUP[0]	/* InterpolateUntPts */\012IUP[1]	/* InterpolateUntPts */";
};
width = 1428;
}
);
note = percent;
unicode = 0025;
},
{
glyphname = ampersand;
layers = (
{
layerId = "54A34634-507D-4D60-97FE-E6568C7C6955";
paths = (
{
closed = 1;
nodes = (
"650 169 OFFCURVE",
"635 169 QCURVE SMOOTH",
"181 169 LINE SMOOTH",
"166 169 OFFCURVE",
"143 192 OFFCURVE",
"143 207 QCURVE SMOOTH",
"143 223 OFFCURVE",
"165 243 OFFCURVE",
"180 243 QCURVE SMOOTH",
"568 243 LINE SMOOTH",
"588 243 OFFCURVE",
"616 271 OFFCURVE",
"616 291 QCURVE SMOOTH",
"616 311 OFFCURVE",
"588 339 OFFCURVE",
"568 339 QCURVE SMOOTH",
"181 339 LINE SMOOTH",
"166 339 OFFCURVE",
"143 360 OFFCURVE",
"143 376 QCURVE SMOOTH",
"143 391 OFFCURVE",
"166 413 OFFCURVE",
"181 413 QCURVE SMOOTH",
"650 413 LINE SMOOTH",
"670 413 OFFCURVE",
"698 441 OFFCURVE",
"698 461 QCURVE SMOOTH",
"698 481 OFFCURVE",
"670 509 OFFCURVE",
"650 509 QCURVE SMOOTH",
"185 509 LINE SMOOTH",
"157 509 OFFCURVE",
"108 488 OFFCURVE",
"71 452 OFFCURVE",
"50 404 OFFCURVE",
"50 376 QCURVE SMOOTH",
"50 352 OFFCURVE",
"67 309 OFFCURVE",
"81 292 QCURVE",
"67 275 OFFCURVE",
"50 232 OFFCURVE",
"50 207 QCURVE SMOOTH",
"50 179 OFFCURVE",
"71 130 OFFCURVE",
"108 94 OFFCURVE",
"157 73 OFFCURVE",
"185 73 QCURVE SMOOTH",
"634 73 LINE SMOOTH",
"662 73 OFFCURVE",
"711 93 OFFCURVE",
"747 129 OFFCURVE",
"768 177 OFFCURVE",
"768 205 QCURVE SMOOTH",
"768 206 LINE SMOOTH",
"768 221 OFFCURVE",
"789 243 OFFCURVE",
"804 243 QCURVE SMOOTH",
"824 243 OFFCURVE",
"852 271 OFFCURVE",
"852 291 QCURVE SMOOTH",
"852 311 OFFCURVE",
"824 339 OFFCURVE",
"804 339 QCURVE SMOOTH",
"776 339 OFFCURVE",
"728 318 OFFCURVE",
"692 282 OFFCURVE",
"672 233 OFFCURVE",
"672 205 QCURVE SMOOTH",
"672 190 OFFCURVE"
);
}
);
userData = {
assembly = "PUSHW[ ]	/* 1 value pushed */\01269 \012MDAP[1]	/* MoveDirectAbsPt */\012PUSHW[ ]	/* 1 value pushed */\0120 \012MDAP[1]	/* MoveDirectAbsPt */\012NPUSHW[ ]	/* 11 values pushed */\0129 0 25 0 41 0 57 0 73 0 5 \012DELTAP1[ ]	/* DeltaExceptionP1 */\012PUSHW[ ]	/* 2 values pushed */\01215 6 \012MIRP[10100]	/* MoveIndirectRelPt */\012PUSHW[ ]	/* 1 value pushed */\01269 \012SRP0[ ]	/* SetRefPoint0 */\012PUSHW[ ]	/* 1 value pushed */\01226 \012MDRP[10000]	/* MoveDirectRelPt */\012PUSHW[ ]	/* 1 value pushed */\01226 \012MDAP[1]	/* MoveDirectAbsPt */\012PUSHW[ ]	/* 1 value pushed */\01232 \012MDRP[10000]	/* MoveDirectRelPt */\012PUSHW[ ]	/* 1 value pushed */\01226 \012SRP0[ ]	/* SetRefPoint0 */\012PUSHW[ ]	/* 2 values pushed */\01262 6 \012MIRP[10100]	/* MoveIndirectRelPt */\012NPUSHW[ ]	/* 11 values pushed */\0126 62 22 62 38 62 54 62 70 62 5 \012DELTAP1[ ]	/* DeltaExceptionP1 */\012PUSHW[ ]	/* 1 value pushed */\01248 \012MDRP[10000]	/* MoveDirectRelPt */\012PUSHW[ ]	/* 1 value pushed */\01215 \012SRP0[ ]	/* SetRefPoint0 */\012PUSHW[ ]	/* 1 value pushed */\01270 \012MDRP[11100]	/* MoveDirectRelPt */\012SVTCA[0]	/* SetFreedomAndProjectionVectorToAxis */\012PUSHW[ ]	/* 1 value pushed */\0120 \012RCVT[ ]	/* ReadCVT */\012IF[ ]	/* If */\012PUSHW[ ]	/* 1 value pushed */\01237 \012MDAP[1]	/* MoveDirectAbsPt */\012ELSE[ ]	/* Else */\012PUSHW[ ]	/* 2 values pushed */\01237 10 \012MIAP[0]	/* MoveIndirectAbsPt */\012EIF[ ]	/* EndIf */\012PUSHW[ ]	/* 4 values pushed */\01266 1 20 4 \012CALL[ ]	/* CallFunction */\012PUSHW[ ]	/* 4 values pushed */\0125 1 11 4 \012CALL[ ]	/* CallFunction */\012PUSHW[ ]	/* 1 value pushed */\01237 \012SRP0[ ]	/* SetRefPoint0 */\012PUSHW[ ]	/* 2 values pushed */\01244 1 \012MIRP[10100]	/* MoveIndirectRelPt */\012PUSHW[ ]	/* 1 value pushed */\0125 \012SRP0[ ]	/* SetRefPoint0 */\012PUSHW[ ]	/* 1 value pushed */\01251 \012MDRP[10000]	/* MoveDirectRelPt */\012PUSHW[ ]	/* 1 value pushed */\01211 \012SRP0[ ]	/* SetRefPoint0 */\012PUSHW[ ]	/* 1 value pushed */\01258 \012MDRP[10000]	/* MoveDirectRelPt */\012IUP[0]	/* InterpolateUntPts */\012IUP[1]	/* InterpolateUntPts */";
};
width = 855;
}
);
note = ampersand;
unicode = 0026;
},
{
glyphname = quotesingle;
layers = (
{
layerId = "54A34634-507D-4D60-97FE-E6568C7C6955";
paths = (
{
closed = 1;
nodes = (
"146 481 OFFCURVE",
"118 509 OFFCURVE",
"98 509 QCURVE SMOOTH",
"78 509 OFFCURVE",
"50 481 OFFCURVE",
"50 461 QCURVE SMOOTH",
"50 387 LINE SMOOTH",
"50 367 OFFCURVE",
"78 339 OFFCURVE",
"98 339 QCURVE SMOOTH",
"118 339 OFFCURVE",
"146 367 OFFCURVE",
"146 387 QCURVE SMOOTH",
"146 461 LINE SMOOTH"
);
}
);
userData = {
assembly = "PUSHW[ ]	/* 4 values pushed */\0120 6 6 4 \012CALL[ ]	/* CallFunction */\012SVTCA[0]	/* SetFreedomAndProjectionVectorToAxis */\012PUSHW[ ]	/* 1 value pushed */\0120 \012RCVT[ ]	/* ReadCVT */\012IF[ ]	/* If */\012PUSHW[ ]	/* 1 value pushed */\01210 \012MDAP[1]	/* MoveDirectAbsPt */\012ELSE[ ]	/* Else */\012PUSHW[ ]	/* 2 values pushed */\01210 10 \012MIAP[0]	/* MoveIndirectAbsPt */\012EIF[ ]	/* EndIf */\012PUSHW[ ]	/* 2 values pushed */\0123 5 \012MIRP[10100]	/* MoveIndirectRelPt */\012NPUSHW[ ]	/* 11 values pushed */\0128 3 24 3 40 3 56 3 72 3 5 \012DELTAP1[ ]	/* DeltaExceptionP1 */\012IUP[0]	/* InterpolateUntPts */\012IUP[1]	/* InterpolateUntPts */";
};
width = 196;
}
);
note = quotesingle;
unicode = 0027;
},
{
glyphname = parenleft;
layers = (
{
layerId = "54A34634-507D-4D60-97FE-E6568C7C6955";
paths = (
{
closed = 1;
nodes = (
"320 -51 OFFCURVE",
"320 -31 QCURVE SMOOTH",
"320 -14 OFFCURVE",
"306 2 QCURVE SMOOTH",
"258 60 OFFCURVE",
"196 136 OFFCURVE",
"160 196 OFFCURVE",
"146 252 OFFCURVE",
"146 291 QCURVE SMOOTH",
"146 330 OFFCURVE",
"161 392 OFFCURVE",
"197 456 OFFCURVE",
"259 531 OFFCURVE",
"306 582 QCURVE SMOOTH",
"320 596 OFFCURVE",
"320 616 QCURVE SMOOTH",
"320 636 OFFCURVE",
"292 664 OFFCURVE",
"272 664 QCURVE SMOOTH",
"261 664 OFFCURVE",
"242 653 OFFCURVE",
"234 645 QCURVE SMOOTH",
"184 593 OFFCURVE",
"114 507 OFFCURVE",
"70 425 OFFCURVE",
"50 341 OFFCURVE",
"50 291 QCURVE SMOOTH",
"50 244 OFFCURVE",
"70 166 OFFCURVE",
"114 87 OFFCURVE",
"184 -2 OFFCURVE",
"234 -60 QCURVE SMOOTH",
"241 -68 OFFCURVE",
"261 -79 OFFCURVE",
"272 -79 QCURVE SMOOTH",
"292 -79 OFFCURVE"
);
}
);
userData = {
assembly = "PUSHW[ ]	/* 4 values pushed */\01226 6 8 4 \012CALL[ ]	/* CallFunction */\012NPUSHW[ ]	/* 11 values pushed */\0126 26 22 26 38 26 54 26 70 26 5 \012DELTAP1[ ]	/* DeltaExceptionP1 */\012SVTCA[0]	/* SetFreedomAndProjectionVectorToAxis */\012PUSHW[ ]	/* 3 values pushed */\01216 0 3 \012CALL[ ]	/* CallFunction */\012IUP[0]	/* InterpolateUntPts */\012IUP[1]	/* InterpolateUntPts */";
};
width = 345;
}
);
note = parenleft;
unicode = 0028;
},
{
glyphname = parenright;
layers = (
{
layerId = "54A34634-507D-4D60-97FE-E6568C7C6955";
paths = (
{
closed = 1;
nodes = (
"104 -68 OFFCURVE",
"111 -60 QCURVE SMOOTH",
"161 -2 OFFCURVE",
"231 87 OFFCURVE",
"275 166 OFFCURVE",
"295 244 OFFCURVE",
"295 291 QCURVE SMOOTH",
"295 341 OFFCURVE",
"275 425 OFFCURVE",
"231 507 OFFCURVE",
"161 593 OFFCURVE",
"111 645 QCURVE SMOOTH",
"103 653 OFFCURVE",
"84 664 OFFCURVE",
"73 664 QCURVE SMOOTH",
"53 664 OFFCURVE",
"25 636 OFFCURVE",
"25 616 QCURVE SMOOTH",
"25 596 OFFCURVE",
"39 582 QCURVE SMOOTH",
"86 531 OFFCURVE",
"148 456 OFFCURVE",
"184 392 OFFCURVE",
"199 330 OFFCURVE",
"199 291 QCURVE SMOOTH",
"199 252 OFFCURVE",
"185 196 OFFCURVE",
"149 136 OFFCURVE",
"87 60 OFFCURVE",
"39 2 QCURVE SMOOTH",
"25 -14 OFFCURVE",
"25 -31 QCURVE SMOOTH",
"25 -51 OFFCURVE",
"53 -79 OFFCURVE",
"73 -79 QCURVE SMOOTH",
"84 -79 OFFCURVE"
);
}
);
userData = {
assembly = "PUSHW[ ]	/* 4 values pushed */\01228 6 10 4 \012CALL[ ]	/* CallFunction */\012NPUSHW[ ]	/* 11 values pushed */\0129 10 25 10 41 10 57 10 73 10 5 \012DELTAP1[ ]	/* DeltaExceptionP1 */\012PUSHW[ ]	/* 1 value pushed */\01228 \012SRP0[ ]	/* SetRefPoint0 */\012PUSHW[ ]	/* 1 value pushed */\01237 \012MDRP[11100]	/* MoveDirectRelPt */\012SVTCA[0]	/* SetFreedomAndProjectionVectorToAxis */\012PUSHW[ ]	/* 3 values pushed */\01220 0 3 \012CALL[ ]	/* CallFunction */\012IUP[0]	/* InterpolateUntPts */\012IUP[1]	/* InterpolateUntPts */";
};
width = 345;
}
);
note = parenright;
unicode = 0029;
},
{
glyphname = asterisk;
layers = (
{
layerId = "54A34634-507D-4D60-97FE-E6568C7C6955";
paths = (
{
closed = 1;
nodes = (
"244 236 OFFCURVE",
"270 236 QCURVE SMOOTH",
"296 236 OFFCURVE",
"332 272 OFFCURVE",
"332 298 QCURVE SMOOTH",
"332 324 OFFCURVE",
"296 360 OFFCURVE",
"270 360 QCURVE SMOOTH",
"244 360 OFFCURVE",
"208 324 OFFCURVE",
"208 298 QCURVE SMOOTH",
"208 272 OFFCURVE"
);
},
{
closed = 1;
nodes = (
"244 576 OFFCURVE",
"270 576 QCURVE SMOOTH",
"296 576 OFFCURVE",
"332 612 OFFCURVE",
"332 638 QCURVE SMOOTH",
"332 664 OFFCURVE",
"296 700 OFFCURVE",
"270 700 QCURVE SMOOTH",
"244 700 OFFCURVE",
"208 664 OFFCURVE",
"208 638 QCURVE SMOOTH",
"208 612 OFFCURVE"
);
},
{
closed = 1;
nodes = (
"474 413 QCURVE SMOOTH",
"463 421 OFFCURVE",
"422 452 OFFCURVE",
"396 468 QCURVE",
"422 484 OFFCURVE",
"463 514 OFFCURVE",
"474 523 QCURVE SMOOTH",
"490 536 OFFCURVE",
"490 558 QCURVE SMOOTH",
"490 578 OFFCURVE",
"462 606 OFFCURVE",
"442 606 QCURVE SMOOTH",
"432 606 OFFCURVE",
"416 597 OFFCURVE",
"408 591 QCURVE SMOOTH",
"398 582 OFFCURVE",
"365 557 OFFCURVE",
"326 534 OFFCURVE",
"286 517 OFFCURVE",
"270 516 QCURVE SMOOTH",
"255 516 OFFCURVE",
"215 532 OFFCURVE",
"176 556 OFFCURVE",
"142 582 OFFCURVE",
"132 591 QCURVE SMOOTH",
"124 597 OFFCURVE",
"108 606 OFFCURVE",
"98 606 QCURVE SMOOTH",
"78 606 OFFCURVE",
"50 578 OFFCURVE",
"50 558 QCURVE SMOOTH",
"50 536 OFFCURVE",
"66 523 QCURVE SMOOTH",
"76 514 OFFCURVE",
"117 484 OFFCURVE",
"143 468 QCURVE",
"117 452 OFFCURVE",
"76 421 OFFCURVE",
"66 413 QCURVE SMOOTH",
"50 400 OFFCURVE",
"50 378 QCURVE SMOOTH",
"50 358 OFFCURVE",
"78 330 OFFCURVE",
"98 330 QCURVE SMOOTH",
"108 330 OFFCURVE",
"124 339 OFFCURVE",
"132 345 QCURVE SMOOTH",
"142 354 OFFCURVE",
"176 379 OFFCURVE",
"215 403 OFFCURVE",
"255 420 OFFCURVE",
"270 420 QCURVE SMOOTH",
"286 419 OFFCURVE",
"326 402 OFFCURVE",
"365 378 OFFCURVE",
"398 353 OFFCURVE",
"408 345 QCURVE SMOOTH",
"416 339 OFFCURVE",
"432 330 OFFCURVE",
"442 330 QCURVE SMOOTH",
"462 330 OFFCURVE",
"490 358 OFFCURVE",
"490 378 QCURVE SMOOTH",
"490 400 OFFCURVE"
);
}
);
userData = {
assembly = "PUSHW[ ]	/* 4 values pushed */\0126 7 0 4 \012CALL[ ]	/* CallFunction */\012NPUSHW[ ]	/* 11 values pushed */\0126 6 22 6 38 6 54 6 70 6 5 \012DELTAP1[ ]	/* DeltaExceptionP1 */\012PUSHW[ ]	/* 1 value pushed */\0120 \012SRP0[ ]	/* SetRefPoint0 */\012PUSHW[ ]	/* 1 value pushed */\01212 \012MDRP[10000]	/* MoveDirectRelPt */\012PUSHW[ ]	/* 1 value pushed */\0126 \012SRP0[ ]	/* SetRefPoint0 */\012PUSHW[ ]	/* 1 value pushed */\01218 \012MDRP[10000]	/* MoveDirectRelPt */\012SVTCA[0]	/* SetFreedomAndProjectionVectorToAxis */\012PUSHW[ ]	/* 4 values pushed */\0123 5 9 4 \012CALL[ ]	/* CallFunction */\012PUSHW[ ]	/* 4 values pushed */\01215 5 21 4 \012CALL[ ]	/* CallFunction */\012PUSHW[ ]	/* 4 values pushed */\01267 1 35 4 \012CALL[ ]	/* CallFunction */\012PUSHW[ ]	/* 3 values pushed */\01251 35 67 \012SRP1[ ]	/* SetRefPoint1 */\012SRP2[ ]	/* SetRefPoint2 */\012IP[ ]	/* InterpolatePts */\012PUSHW[ ]	/* 3 values pushed */\01283 35 67 \012SRP1[ ]	/* SetRefPoint1 */\012SRP2[ ]	/* SetRefPoint2 */\012IP[ ]	/* InterpolatePts */\012IUP[0]	/* InterpolateUntPts */\012IUP[1]	/* InterpolateUntPts */";
};
width = 540;
}
);
note = asterisk;
unicode = 002A;
},
{
glyphname = plus;
layers = (
{
layerId = "54A34634-507D-4D60-97FE-E6568C7C6955";
paths = (
{
closed = 1;
nodes = (
"490 481 OFFCURVE",
"462 509 OFFCURVE",
"442 509 QCURVE SMOOTH",
"422 509 OFFCURVE",
"394 481 OFFCURVE",
"394 461 QCURVE SMOOTH",
"394 339 LINE",
"98 339 LINE SMOOTH",
"78 339 OFFCURVE",
"50 311 OFFCURVE",
"50 291 QCURVE SMOOTH",
"50 272 OFFCURVE",
"76 245 OFFCURVE",
"94 243 QCURVE",
"394 243 LINE",
"394 121 LINE SMOOTH",
"394 101 OFFCURVE",
"422 73 OFFCURVE",
"442 73 QCURVE SMOOTH",
"462 73 OFFCURVE",
"490 101 OFFCURVE",
"490 121 QCURVE SMOOTH",
"490 243 LINE",
"786 243 LINE SMOOTH",
"806 243 OFFCURVE",
"834 271 OFFCURVE",
"834 291 QCURVE SMOOTH",
"834 311 OFFCURVE",
"806 339 OFFCURVE",
"786 339 QCURVE SMOOTH",
"490 339 LINE",
"490 461 LINE SMOOTH"
);
}
);
userData = {
assembly = "PUSHW[ ]	/* 4 values pushed */\0129 6 15 4 \012CALL[ ]	/* CallFunction */\012PUSHW[ ]	/* 1 value pushed */\0129 \012SRP0[ ]	/* SetRefPoint0 */\012PUSHW[ ]	/* 1 value pushed */\0120 \012MDRP[10000]	/* MoveDirectRelPt */\012PUSHW[ ]	/* 1 value pushed */\01215 \012SRP0[ ]	/* SetRefPoint0 */\012PUSHW[ ]	/* 1 value pushed */\01224 \012MDRP[10000]	/* MoveDirectRelPt */\012SVTCA[0]	/* SetFreedomAndProjectionVectorToAxis */\012PUSHW[ ]	/* 4 values pushed */\0121 1 7 4 \012CALL[ ]	/* CallFunction */\012PUSHW[ ]	/* 1 value pushed */\0127 \012SRP0[ ]	/* SetRefPoint0 */\012PUSHW[ ]	/* 1 value pushed */\01216 \012MDRP[10000]	/* MoveDirectRelPt */\012PUSHW[ ]	/* 1 value pushed */\0121 \012SRP0[ ]	/* SetRefPoint0 */\012PUSHW[ ]	/* 1 value pushed */\01223 \012MDRP[10000]	/* MoveDirectRelPt */\012IUP[0]	/* InterpolateUntPts */\012IUP[1]	/* InterpolateUntPts */";
};
width = 884;
}
);
note = plus;
unicode = 002B;
},
{
glyphname = comma;
layers = (
{
layerId = "54A34634-507D-4D60-97FE-E6568C7C6955";
paths = (
{
closed = 1;
nodes = (
"146 141 OFFCURVE",
"118 169 OFFCURVE",
"98 169 QCURVE SMOOTH",
"78 169 OFFCURVE",
"50 141 OFFCURVE",
"50 121 QCURVE SMOOTH",
"50 95 OFFCURVE",
"46 63 OFFCURVE",
"42 45 OFFCURVE",
"36 37 OFFCURVE",
"35 36 QCURVE SMOOTH",
"19 23 OFFCURVE",
"19 0 QCURVE SMOOTH",
"19 -20 OFFCURVE",
"47 -47 OFFCURVE",
"67 -47 QCURVE SMOOTH",
"78 -47 OFFCURVE",
"96 -37 OFFCURVE",
"104 -29 QCURVE SMOOTH",
"129 -6 OFFCURVE",
"146 42 OFFCURVE",
"146 65 QCURVE SMOOTH",
"146 121 LINE SMOOTH"
);
}
);
userData = {
assembly = "PUSHW[ ]	/* 4 values pushed */\01222 6 16 4 \012CALL[ ]	/* CallFunction */\012SVTCA[0]	/* SetFreedomAndProjectionVectorToAxis */\012PUSHW[ ]	/* 4 values pushed */\01219 5 6 4 \012CALL[ ]	/* CallFunction */\012IUP[0]	/* InterpolateUntPts */\012IUP[1]	/* InterpolateUntPts */";
};
width = 196;
}
);
note = comma;
unicode = 002C;
},
{
glyphname = hyphen;
layers = (
{
layerId = "54A34634-507D-4D60-97FE-E6568C7C6955";
paths = (
{
closed = 1;
nodes = (
"78 339 OFFCURVE",
"50 311 OFFCURVE",
"50 291 QCURVE SMOOTH",
"50 272 OFFCURVE",
"76 245 OFFCURVE",
"94 243 QCURVE",
"394 243 LINE SMOOTH",
"414 243 OFFCURVE",
"442 271 OFFCURVE",
"442 291 QCURVE SMOOTH",
"442 311 OFFCURVE",
"414 339 OFFCURVE",
"394 339 QCURVE SMOOTH",
"98 339 LINE SMOOTH"
);
}
);
userData = {
assembly = "PUSHW[ ]	/* 3 values pushed */\0123 10 3 \012CALL[ ]	/* CallFunction */\012NPUSHW[ ]	/* 27 values pushed */\0126 3 22 3 38 3 54 3 70 3 86 3 102 3 118 3 134 3 150 3 166 3 182 3 198 3 13 \012DELTAP1[ ]	/* DeltaExceptionP1 */\012NPUSHW[ ]	/* 5 values pushed */\012213 3 229 3 2 \012DELTAP1[ ]	/* DeltaExceptionP1 */\012PUSHW[ ]	/* 1 value pushed */\0123 \012SRP0[ ]	/* SetRefPoint0 */\012PUSHW[ ]	/* 1 value pushed */\01215 \012MDRP[11100]	/* MoveDirectRelPt */\012SVTCA[0]	/* SetFreedomAndProjectionVectorToAxis */\012PUSHW[ ]	/* 4 values pushed */\0120 1 6 4 \012CALL[ ]	/* CallFunction */\012IUP[0]	/* InterpolateUntPts */\012IUP[1]	/* InterpolateUntPts */";
};
width = 492;
}
);
note = hyphen;
unicode = 002D;
},
{
glyphname = period;
layers = (
{
layerId = "54A34634-507D-4D60-97FE-E6568C7C6955";
paths = (
{
closed = 1;
nodes = (
"86 59 OFFCURVE",
"112 59 QCURVE SMOOTH",
"138 59 OFFCURVE",
"174 95 OFFCURVE",
"174 121 QCURVE SMOOTH",
"174 147 OFFCURVE",
"138 183 OFFCURVE",
"112 183 QCURVE SMOOTH",
"86 183 OFFCURVE",
"50 147 OFFCURVE",
"50 121 QCURVE SMOOTH",
"50 95 OFFCURVE"
);
}
);
userData = {
assembly = "PUSHW[ ]	/* 4 values pushed */\0126 7 0 4 \012CALL[ ]	/* CallFunction */\012NPUSHW[ ]	/* 11 values pushed */\0126 6 22 6 38 6 54 6 70 6 5 \012DELTAP1[ ]	/* DeltaExceptionP1 */\012PUSHW[ ]	/* 1 value pushed */\0126 \012SRP0[ ]	/* SetRefPoint0 */\012PUSHW[ ]	/* 1 value pushed */\01213 \012MDRP[11100]	/* MoveDirectRelPt */\012SVTCA[0]	/* SetFreedomAndProjectionVectorToAxis */\012PUSHW[ ]	/* 4 values pushed */\0123 5 9 4 \012CALL[ ]	/* CallFunction */\012IUP[0]	/* InterpolateUntPts */\012IUP[1]	/* InterpolateUntPts */";
};
width = 224;
}
);
note = period;
unicode = 002E;
},
{
glyphname = slash;
layers = (
{
layerId = "54A34634-507D-4D60-97FE-E6568C7C6955";
paths = (
{
closed = 1;
nodes = (
"346 447 OFFCURVE",
"346 461 QCURVE SMOOTH",
"346 480 OFFCURVE",
"319 509 OFFCURVE",
"299 509 QCURVE SMOOTH",
"286 509 OFFCURVE",
"263 497 OFFCURVE",
"256 485 QCURVE SMOOTH",
"56 145 LINE SMOOTH",
"50 134 OFFCURVE",
"50 121 QCURVE SMOOTH",
"50 102 OFFCURVE",
"77 73 OFFCURVE",
"97 73 QCURVE SMOOTH",
"110 73 OFFCURVE",
"133 85 OFFCURVE",
"140 97 QCURVE SMOOTH",
"340 437 LINE SMOOTH"
);
}
);
userData = {
assembly = "PUSHW[ ]	/* 3 values pushed */\01215 6 3 \012CALL[ ]	/* CallFunction */\012NPUSHW[ ]	/* 27 values pushed */\0126 15 22 15 38 15 54 15 70 15 86 15 102 15 118 15 134 15 150 15 166 15 182 15 198 15 13 \012DELTAP1[ ]	/* DeltaExceptionP1 */\012NPUSHW[ ]	/* 5 values pushed */\012213 15 229 15 2 \012DELTAP1[ ]	/* DeltaExceptionP1 */\012PUSHW[ ]	/* 1 value pushed */\01215 \012SRP0[ ]	/* SetRefPoint0 */\012PUSHW[ ]	/* 1 value pushed */\01219 \012MDRP[11100]	/* MoveDirectRelPt */\012IUP[0]	/* InterpolateUntPts */\012IUP[1]	/* InterpolateUntPts */";
};
width = 396;
}
);
note = slash;
unicode = 002F;
},
{
glyphname = zero;
layers = (
{
layerId = "54A34634-507D-4D60-97FE-E6568C7C6955";
paths = (
{
closed = 1;
nodes = (
"247 339 OFFCURVE",
"219 311 OFFCURVE",
"219 291 QCURVE SMOOTH",
"219 271 OFFCURVE",
"247 243 OFFCURVE",
"267 243 QCURVE SMOOTH",
"647 243 LINE SMOOTH",
"667 243 OFFCURVE",
"695 271 OFFCURVE",
"695 291 QCURVE SMOOTH",
"695 311 OFFCURVE",
"667 339 OFFCURVE",
"647 339 QCURVE SMOOTH",
"267 339 LINE SMOOTH"
);
},
{
closed = 1;
nodes = (
"221 169 OFFCURVE",
"178 194 OFFCURVE",
"153 230 OFFCURVE",
"144 273 OFFCURVE",
"144 291 QCURVE SMOOTH",
"144 309 OFFCURVE",
"153 352 OFFCURVE",
"178 388 OFFCURVE",
"221 413 OFFCURVE",
"256 413 QCURVE SMOOTH",
"658 413 LINE SMOOTH",
"692 413 OFFCURVE",
"736 388 OFFCURVE",
"761 352 OFFCURVE",
"770 309 OFFCURVE",
"770 291 QCURVE SMOOTH",
"770 273 OFFCURVE",
"761 230 OFFCURVE",
"736 194 OFFCURVE",
"692 169 OFFCURVE",
"658 169 QCURVE SMOOTH",
"256 169 LINE SMOOTH"
);
},
{
closed = 1;
nodes = (
"840 406 OFFCURVE",
"795 469 OFFCURVE",
"730 509 OFFCURVE",
"690 509 QCURVE SMOOTH",
"234 509 LINE SMOOTH",
"191 509 OFFCURVE",
"123 469 OFFCURVE",
"75 406 OFFCURVE",
"50 328 OFFCURVE",
"50 291 QCURVE SMOOTH",
"50 253 OFFCURVE",
"74 176 OFFCURVE",
"119 113 OFFCURVE",
"183 73 OFFCURVE",
"224 73 QCURVE SMOOTH",
"680 73 LINE SMOOTH",
"723 73 OFFCURVE",
"791 113 OFFCURVE",
"839 176 OFFCURVE",
"864 253 OFFCURVE",
"864 291 QCURVE SMOOTH",
"864 328 OFFCURVE"
);
}
);
userData = {
assembly = "PUSHW[ ]	/* 1 value pushed */\01258 \012MDAP[1]	/* MoveDirectAbsPt */\012PUSHW[ ]	/* 1 value pushed */\01219 \012MDAP[1]	/* MoveDirectAbsPt */\012NPUSHW[ ]	/* 11 values pushed */\0129 19 25 19 41 19 57 19 73 19 5 \012DELTAP1[ ]	/* DeltaExceptionP1 */\012PUSHW[ ]	/* 1 value pushed */\01258 \012SRP0[ ]	/* SetRefPoint0 */\012PUSHW[ ]	/* 1 value pushed */\01247 \012MDRP[10000]	/* MoveDirectRelPt */\012PUSHW[ ]	/* 1 value pushed */\01247 \012MDAP[1]	/* MoveDirectAbsPt */\012PUSHW[ ]	/* 2 values pushed */\01230 6 \012MIRP[10100]	/* MoveIndirectRelPt */\012NPUSHW[ ]	/* 11 values pushed */\0126 30 22 30 38 30 54 30 70 30 5 \012DELTAP1[ ]	/* DeltaExceptionP1 */\012PUSHW[ ]	/* 1 value pushed */\01219 \012SRP0[ ]	/* SetRefPoint0 */\012PUSHW[ ]	/* 2 values pushed */\01236 6 \012MIRP[10100]	/* MoveIndirectRelPt */\012PUSHW[ ]	/* 1 value pushed */\01259 \012MDRP[11100]	/* MoveDirectRelPt */\012SVTCA[0]	/* SetFreedomAndProjectionVectorToAxis */\012PUSHW[ ]	/* 1 value pushed */\0120 \012RCVT[ ]	/* ReadCVT */\012IF[ ]	/* If */\012PUSHW[ ]	/* 1 value pushed */\01252 \012MDAP[1]	/* MoveDirectAbsPt */\012ELSE[ ]	/* Else */\012PUSHW[ ]	/* 2 values pushed */\01252 10 \012MIAP[0]	/* MoveIndirectAbsPt */\012EIF[ ]	/* EndIf */\012PUSHW[ ]	/* 4 values pushed */\01214 1 41 4 \012CALL[ ]	/* CallFunction */\012PUSHW[ ]	/* 4 values pushed */\0120 1 6 4 \012CALL[ ]	/* CallFunction */\012PUSHW[ ]	/* 1 value pushed */\01252 \012SRP0[ ]	/* SetRefPoint0 */\012PUSHW[ ]	/* 2 values pushed */\01224 1 \012MIRP[10100]	/* MoveIndirectRelPt */\012IUP[0]	/* InterpolateUntPts */\012IUP[1]	/* InterpolateUntPts */";
};
width = 914;
}
);
note = zero;
unicode = 0030;
},
{
glyphname = one;
layers = (
{
layerId = "54A34634-507D-4D60-97FE-E6568C7C6955";
paths = (
{
closed = 1;
nodes = (
"182 101 OFFCURVE",
"210 73 OFFCURVE",
"230 73 QCURVE SMOOTH",
"250 73 OFFCURVE",
"278 101 OFFCURVE",
"278 121 QCURVE SMOOTH",
"278 375 LINE SMOOTH",
"278 403 OFFCURVE",
"257 452 OFFCURVE",
"220 488 OFFCURVE",
"171 509 OFFCURVE",
"143 509 QCURVE SMOOTH",
"98 509 LINE SMOOTH",
"78 509 OFFCURVE",
"50 481 OFFCURVE",
"50 461 QCURVE SMOOTH",
"50 441 OFFCURVE",
"78 413 OFFCURVE",
"98 413 QCURVE SMOOTH",
"144 413 LINE SMOOTH",
"159 413 OFFCURVE",
"182 390 OFFCURVE",
"182 375 QCURVE SMOOTH",
"182 121 LINE SMOOTH"
);
}
);
userData = {
assembly = "PUSHW[ ]	/* 4 values pushed */\01216 6 0 4 \012CALL[ ]	/* CallFunction */\012PUSHW[ ]	/* 1 value pushed */\01216 \012SRP0[ ]	/* SetRefPoint0 */\012PUSHW[ ]	/* 1 value pushed */\01225 \012MDRP[11100]	/* MoveDirectRelPt */\012SVTCA[0]	/* SetFreedomAndProjectionVectorToAxis */\012PUSHW[ ]	/* 1 value pushed */\0120 \012RCVT[ ]	/* ReadCVT */\012IF[ ]	/* If */\012PUSHW[ ]	/* 1 value pushed */\01210 \012MDAP[1]	/* MoveDirectAbsPt */\012ELSE[ ]	/* Else */\012PUSHW[ ]	/* 2 values pushed */\01210 10 \012MIAP[0]	/* MoveIndirectAbsPt */\012EIF[ ]	/* EndIf */\012PUSHW[ ]	/* 2 values pushed */\0123 1 \012MIRP[10100]	/* MoveIndirectRelPt */\012IUP[0]	/* InterpolateUntPts */\012IUP[1]	/* InterpolateUntPts */";
};
width = 328;
}
);
note = one;
unicode = 0031;
},
{
glyphname = two;
layers = (
{
layerId = "54A34634-507D-4D60-97FE-E6568C7C6955";
paths = (
{
closed = 1;
nodes = (
"145 206 LINE SMOOTH",
"145 221 OFFCURVE",
"163 241 OFFCURVE",
"176 243 QCURVE",
"697 243 LINE SMOOTH",
"725 243 OFFCURVE",
"774 264 OFFCURVE",
"811 300 OFFCURVE",
"832 348 OFFCURVE",
"832 376 QCURVE SMOOTH",
"832 404 OFFCURVE",
"811 452 OFFCURVE",
"774 488 OFFCURVE",
"725 509 OFFCURVE",
"697 509 QCURVE SMOOTH",
"98 509 LINE SMOOTH",
"78 509 OFFCURVE",
"50 481 OFFCURVE",
"50 461 QCURVE SMOOTH",
"50 441 OFFCURVE",
"78 413 OFFCURVE",
"98 413 QCURVE SMOOTH",
"701 413 LINE SMOOTH",
"716 413 OFFCURVE",
"739 391 OFFCURVE",
"739 376 QCURVE SMOOTH",
"739 360 OFFCURVE",
"716 339 OFFCURVE",
"701 339 QCURVE SMOOTH",
"170 339 LINE SMOOTH",
"144 339 OFFCURVE",
"101 320 OFFCURVE",
"68 287 OFFCURVE",
"50 242 OFFCURVE",
"50 217 QCURVE SMOOTH",
"50 121 LINE SMOOTH",
"50 101 OFFCURVE",
"78 73 OFFCURVE",
"98 73 QCURVE SMOOTH",
"784 73 LINE SMOOTH",
"804 73 OFFCURVE",
"832 101 OFFCURVE",
"832 121 QCURVE SMOOTH",
"832 141 OFFCURVE",
"804 169 OFFCURVE",
"784 169 QCURVE SMOOTH",
"145 169 LINE"
);
}
);
userData = {
assembly = "PUSHW[ ]	/* 1 value pushed */\01247 \012MDAP[1]	/* MoveDirectAbsPt */\012PUSHW[ ]	/* 1 value pushed */\01220 \012MDAP[1]	/* MoveDirectAbsPt */\012NPUSHW[ ]	/* 11 values pushed */\0129 20 25 20 41 20 57 20 73 20 5 \012DELTAP1[ ]	/* DeltaExceptionP1 */\012PUSHW[ ]	/* 2 values pushed */\01236 6 \012MIRP[10100]	/* MoveIndirectRelPt */\012PUSHW[ ]	/* 1 value pushed */\0123 \012MDRP[10000]	/* MoveDirectRelPt */\012PUSHW[ ]	/* 1 value pushed */\01247 \012SRP0[ ]	/* SetRefPoint0 */\012PUSHW[ ]	/* 1 value pushed */\01210 \012MDRP[10000]	/* MoveDirectRelPt */\012PUSHW[ ]	/* 1 value pushed */\01210 \012MDAP[1]	/* MoveDirectAbsPt */\012PUSHW[ ]	/* 1 value pushed */\01227 \012MDRP[10000]	/* MoveDirectRelPt */\012PUSHW[ ]	/* 1 value pushed */\01210 \012SRP0[ ]	/* SetRefPoint0 */\012PUSHW[ ]	/* 2 values pushed */\01246 6 \012MIRP[10100]	/* MoveIndirectRelPt */\012PUSHW[ ]	/* 1 value pushed */\01236 \012SRP0[ ]	/* SetRefPoint0 */\012PUSHW[ ]	/* 1 value pushed */\01248 \012MDRP[11100]	/* MoveDirectRelPt */\012SVTCA[0]	/* SetFreedomAndProjectionVectorToAxis */\012PUSHW[ ]	/* 1 value pushed */\0120 \012RCVT[ ]	/* ReadCVT */\012IF[ ]	/* If */\012PUSHW[ ]	/* 1 value pushed */\01230 \012MDAP[1]	/* MoveDirectAbsPt */\012ELSE[ ]	/* Else */\012PUSHW[ ]	/* 2 values pushed */\01230 10 \012MIAP[0]	/* MoveIndirectAbsPt */\012EIF[ ]	/* EndIf */\012PUSHW[ ]	/* 4 values pushed */\0120 1 6 4 \012CALL[ ]	/* CallFunction */\012PUSHW[ ]	/* 4 values pushed */\01217 1 41 4 \012CALL[ ]	/* CallFunction */\012PUSHW[ ]	/* 1 value pushed */\01230 \012SRP0[ ]	/* SetRefPoint0 */\012PUSHW[ ]	/* 2 values pushed */\01223 1 \012MIRP[10100]	/* MoveIndirectRelPt */\012IUP[0]	/* InterpolateUntPts */\012IUP[1]	/* InterpolateUntPts */";
};
width = 882;
}
);
note = two;
unicode = 0032;
},
{
glyphname = three;
layers = (
{
layerId = "54A34634-507D-4D60-97FE-E6568C7C6955";
paths = (
{
closed = 1;
nodes = (
"192 243 OFFCURVE",
"212 243 QCURVE SMOOTH",
"709 243 LINE SMOOTH",
"724 243 OFFCURVE",
"746 221 OFFCURVE",
"746 205 QCURVE SMOOTH",
"746 190 OFFCURVE",
"724 169 OFFCURVE",
"709 169 QCURVE SMOOTH",
"98 169 LINE SMOOTH",
"78 169 OFFCURVE",
"50 141 OFFCURVE",
"50 121 QCURVE SMOOTH",
"50 101 OFFCURVE",
"78 73 OFFCURVE",
"98 73 QCURVE SMOOTH",
"704 73 LINE SMOOTH",
"732 73 OFFCURVE",
"781 93 OFFCURVE",
"817 129 OFFCURVE",
"838 177 OFFCURVE",
"838 205 QCURVE SMOOTH",
"838 253 OFFCURVE",
"806 291 QCURVE",
"821 308 OFFCURVE",
"838 352 OFFCURVE",
"838 377 QCURVE SMOOTH",
"838 405 OFFCURVE",
"817 453 OFFCURVE",
"781 489 OFFCURVE",
"732 509 OFFCURVE",
"704 509 QCURVE SMOOTH",
"98 509 LINE SMOOTH",
"78 509 OFFCURVE",
"50 481 OFFCURVE",
"50 461 QCURVE SMOOTH",
"50 441 OFFCURVE",
"78 413 OFFCURVE",
"98 413 QCURVE SMOOTH",
"709 413 LINE SMOOTH",
"724 413 OFFCURVE",
"746 392 OFFCURVE",
"746 377 QCURVE SMOOTH",
"746 361 OFFCURVE",
"724 339 OFFCURVE",
"709 339 QCURVE SMOOTH",
"212 339 LINE SMOOTH",
"192 339 OFFCURVE",
"164 311 OFFCURVE",
"164 291 QCURVE SMOOTH",
"164 271 OFFCURVE"
);
}
);
userData = {
assembly = "PUSHW[ ]	/* 4 values pushed */\01223 6 7 4 \012CALL[ ]	/* CallFunction */\012NPUSHW[ ]	/* 11 values pushed */\0129 7 25 7 41 7 57 7 73 7 5 \012DELTAP1[ ]	/* DeltaExceptionP1 */\012PUSHW[ ]	/* 1 value pushed */\01223 \012SRP0[ ]	/* SetRefPoint0 */\012PUSHW[ ]	/* 1 value pushed */\01228 \012MDRP[10000]	/* MoveDirectRelPt */\012PUSHW[ ]	/* 1 value pushed */\0127 \012SRP0[ ]	/* SetRefPoint0 */\012PUSHW[ ]	/* 1 value pushed */\01244 \012MDRP[10000]	/* MoveDirectRelPt */\012PUSHW[ ]	/* 1 value pushed */\01223 \012SRP0[ ]	/* SetRefPoint0 */\012PUSHW[ ]	/* 1 value pushed */\01252 \012MDRP[11100]	/* MoveDirectRelPt */\012SVTCA[0]	/* SetFreedomAndProjectionVectorToAxis */\012PUSHW[ ]	/* 1 value pushed */\0120 \012RCVT[ ]	/* ReadCVT */\012IF[ ]	/* If */\012PUSHW[ ]	/* 1 value pushed */\01217 \012MDAP[1]	/* MoveDirectAbsPt */\012ELSE[ ]	/* Else */\012PUSHW[ ]	/* 2 values pushed */\01217 10 \012MIAP[0]	/* MoveIndirectAbsPt */\012EIF[ ]	/* EndIf */\012PUSHW[ ]	/* 4 values pushed */\01241 1 33 4 \012CALL[ ]	/* CallFunction */\012PUSHW[ ]	/* 4 values pushed */\0124 1 47 4 \012CALL[ ]	/* CallFunction */\012PUSHW[ ]	/* 1 value pushed */\01217 \012SRP0[ ]	/* SetRefPoint0 */\012PUSHW[ ]	/* 2 values pushed */\01210 1 \012MIRP[10100]	/* MoveIndirectRelPt */\012IUP[0]	/* InterpolateUntPts */\012IUP[1]	/* InterpolateUntPts */";
};
width = 888;
}
);
note = three;
unicode = 0033;
},
{
glyphname = four;
layers = (
{
layerId = "54A34634-507D-4D60-97FE-E6568C7C6955";
paths = (
{
closed = 1;
nodes = (
"146 481 OFFCURVE",
"118 509 OFFCURVE",
"98 509 QCURVE SMOOTH",
"78 509 OFFCURVE",
"50 481 OFFCURVE",
"50 461 QCURVE SMOOTH",
"50 336 LINE SMOOTH",
"50 308 OFFCURVE",
"72 260 OFFCURVE",
"110 224 OFFCURVE",
"160 203 OFFCURVE",
"188 203 QCURVE SMOOTH",
"738 203 LINE",
"738 121 LINE SMOOTH",
"738 101 OFFCURVE",
"767 73 OFFCURVE",
"786 73 QCURVE SMOOTH",
"806 73 OFFCURVE",
"834 101 OFFCURVE",
"834 121 QCURVE SMOOTH",
"834 461 LINE SMOOTH",
"834 481 OFFCURVE",
"806 509 OFFCURVE",
"786 509 QCURVE SMOOTH",
"766 509 OFFCURVE",
"738 481 OFFCURVE",
"738 461 QCURVE SMOOTH",
"738 299 LINE",
"184 299 LINE SMOOTH",
"169 299 OFFCURVE",
"146 320 OFFCURVE",
"146 336 QCURVE SMOOTH",
"146 461 LINE SMOOTH"
);
}
);
userData = {
assembly = "PUSHW[ ]	/* 1 value pushed */\01233 \012MDAP[1]	/* MoveDirectAbsPt */\012PUSHW[ ]	/* 1 value pushed */\0125 \012MDAP[1]	/* MoveDirectAbsPt */\012PUSHW[ ]	/* 1 value pushed */\01233 \012SRP0[ ]	/* SetRefPoint0 */\012PUSHW[ ]	/* 1 value pushed */\01225 \012MDRP[10000]	/* MoveDirectRelPt */\012PUSHW[ ]	/* 1 value pushed */\01225 \012MDAP[1]	/* MoveDirectAbsPt */\012PUSHW[ ]	/* 2 values pushed */\0120 6 \012MIRP[10100]	/* MoveIndirectRelPt */\012PUSHW[ ]	/* 1 value pushed */\0125 \012SRP0[ ]	/* SetRefPoint0 */\012PUSHW[ ]	/* 2 values pushed */\01211 6 \012MIRP[10100]	/* MoveIndirectRelPt */\012PUSHW[ ]	/* 1 value pushed */\0125 \012SRP0[ ]	/* SetRefPoint0 */\012PUSHW[ ]	/* 1 value pushed */\01218 \012MDRP[10000]	/* MoveDirectRelPt */\012PUSHW[ ]	/* 1 value pushed */\01211 \012SRP0[ ]	/* SetRefPoint0 */\012PUSHW[ ]	/* 1 value pushed */\01234 \012MDRP[11100]	/* MoveDirectRelPt */\012SVTCA[0]	/* SetFreedomAndProjectionVectorToAxis */\012PUSHW[ ]	/* 4 values pushed */\0124 1 19 4 \012CALL[ ]	/* CallFunction */\012IUP[0]	/* InterpolateUntPts */\012IUP[1]	/* InterpolateUntPts */";
};
width = 884;
}
);
note = four;
unicode = 0034;
},
{
glyphname = five;
layers = (
{
layerId = "54A34634-507D-4D60-97FE-E6568C7C6955";
paths = (
{
closed = 1;
nodes = (
"780 413 OFFCURVE",
"808 441 OFFCURVE",
"808 461 QCURVE SMOOTH",
"808 481 OFFCURVE",
"780 509 OFFCURVE",
"760 509 QCURVE SMOOTH",
"115 509 LINE SMOOTH",
"82 509 OFFCURVE",
"51 491 OFFCURVE",
"51 464 QCURVE SMOOTH",
"51 374 LINE SMOOTH",
"51 344 OFFCURVE",
"73 296 OFFCURVE",
"107 262 OFFCURVE",
"151 243 OFFCURVE",
"173 243 QCURVE SMOOTH",
"709 243 LINE SMOOTH",
"724 243 OFFCURVE",
"746 221 OFFCURVE",
"746 205 QCURVE SMOOTH",
"746 190 OFFCURVE",
"724 169 OFFCURVE",
"709 169 QCURVE SMOOTH",
"98 169 LINE SMOOTH",
"78 169 OFFCURVE",
"50 141 OFFCURVE",
"50 121 QCURVE SMOOTH",
"50 101 OFFCURVE",
"78 73 OFFCURVE",
"98 73 QCURVE SMOOTH",
"704 73 LINE SMOOTH",
"732 73 OFFCURVE",
"781 93 OFFCURVE",
"817 129 OFFCURVE",
"838 177 OFFCURVE",
"838 205 QCURVE SMOOTH",
"838 233 OFFCURVE",
"817 282 OFFCURVE",
"781 318 OFFCURVE",
"732 339 OFFCURVE",
"704 339 QCURVE SMOOTH",
"178 339 LINE SMOOTH",
"164 339 OFFCURVE",
"147 354 OFFCURVE",
"147 364 QCURVE SMOOTH",
"147 413 LINE",
"760 413 LINE SMOOTH"
);
}
);
userData = {
assembly = "PUSHW[ ]	/* 1 value pushed */\01247 \012MDAP[1]	/* MoveDirectAbsPt */\012PUSHW[ ]	/* 1 value pushed */\01226 \012MDAP[1]	/* MoveDirectAbsPt */\012PUSHW[ ]	/* 1 value pushed */\01247 \012SRP0[ ]	/* SetRefPoint0 */\012PUSHW[ ]	/* 1 value pushed */\01235 \012MDRP[10000]	/* MoveDirectRelPt */\012PUSHW[ ]	/* 1 value pushed */\01235 \012MDAP[1]	/* MoveDirectAbsPt */\012PUSHW[ ]	/* 2 values pushed */\0121 6 \012MIRP[10100]	/* MoveIndirectRelPt */\012NPUSHW[ ]	/* 11 values pushed */\0129 26 25 26 41 26 57 26 73 26 5 \012DELTAP1[ ]	/* DeltaExceptionP1 */\012PUSHW[ ]	/* 1 value pushed */\01226 \012SRP0[ ]	/* SetRefPoint0 */\012PUSHW[ ]	/* 2 values pushed */\01210 6 \012MIRP[10100]	/* MoveIndirectRelPt */\012PUSHW[ ]	/* 1 value pushed */\01235 \012SRP0[ ]	/* SetRefPoint0 */\012PUSHW[ ]	/* 1 value pushed */\01219 \012MDRP[10000]	/* MoveDirectRelPt */\012PUSHW[ ]	/* 1 value pushed */\01219 \012MDAP[1]	/* MoveDirectAbsPt */\012PUSHW[ ]	/* 1 value pushed */\01210 \012SRP0[ ]	/* SetRefPoint0 */\012PUSHW[ ]	/* 1 value pushed */\01248 \012MDRP[11100]	/* MoveDirectRelPt */\012SVTCA[0]	/* SetFreedomAndProjectionVectorToAxis */\012PUSHW[ ]	/* 1 value pushed */\0120 \012RCVT[ ]	/* ReadCVT */\012IF[ ]	/* If */\012PUSHW[ ]	/* 1 value pushed */\01239 \012MDAP[1]	/* MoveDirectAbsPt */\012ELSE[ ]	/* Else */\012PUSHW[ ]	/* 2 values pushed */\01239 10 \012MIAP[0]	/* MoveIndirectAbsPt */\012EIF[ ]	/* EndIf */\012PUSHW[ ]	/* 4 values pushed */\01223 1 15 4 \012CALL[ ]	/* CallFunction */\012PUSHW[ ]	/* 4 values pushed */\0125 1 29 4 \012CALL[ ]	/* CallFunction */\012PUSHW[ ]	/* 1 value pushed */\01239 \012SRP0[ ]	/* SetRefPoint0 */\012PUSHW[ ]	/* 2 values pushed */\0120 1 \012MIRP[10100]	/* MoveIndirectRelPt */\012IUP[0]	/* InterpolateUntPts */\012IUP[1]	/* InterpolateUntPts */";
};
width = 888;
}
);
note = five;
unicode = 0035;
},
{
glyphname = six;
layers = (
{
layerId = "54A34634-507D-4D60-97FE-E6568C7C6955";
paths = (
{
closed = 1;
nodes = (
"753 243 OFFCURVE",
"770 221 OFFCURVE",
"770 206 QCURVE SMOOTH",
"770 191 OFFCURVE",
"751 169 OFFCURVE",
"739 169 QCURVE SMOOTH",
"362 169 LINE",
"362 170 LINE",
"337 175 OFFCURVE",
"337 206 QCURVE SMOOTH",
"337 220 OFFCURVE",
"352 240 OFFCURVE",
"362 243 QCURVE",
"739 243 LINE SMOOTH"
);
},
{
closed = 1;
nodes = (
"336 339 OFFCURVE",
"293 320 OFFCURVE",
"260 287 OFFCURVE",
"242 242 OFFCURVE",
"242 217 QCURVE SMOOTH",
"242 195 LINE SMOOTH",
"242 181 OFFCURVE",
"245 169 QCURVE",
"213 170 OFFCURVE",
"172 196 OFFCURVE",
"149 232 OFFCURVE",
"141 274 OFFCURVE",
"141 291 QCURVE SMOOTH",
"141 309 OFFCURVE",
"150 352 OFFCURVE",
"175 388 OFFCURVE",
"218 413 OFFCURVE",
"253 413 QCURVE SMOOTH",
"817 413 LINE SMOOTH",
"837 413 OFFCURVE",
"865 441 OFFCURVE",
"865 461 QCURVE SMOOTH",
"865 481 OFFCURVE",
"837 509 OFFCURVE",
"817 509 QCURVE SMOOTH",
"234 509 LINE SMOOTH",
"191 509 OFFCURVE",
"123 469 OFFCURVE",
"75 406 OFFCURVE",
"50 328 OFFCURVE",
"50 291 QCURVE SMOOTH",
"50 253 OFFCURVE",
"74 176 OFFCURVE",
"119 113 OFFCURVE",
"183 73 OFFCURVE",
"224 73 QCURVE SMOOTH",
"357 73 LINE",
"362 73 LINE",
"745 73 LINE SMOOTH",
"770 73 OFFCURVE",
"814 92 OFFCURVE",
"847 125 OFFCURVE",
"865 169 OFFCURVE",
"865 195 QCURVE SMOOTH",
"865 217 LINE SMOOTH",
"865 242 OFFCURVE",
"847 287 OFFCURVE",
"814 320 OFFCURVE",
"770 339 OFFCURVE",
"745 339 QCURVE SMOOTH",
"362 339 LINE SMOOTH"
);
}
);
userData = {
assembly = "PUSHW[ ]	/* 4 values pushed */\01251 6 33 4 \012CALL[ ]	/* CallFunction */\012PUSHW[ ]	/* 4 values pushed */\0123 6 58 4 \012CALL[ ]	/* CallFunction */\012PUSHW[ ]	/* 4 values pushed */\01219 6 10 4 \012CALL[ ]	/* CallFunction */\012PUSHW[ ]	/* 1 value pushed */\01219 \012SRP0[ ]	/* SetRefPoint0 */\012PUSHW[ ]	/* 1 value pushed */\01242 \012MDRP[10000]	/* MoveDirectRelPt */\012NPUSHW[ ]	/* 11 values pushed */\0126 51 22 51 38 51 54 51 70 51 5 \012DELTAP1[ ]	/* DeltaExceptionP1 */\012PUSHW[ ]	/* 3 values pushed */\01256 58 3 \012SRP1[ ]	/* SetRefPoint1 */\012SRP2[ ]	/* SetRefPoint2 */\012IP[ ]	/* InterpolatePts */\012PUSHW[ ]	/* 1 value pushed */\01219 \012SRP0[ ]	/* SetRefPoint0 */\012PUSHW[ ]	/* 1 value pushed */\01266 \012MDRP[11100]	/* MoveDirectRelPt */\012SVTCA[0]	/* SetFreedomAndProjectionVectorToAxis */\012PUSHW[ ]	/* 1 value pushed */\0120 \012RCVT[ ]	/* ReadCVT */\012IF[ ]	/* If */\012PUSHW[ ]	/* 1 value pushed */\01238 \012MDAP[1]	/* MoveDirectAbsPt */\012ELSE[ ]	/* Else */\012PUSHW[ ]	/* 2 values pushed */\01238 10 \012MIAP[0]	/* MoveIndirectAbsPt */\012EIF[ ]	/* EndIf */\012PUSHW[ ]	/* 4 values pushed */\0127 1 25 4 \012CALL[ ]	/* CallFunction */\012PUSHW[ ]	/* 4 values pushed */\01264 1 0 4 \012CALL[ ]	/* CallFunction */\012PUSHW[ ]	/* 1 value pushed */\0127 \012SRP0[ ]	/* SetRefPoint0 */\012PUSHW[ ]	/* 1 value pushed */\0125 \012MDRP[10000]	/* MoveDirectRelPt */\012PUSHW[ ]	/* 1 value pushed */\0125 \012MDAP[1]	/* MoveDirectAbsPt */\012PUSHW[ ]	/* 1 value pushed */\01225 \012SRP0[ ]	/* SetRefPoint0 */\012PUSHW[ ]	/* 1 value pushed */\01227 \012MDRP[10000]	/* MoveDirectRelPt */\012PUSHW[ ]	/* 1 value pushed */\01238 \012SRP0[ ]	/* SetRefPoint0 */\012PUSHW[ ]	/* 2 values pushed */\01245 1 \012MIRP[10100]	/* MoveIndirectRelPt */\012PUSHW[ ]	/* 1 value pushed */\0127 \012SRP0[ ]	/* SetRefPoint0 */\012PUSHW[ ]	/* 1 value pushed */\01256 \012MDRP[10000]	/* MoveDirectRelPt */\012IUP[0]	/* InterpolateUntPts */\012IUP[1]	/* InterpolateUntPts */";
};
width = 915;
}
);
note = six;
unicode = 0036;
},
{
glyphname = seven;
layers = (
{
layerId = "54A34634-507D-4D60-97FE-E6568C7C6955";
paths = (
{
closed = 1;
nodes = (
"716 413 OFFCURVE",
"739 391 OFFCURVE",
"739 376 QCURVE SMOOTH",
"739 360 OFFCURVE",
"725 343 OFFCURVE",
"708 338 QCURVE SMOOTH",
"109 167 LINE SMOOTH",
"94 162 OFFCURVE",
"72 138 OFFCURVE",
"72 121 QCURVE SMOOTH",
"72 100 OFFCURVE",
"103 73 OFFCURVE",
"123 73 QCURVE SMOOTH",
"130 73 OFFCURVE",
"141 77 OFFCURVE",
"149 79 QCURVE SMOOTH",
"695 240 LINE SMOOTH",
"723 248 OFFCURVE",
"773 267 OFFCURVE",
"810 297 OFFCURVE",
"832 342 OFFCURVE",
"832 376 QCURVE SMOOTH",
"832 404 OFFCURVE",
"811 452 OFFCURVE",
"774 488 OFFCURVE",
"725 509 OFFCURVE",
"697 509 QCURVE SMOOTH",
"98 509 LINE SMOOTH",
"78 509 OFFCURVE",
"50 481 OFFCURVE",
"50 461 QCURVE SMOOTH",
"50 441 OFFCURVE",
"78 413 OFFCURVE",
"98 413 QCURVE SMOOTH",
"701 413 LINE SMOOTH"
);
}
);
userData = {
assembly = "PUSHW[ ]	/* 4 values pushed */\01212 6 31 4 \012CALL[ ]	/* CallFunction */\012NPUSHW[ ]	/* 11 values pushed */\0129 31 25 31 41 31 57 31 73 31 5 \012DELTAP1[ ]	/* DeltaExceptionP1 */\012PUSHW[ ]	/* 1 value pushed */\01212 \012SRP0[ ]	/* SetRefPoint0 */\012PUSHW[ ]	/* 1 value pushed */\01236 \012MDRP[11100]	/* MoveDirectRelPt */\012SVTCA[0]	/* SetFreedomAndProjectionVectorToAxis */\012PUSHW[ ]	/* 1 value pushed */\0120 \012RCVT[ ]	/* ReadCVT */\012IF[ ]	/* If */\012PUSHW[ ]	/* 1 value pushed */\0126 \012MDAP[1]	/* MoveDirectAbsPt */\012ELSE[ ]	/* Else */\012PUSHW[ ]	/* 2 values pushed */\0126 10 \012MIAP[0]	/* MoveIndirectAbsPt */\012EIF[ ]	/* EndIf */\012PUSHW[ ]	/* 2 values pushed */\0120 1 \012MIRP[10100]	/* MoveIndirectRelPt */\012IUP[0]	/* InterpolateUntPts */\012IUP[1]	/* InterpolateUntPts */";
};
width = 882;
}
);
note = seven;
unicode = 0037;
},
{
glyphname = eight;
layers = (
{
layerId = "54A34634-507D-4D60-97FE-E6568C7C6955";
paths = (
{
closed = 1;
nodes = (
"166 169 OFFCURVE",
"143 192 OFFCURVE",
"143 207 QCURVE SMOOTH",
"143 223 OFFCURVE",
"165 243 OFFCURVE",
"180 243 QCURVE SMOOTH",
"701 243 LINE SMOOTH",
"716 243 OFFCURVE",
"739 222 OFFCURVE",
"739 206 QCURVE SMOOTH",
"739 191 OFFCURVE",
"716 169 OFFCURVE",
"701 169 QCURVE SMOOTH",
"181 169 LINE SMOOTH"
);
},
{
closed = 1;
nodes = (
"716 413 OFFCURVE",
"739 390 OFFCURVE",
"739 375 QCURVE SMOOTH",
"739 359 OFFCURVE",
"717 339 OFFCURVE",
"702 339 QCURVE SMOOTH",
"181 339 LINE SMOOTH",
"166 339 OFFCURVE",
"143 360 OFFCURVE",
"143 376 QCURVE SMOOTH",
"143 391 OFFCURVE",
"166 413 OFFCURVE",
"181 413 QCURVE SMOOTH",
"701 413 LINE SMOOTH"
);
},
{
closed = 1;
nodes = (
"725 73 OFFCURVE",
"774 94 OFFCURVE",
"811 130 OFFCURVE",
"832 178 OFFCURVE",
"832 206 QCURVE SMOOTH",
"832 230 OFFCURVE",
"815 273 OFFCURVE",
"801 290 QCURVE",
"815 307 OFFCURVE",
"832 350 OFFCURVE",
"832 375 QCURVE SMOOTH",
"832 403 OFFCURVE",
"811 452 OFFCURVE",
"774 488 OFFCURVE",
"725 509 OFFCURVE",
"697 509 QCURVE SMOOTH",
"185 509 LINE SMOOTH",
"157 509 OFFCURVE",
"108 488 OFFCURVE",
"71 452 OFFCURVE",
"50 404 OFFCURVE",
"50 376 QCURVE SMOOTH",
"50 352 OFFCURVE",
"67 309 OFFCURVE",
"81 292 QCURVE",
"67 275 OFFCURVE",
"50 232 OFFCURVE",
"50 207 QCURVE SMOOTH",
"50 179 OFFCURVE",
"71 130 OFFCURVE",
"108 94 OFFCURVE",
"157 73 OFFCURVE",
"185 73 QCURVE SMOOTH",
"697 73 LINE SMOOTH"
);
}
);
userData = {
assembly = "PUSHW[ ]	/* 1 value pushed */\01262 \012MDAP[1]	/* MoveDirectAbsPt */\012PUSHW[ ]	/* 1 value pushed */\0123 \012MDAP[1]	/* MoveDirectAbsPt */\012NPUSHW[ ]	/* 11 values pushed */\0129 3 25 3 41 3 57 3 73 3 5 \012DELTAP1[ ]	/* DeltaExceptionP1 */\012PUSHW[ ]	/* 1 value pushed */\01262 \012SRP0[ ]	/* SetRefPoint0 */\012PUSHW[ ]	/* 1 value pushed */\01233 \012MDRP[10000]	/* MoveDirectRelPt */\012PUSHW[ ]	/* 1 value pushed */\01233 \012MDAP[1]	/* MoveDirectAbsPt */\012PUSHW[ ]	/* 2 values pushed */\01210 6 \012MIRP[10100]	/* MoveIndirectRelPt */\012NPUSHW[ ]	/* 11 values pushed */\0126 10 22 10 38 10 54 10 70 10 5 \012DELTAP1[ ]	/* DeltaExceptionP1 */\012PUSHW[ ]	/* 1 value pushed */\01217 \012MDRP[10000]	/* MoveDirectRelPt */\012PUSHW[ ]	/* 1 value pushed */\0123 \012SRP0[ ]	/* SetRefPoint0 */\012PUSHW[ ]	/* 1 value pushed */\01224 \012MDRP[10000]	/* MoveDirectRelPt */\012PUSHW[ ]	/* 1 value pushed */\01233 \012SRP0[ ]	/* SetRefPoint0 */\012PUSHW[ ]	/* 1 value pushed */\01239 \012MDRP[10000]	/* MoveDirectRelPt */\012PUSHW[ ]	/* 1 value pushed */\0123 \012SRP0[ ]	/* SetRefPoint0 */\012PUSHW[ ]	/* 2 values pushed */\01256 6 \012MIRP[10100]	/* MoveIndirectRelPt */\012PUSHW[ ]	/* 1 value pushed */\01250 \012MDRP[10000]	/* MoveDirectRelPt */\012PUSHW[ ]	/* 1 value pushed */\01256 \012SRP0[ ]	/* SetRefPoint0 */\012PUSHW[ ]	/* 1 value pushed */\01263 \012MDRP[11100]	/* MoveDirectRelPt */\012SVTCA[0]	/* SetFreedomAndProjectionVectorToAxis */\012PUSHW[ ]	/* 1 value pushed */\0120 \012RCVT[ ]	/* ReadCVT */\012IF[ ]	/* If */\012PUSHW[ ]	/* 1 value pushed */\01244 \012MDAP[1]	/* MoveDirectAbsPt */\012ELSE[ ]	/* Else */\012PUSHW[ ]	/* 2 values pushed */\01244 10 \012MIAP[0]	/* MoveIndirectAbsPt */\012EIF[ ]	/* EndIf */\012PUSHW[ ]	/* 4 values pushed */\01213 1 28 4 \012CALL[ ]	/* CallFunction */\012PUSHW[ ]	/* 4 values pushed */\01221 1 6 4 \012CALL[ ]	/* CallFunction */\012PUSHW[ ]	/* 1 value pushed */\01244 \012SRP0[ ]	/* SetRefPoint0 */\012PUSHW[ ]	/* 2 values pushed */\01214 1 \012MIRP[10100]	/* MoveIndirectRelPt */\012IUP[0]	/* InterpolateUntPts */\012IUP[1]	/* InterpolateUntPts */";
};
width = 882;
}
);
note = eight;
unicode = 0038;
},
{
glyphname = nine;
layers = (
{
layerId = "54A34634-507D-4D60-97FE-E6568C7C6955";
paths = (
{
closed = 1;
nodes = (
"804 509 OFFCURVE",
"784 509 QCURVE SMOOTH",
"185 509 LINE SMOOTH",
"157 509 OFFCURVE",
"108 488 OFFCURVE",
"71 452 OFFCURVE",
"50 404 OFFCURVE",
"50 376 QCURVE SMOOTH",
"50 348 OFFCURVE",
"71 300 OFFCURVE",
"108 264 OFFCURVE",
"157 243 OFFCURVE",
"185 243 QCURVE SMOOTH",
"705 243 LINE",
"718 241 OFFCURVE",
"736 221 OFFCURVE",
"736 206 QCURVE SMOOTH",
"736 121 LINE SMOOTH",
"736 101 OFFCURVE",
"765 73 OFFCURVE",
"784 73 QCURVE SMOOTH",
"804 73 OFFCURVE",
"832 101 OFFCURVE",
"832 121 QCURVE SMOOTH",
"832 217 LINE SMOOTH",
"832 242 OFFCURVE",
"814 287 OFFCURVE",
"781 320 OFFCURVE",
"737 339 OFFCURVE",
"712 339 QCURVE SMOOTH",
"181 339 LINE SMOOTH",
"166 339 OFFCURVE",
"143 360 OFFCURVE",
"143 376 QCURVE SMOOTH",
"143 391 OFFCURVE",
"166 413 OFFCURVE",
"181 413 QCURVE SMOOTH",
"784 413 LINE SMOOTH",
"804 413 OFFCURVE",
"832 441 OFFCURVE",
"832 461 QCURVE SMOOTH",
"832 481 OFFCURVE"
);
}
);
userData = {
assembly = "PUSHW[ ]	/* 1 value pushed */\01242 \012MDAP[1]	/* MoveDirectAbsPt */\012PUSHW[ ]	/* 1 value pushed */\01223 \012MDAP[1]	/* MoveDirectAbsPt */\012PUSHW[ ]	/* 2 values pushed */\01217 6 \012MIRP[10100]	/* MoveIndirectRelPt */\012PUSHW[ ]	/* 1 value pushed */\0120 \012MDRP[10000]	/* MoveDirectRelPt */\012PUSHW[ ]	/* 1 value pushed */\01242 \012SRP0[ ]	/* SetRefPoint0 */\012PUSHW[ ]	/* 1 value pushed */\01233 \012MDRP[10000]	/* MoveDirectRelPt */\012PUSHW[ ]	/* 1 value pushed */\01233 \012MDAP[1]	/* MoveDirectAbsPt */\012PUSHW[ ]	/* 2 values pushed */\0127 6 \012MIRP[10100]	/* MoveIndirectRelPt */\012NPUSHW[ ]	/* 11 values pushed */\0126 7 22 7 38 7 54 7 70 7 5 \012DELTAP1[ ]	/* DeltaExceptionP1 */\012PUSHW[ ]	/* 1 value pushed */\01217 \012SRP0[ ]	/* SetRefPoint0 */\012PUSHW[ ]	/* 1 value pushed */\01243 \012MDRP[11100]	/* MoveDirectRelPt */\012SVTCA[0]	/* SetFreedomAndProjectionVectorToAxis */\012PUSHW[ ]	/* 1 value pushed */\0120 \012RCVT[ ]	/* ReadCVT */\012IF[ ]	/* If */\012PUSHW[ ]	/* 1 value pushed */\01238 \012MDAP[1]	/* MoveDirectAbsPt */\012ELSE[ ]	/* Else */\012PUSHW[ ]	/* 2 values pushed */\01238 10 \012MIAP[0]	/* MoveIndirectAbsPt */\012EIF[ ]	/* EndIf */\012PUSHW[ ]	/* 4 values pushed */\01211 1 27 4 \012CALL[ ]	/* CallFunction */\012PUSHW[ ]	/* 1 value pushed */\01238 \012SRP0[ ]	/* SetRefPoint0 */\012PUSHW[ ]	/* 2 values pushed */\0123 1 \012MIRP[10100]	/* MoveIndirectRelPt */\012IUP[0]	/* InterpolateUntPts */\012IUP[1]	/* InterpolateUntPts */";
};
width = 882;
}
);
note = nine;
unicode = 0039;
},
{
glyphname = colon;
layers = (
{
layerId = "54A34634-507D-4D60-97FE-E6568C7C6955";
paths = (
{
closed = 1;
nodes = (
"86 339 OFFCURVE",
"112 339 QCURVE SMOOTH",
"138 339 OFFCURVE",
"174 375 OFFCURVE",
"174 401 QCURVE SMOOTH",
"174 427 OFFCURVE",
"138 463 OFFCURVE",
"112 463 QCURVE SMOOTH",
"86 463 OFFCURVE",
"50 427 OFFCURVE",
"50 401 QCURVE SMOOTH",
"50 375 OFFCURVE"
);
},
{
closed = 1;
nodes = (
"86 59 OFFCURVE",
"112 59 QCURVE SMOOTH",
"138 59 OFFCURVE",
"174 95 OFFCURVE",
"174 121 QCURVE SMOOTH",
"174 147 OFFCURVE",
"138 183 OFFCURVE",
"112 183 QCURVE SMOOTH",
"86 183 OFFCURVE",
"50 147 OFFCURVE",
"50 121 QCURVE SMOOTH",
"50 95 OFFCURVE"
);
}
);
userData = {
assembly = "PUSHW[ ]	/* 4 values pushed */\0126 7 0 4 \012CALL[ ]	/* CallFunction */\012NPUSHW[ ]	/* 11 values pushed */\0126 6 22 6 38 6 54 6 70 6 5 \012DELTAP1[ ]	/* DeltaExceptionP1 */\012PUSHW[ ]	/* 1 value pushed */\0120 \012SRP0[ ]	/* SetRefPoint0 */\012PUSHW[ ]	/* 1 value pushed */\01212 \012MDRP[10000]	/* MoveDirectRelPt */\012PUSHW[ ]	/* 1 value pushed */\0126 \012SRP0[ ]	/* SetRefPoint0 */\012PUSHW[ ]	/* 1 value pushed */\01218 \012MDRP[10000]	/* MoveDirectRelPt */\012PUSHW[ ]	/* 1 value pushed */\0126 \012SRP0[ ]	/* SetRefPoint0 */\012PUSHW[ ]	/* 1 value pushed */\01225 \012MDRP[11100]	/* MoveDirectRelPt */\012SVTCA[0]	/* SetFreedomAndProjectionVectorToAxis */\012PUSHW[ ]	/* 4 values pushed */\01215 5 21 4 \012CALL[ ]	/* CallFunction */\012PUSHW[ ]	/* 4 values pushed */\0123 5 9 4 \012CALL[ ]	/* CallFunction */\012IUP[0]	/* InterpolateUntPts */\012IUP[1]	/* InterpolateUntPts */";
};
width = 224;
}
);
note = colon;
unicode = 003A;
},
{
glyphname = semicolon;
layers = (
{
layerId = "54A34634-507D-4D60-97FE-E6568C7C6955";
paths = (
{
closed = 1;
nodes = (
"161 141 OFFCURVE",
"133 169 OFFCURVE",
"113 169 QCURVE SMOOTH",
"93 169 OFFCURVE",
"65 141 OFFCURVE",
"65 121 QCURVE SMOOTH",
"65 95 OFFCURVE",
"61 63 OFFCURVE",
"57 45 OFFCURVE",
"51 37 OFFCURVE",
"50 36 QCURVE SMOOTH",
"34 23 OFFCURVE",
"34 0 QCURVE SMOOTH",
"34 -20 OFFCURVE",
"62 -47 OFFCURVE",
"82 -47 QCURVE SMOOTH",
"93 -47 OFFCURVE",
"111 -37 OFFCURVE",
"119 -29 QCURVE SMOOTH",
"144 -6 OFFCURVE",
"161 42 OFFCURVE",
"161 65 QCURVE SMOOTH",
"161 121 LINE SMOOTH"
);
},
{
closed = 1;
nodes = (
"86 339 OFFCURVE",
"112 339 QCURVE SMOOTH",
"138 339 OFFCURVE",
"174 375 OFFCURVE",
"174 401 QCURVE SMOOTH",
"174 427 OFFCURVE",
"138 463 OFFCURVE",
"112 463 QCURVE SMOOTH",
"86 463 OFFCURVE",
"50 427 OFFCURVE",
"50 401 QCURVE SMOOTH",
"50 375 OFFCURVE"
);
}
);
userData = {
assembly = "PUSHW[ ]	/* 4 values pushed */\01229 7 23 4 \012CALL[ ]	/* CallFunction */\012NPUSHW[ ]	/* 11 values pushed */\0129 23 25 23 41 23 57 23 73 23 5 \012DELTAP1[ ]	/* DeltaExceptionP1 */\012PUSHW[ ]	/* 3 values pushed */\01216 23 29 \012SRP1[ ]	/* SetRefPoint1 */\012SRP2[ ]	/* SetRefPoint2 */\012IP[ ]	/* InterpolatePts */\012PUSHW[ ]	/* 1 value pushed */\01216 \012MDAP[1]	/* MoveDirectAbsPt */\012PUSHW[ ]	/* 2 values pushed */\01222 6 \012MIRP[10100]	/* MoveIndirectRelPt */\012PUSHW[ ]	/* 1 value pushed */\01229 \012SRP0[ ]	/* SetRefPoint0 */\012PUSHW[ ]	/* 1 value pushed */\01236 \012MDRP[11100]	/* MoveDirectRelPt */\012SVTCA[0]	/* SetFreedomAndProjectionVectorToAxis */\012PUSHW[ ]	/* 4 values pushed */\01226 5 32 4 \012CALL[ ]	/* CallFunction */\012IUP[0]	/* InterpolateUntPts */\012IUP[1]	/* InterpolateUntPts */";
};
width = 224;
}
);
note = semicolon;
unicode = 003B;
},
{
glyphname = less;
layers = (
{
layerId = "54A34634-507D-4D60-97FE-E6568C7C6955";
paths = (
{
closed = 1;
nodes = (
"486 78 OFFCURVE",
"486 98 QCURVE SMOOTH",
"486 115 OFFCURVE",
"466 138 OFFCURVE",
"453 144 QCURVE SMOOTH",
"157 291 LINE",
"460 442 LINE SMOOTH",
"486 456 OFFCURVE",
"486 485 QCURVE SMOOTH",
"486 505 OFFCURVE",
"458 533 OFFCURVE",
"438 533 QCURVE SMOOTH",
"431 533 OFFCURVE",
"419 528 OFFCURVE",
"412 524 QCURVE SMOOTH",
"106 371 LINE SMOOTH",
"83 359 OFFCURVE",
"50 319 OFFCURVE",
"50 291 QCURVE SMOOTH",
"50 265 OFFCURVE",
"78 222 OFFCURVE",
"101 211 QCURVE SMOOTH",
"416 54 LINE",
"427 50 OFFCURVE",
"438 50 QCURVE SMOOTH",
"458 50 OFFCURVE"
);
}
);
userData = {
assembly = "SVTCA[0]	/* SetFreedomAndProjectionVectorToAxis */\012PUSHW[ ]	/* 3 values pushed */\01213 0 3 \012CALL[ ]	/* CallFunction */\012PUSHW[ ]	/* 3 values pushed */\01219 0 13 \012SRP1[ ]	/* SetRefPoint1 */\012SRP2[ ]	/* SetRefPoint2 */\012IP[ ]	/* InterpolatePts */\012IUP[0]	/* InterpolateUntPts */\012IUP[1]	/* InterpolateUntPts */";
};
width = 536;
}
);
note = less;
unicode = 003C;
},
{
glyphname = equal;
layers = (
{
layerId = "54A34634-507D-4D60-97FE-E6568C7C6955";
paths = (
{
closed = 1;
nodes = (
"78 217 OFFCURVE",
"50 189 OFFCURVE",
"50 169 QCURVE SMOOTH",
"50 150 OFFCURVE",
"76 121 OFFCURVE",
"94 121 QCURVE SMOOTH",
"785 121 LINE SMOOTH",
"805 121 OFFCURVE",
"833 149 OFFCURVE",
"833 169 QCURVE SMOOTH",
"833 189 OFFCURVE",
"805 217 OFFCURVE",
"785 217 QCURVE SMOOTH",
"98 217 LINE SMOOTH"
);
},
{
closed = 1;
nodes = (
"78 387 OFFCURVE",
"50 359 OFFCURVE",
"50 339 QCURVE SMOOTH",
"50 320 OFFCURVE",
"76 291 OFFCURVE",
"94 291 QCURVE SMOOTH",
"785 291 LINE SMOOTH",
"805 291 OFFCURVE",
"833 319 OFFCURVE",
"833 339 QCURVE SMOOTH",
"833 359 OFFCURVE",
"805 387 OFFCURVE",
"785 387 QCURVE SMOOTH",
"98 387 LINE SMOOTH"
);
}
);
userData = {
assembly = "SVTCA[0]	/* SetFreedomAndProjectionVectorToAxis */\012PUSHW[ ]	/* 4 values pushed */\0120 1 6 4 \012CALL[ ]	/* CallFunction */\012PUSHW[ ]	/* 4 values pushed */\01214 1 20 4 \012CALL[ ]	/* CallFunction */\012IUP[0]	/* InterpolateUntPts */\012IUP[1]	/* InterpolateUntPts */";
};
width = 883;
}
);
note = equal;
unicode = 003D;
},
{
glyphname = greater;
layers = (
{
layerId = "54A34634-507D-4D60-97FE-E6568C7C6955";
paths = (
{
closed = 1;
nodes = (
"50 504 OFFCURVE",
"50 484 QCURVE SMOOTH",
"50 467 OFFCURVE",
"70 444 OFFCURVE",
"83 438 QCURVE SMOOTH",
"379 291 LINE",
"76 140 LINE SMOOTH",
"50 126 OFFCURVE",
"50 97 QCURVE SMOOTH",
"50 77 OFFCURVE",
"78 49 OFFCURVE",
"98 49 QCURVE SMOOTH",
"105 49 OFFCURVE",
"117 54 OFFCURVE",
"124 58 QCURVE SMOOTH",
"430 211 LINE SMOOTH",
"453 223 OFFCURVE",
"486 263 OFFCURVE",
"486 291 QCURVE SMOOTH",
"486 317 OFFCURVE",
"458 360 OFFCURVE",
"435 371 QCURVE SMOOTH",
"120 528 LINE",
"109 532 OFFCURVE",
"98 532 QCURVE SMOOTH",
"78 532 OFFCURVE"
);
}
);
width = 536;
}
);
note = greater;
unicode = 003E;
},
{
glyphname = question;
layers = (
{
layerId = "54A34634-507D-4D60-97FE-E6568C7C6955";
paths = (
{
closed = 1;
nodes = (
"326 59 OFFCURVE",
"352 59 QCURVE SMOOTH",
"378 59 OFFCURVE",
"414 95 OFFCURVE",
"414 121 QCURVE SMOOTH",
"414 147 OFFCURVE",
"378 183 OFFCURVE",
"352 183 QCURVE SMOOTH",
"326 183 OFFCURVE",
"290 147 OFFCURVE",
"290 121 QCURVE SMOOTH",
"290 95 OFFCURVE"
);
},
{
closed = 1;
nodes = (
"78 328 OFFCURVE",
"98 328 QCURVE SMOOTH",
"118 328 OFFCURVE",
"146 356 OFFCURVE",
"146 376 QCURVE SMOOTH",
"146 391 OFFCURVE",
"167 411 OFFCURVE",
"181 413 QCURVE",
"641 413 LINE SMOOTH",
"656 413 OFFCURVE",
"679 391 OFFCURVE",
"679 376 QCURVE SMOOTH",
"679 360 OFFCURVE",
"656 339 OFFCURVE",
"641 339 QCURVE SMOOTH",
"338 339 LINE SMOOTH",
"318 339 OFFCURVE",
"290 311 OFFCURVE",
"290 291 QCURVE SMOOTH",
"290 271 OFFCURVE",
"318 243 OFFCURVE",
"338 243 QCURVE SMOOTH",
"637 243 LINE SMOOTH",
"665 243 OFFCURVE",
"714 264 OFFCURVE",
"751 300 OFFCURVE",
"772 348 OFFCURVE",
"772 376 QCURVE SMOOTH",
"772 404 OFFCURVE",
"751 452 OFFCURVE",
"714 488 OFFCURVE",
"665 509 OFFCURVE",
"637 509 QCURVE SMOOTH",
"188 509 LINE SMOOTH",
"160 509 OFFCURVE",
"110 488 OFFCURVE",
"72 452 OFFCURVE",
"50 404 OFFCURVE",
"50 376 QCURVE SMOOTH",
"50 356 OFFCURVE"
);
}
);
userData = {
assembly = "PUSHW[ ]	/* 4 values pushed */\01246 6 12 4 \012CALL[ ]	/* CallFunction */\012PUSHW[ ]	/* 4 values pushed */\0126 7 0 4 \012CALL[ ]	/* CallFunction */\012PUSHW[ ]	/* 4 values pushed */\01223 6 39 4 \012CALL[ ]	/* CallFunction */\012NPUSHW[ ]	/* 11 values pushed */\0126 6 22 6 38 6 54 6 70 6 5 \012DELTAP1[ ]	/* DeltaExceptionP1 */\012PUSHW[ ]	/* 1 value pushed */\0120 \012SRP0[ ]	/* SetRefPoint0 */\012PUSHW[ ]	/* 1 value pushed */\01232 \012MDRP[10000]	/* MoveDirectRelPt */\012NPUSHW[ ]	/* 11 values pushed */\0129 39 25 39 41 39 57 39 73 39 5 \012DELTAP1[ ]	/* DeltaExceptionP1 */\012NPUSHW[ ]	/* 11 values pushed */\0126 46 22 46 38 46 54 46 70 46 5 \012DELTAP1[ ]	/* DeltaExceptionP1 */\012PUSHW[ ]	/* 1 value pushed */\01223 \012SRP0[ ]	/* SetRefPoint0 */\012PUSHW[ ]	/* 1 value pushed */\01253 \012MDRP[11100]	/* MoveDirectRelPt */\012SVTCA[0]	/* SetFreedomAndProjectionVectorToAxis */\012PUSHW[ ]	/* 1 value pushed */\0120 \012RCVT[ ]	/* ReadCVT */\012IF[ ]	/* If */\012PUSHW[ ]	/* 1 value pushed */\01217 \012MDAP[1]	/* MoveDirectAbsPt */\012ELSE[ ]	/* Else */\012PUSHW[ ]	/* 2 values pushed */\01217 10 \012MIAP[0]	/* MoveIndirectAbsPt */\012EIF[ ]	/* EndIf */\012PUSHW[ ]	/* 4 values pushed */\0123 5 9 4 \012CALL[ ]	/* CallFunction */\012PUSHW[ ]	/* 4 values pushed */\01236 1 28 4 \012CALL[ ]	/* CallFunction */\012PUSHW[ ]	/* 1 value pushed */\01217 \012SRP0[ ]	/* SetRefPoint0 */\012PUSHW[ ]	/* 2 values pushed */\01242 1 \012MIRP[10100]	/* MoveIndirectRelPt */\012IUP[0]	/* InterpolateUntPts */\012IUP[1]	/* InterpolateUntPts */";
};
width = 822;
}
);
note = question;
unicode = 003F;
},
{
glyphname = at;
layers = (
{
layerId = "54A34634-507D-4D60-97FE-E6568C7C6955";
paths = (
{
closed = 1;
nodes = (
"578 240 OFFCURVE",
"593 220 OFFCURVE",
"593 206 QCURVE SMOOTH",
"593 175 OFFCURVE",
"568 170 QCURVE",
"568 169 LINE",
"441 169 LINE SMOOTH",
"429 169 OFFCURVE",
"410 191 OFFCURVE",
"410 206 QCURVE SMOOTH",
"410 221 OFFCURVE",
"427 243 OFFCURVE",
"441 243 QCURVE SMOOTH",
"568 243 LINE"
);
},
{
closed = 1;
nodes = (
"221 309 OFFCURVE",
"229 352 OFFCURVE",
"251 388 OFFCURVE",
"293 413 OFFCURVE",
"328 413 QCURVE SMOOTH",
"677 413 LINE SMOOTH",
"711 413 OFFCURVE",
"755 388 OFFCURVE",
"780 352 OFFCURVE",
"789 309 OFFCURVE",
"789 291 QCURVE SMOOTH",
"789 274 OFFCURVE",
"780 232 OFFCURVE",
"757 196 OFFCURVE",
"716 170 OFFCURVE",
"685 169 QCURVE",
"688 181 OFFCURVE",
"688 195 QCURVE SMOOTH",
"688 217 LINE SMOOTH",
"688 242 OFFCURVE",
"670 287 OFFCURVE",
"637 320 OFFCURVE",
"593 339 OFFCURVE",
"568 339 QCURVE SMOOTH",
"435 339 LINE SMOOTH",
"409 339 OFFCURVE",
"366 320 OFFCURVE",
"333 287 OFFCURVE",
"315 242 OFFCURVE",
"315 217 QCURVE SMOOTH",
"315 195 LINE SMOOTH",
"315 169 OFFCURVE",
"333 125 OFFCURVE",
"366 92 OFFCURVE",
"409 73 OFFCURVE",
"435 73 QCURVE SMOOTH",
"706 73 LINE SMOOTH",
"746 73 OFFCURVE",
"811 113 OFFCURVE",
"856 176 OFFCURVE",
"880 254 OFFCURVE",
"880 291 QCURVE SMOOTH",
"880 328 OFFCURVE",
"855 406 OFFCURVE",
"807 469 OFFCURVE",
"739 509 OFFCURVE",
"696 509 QCURVE SMOOTH",
"309 509 LINE SMOOTH",
"266 509 OFFCURVE",
"198 469 OFFCURVE",
"150 406 OFFCURVE",
"125 328 OFFCURVE",
"125 291 QCURVE SMOOTH",
"125 198 LINE SMOOTH",
"125 178 OFFCURVE",
"153 150 OFFCURVE",
"173 150 QCURVE SMOOTH",
"193 150 OFFCURVE",
"221 178 OFFCURVE",
"221 198 QCURVE SMOOTH",
"221 291 LINE SMOOTH"
);
}
);
userData = {
assembly = "PUSHW[ ]	/* 4 values pushed */\01214 6 20 4 \012CALL[ ]	/* CallFunction */\012PUSHW[ ]	/* 4 values pushed */\0123 6 43 4 \012CALL[ ]	/* CallFunction */\012PUSHW[ ]	/* 4 values pushed */\01255 6 10 4 \012CALL[ ]	/* CallFunction */\012PUSHW[ ]	/* 4 values pushed */\01232 6 63 4 \012CALL[ ]	/* CallFunction */\012PUSHW[ ]	/* 3 values pushed */\01258 10 55 \012SRP1[ ]	/* SetRefPoint1 */\012SRP2[ ]	/* SetRefPoint2 */\012IP[ ]	/* InterpolatePts */\012NPUSHW[ ]	/* 11 values pushed */\0129 63 25 63 41 63 57 63 73 63 5 \012DELTAP1[ ]	/* DeltaExceptionP1 */\012PUSHW[ ]	/* 1 value pushed */\01232 \012SRP0[ ]	/* SetRefPoint0 */\012PUSHW[ ]	/* 1 value pushed */\01276 \012MDRP[11100]	/* MoveDirectRelPt */\012SVTCA[0]	/* SetFreedomAndProjectionVectorToAxis */\012PUSHW[ ]	/* 1 value pushed */\0120 \012RCVT[ ]	/* ReadCVT */\012IF[ ]	/* If */\012PUSHW[ ]	/* 1 value pushed */\01226 \012MDAP[1]	/* MoveDirectAbsPt */\012ELSE[ ]	/* Else */\012PUSHW[ ]	/* 2 values pushed */\01226 10 \012MIAP[0]	/* MoveIndirectAbsPt */\012EIF[ ]	/* EndIf */\012PUSHW[ ]	/* 4 values pushed */\01258 1 37 4 \012CALL[ ]	/* CallFunction */\012PUSHW[ ]	/* 4 values pushed */\01249 1 0 4 \012CALL[ ]	/* CallFunction */\012PUSHW[ ]	/* 1 value pushed */\01258 \012SRP0[ ]	/* SetRefPoint0 */\012PUSHW[ ]	/* 1 value pushed */\0126 \012MDRP[10000]	/* MoveDirectRelPt */\012PUSHW[ ]	/* 1 value pushed */\01258 \012SRP0[ ]	/* SetRefPoint0 */\012PUSHW[ ]	/* 1 value pushed */\0128 \012MDRP[10000]	/* MoveDirectRelPt */\012PUSHW[ ]	/* 1 value pushed */\0128 \012MDAP[1]	/* MoveDirectAbsPt */\012PUSHW[ ]	/* 1 value pushed */\01226 \012SRP0[ ]	/* SetRefPoint0 */\012PUSHW[ ]	/* 2 values pushed */\01268 1 \012MIRP[10100]	/* MoveIndirectRelPt */\012IUP[0]	/* InterpolateUntPts */\012IUP[1]	/* InterpolateUntPts */";
};
width = 1005;
}
);
note = at;
unicode = 0040;
},
{
glyphname = A;
layers = (
{
layerId = "54A34634-507D-4D60-97FE-E6568C7C6955";
paths = (
{
closed = 1;
nodes = (
"382 119 OFFCURVE",
"408 119 QCURVE SMOOTH",
"434 119 OFFCURVE",
"470 155 OFFCURVE",
"470 181 QCURVE SMOOTH",
"470 207 OFFCURVE",
"434 243 OFFCURVE",
"408 243 QCURVE SMOOTH",
"382 243 OFFCURVE",
"346 207 OFFCURVE",
"346 181 QCURVE SMOOTH",
"346 155 OFFCURVE"
);
},
{
closed = 1;
nodes = (
"376 411 OFFCURVE",
"397 430 OFFCURVE",
"408 430 QCURVE SMOOTH",
"419 430 OFFCURVE",
"440 411 OFFCURVE",
"447 403 QCURVE SMOOTH",
"680 92 LINE SMOOTH",
"693 73 OFFCURVE",
"718 73 QCURVE SMOOTH",
"738 73 OFFCURVE",
"766 101 OFFCURVE",
"766 121 QCURVE SMOOTH",
"766 131 OFFCURVE",
"757 147 OFFCURVE",
"752 155 QCURVE",
"509 480 LINE SMOOTH",
"492 503 OFFCURVE",
"438 529 OFFCURVE",
"408 529 QCURVE SMOOTH",
"376 529 OFFCURVE",
"320 500 OFFCURVE",
"303 477 QCURVE SMOOTH",
"60 150 LINE",
"50 140 OFFCURVE",
"50 121 QCURVE SMOOTH",
"50 101 OFFCURVE",
"78 73 OFFCURVE",
"98 73 QCURVE SMOOTH",
"121 73 OFFCURVE",
"135 91 QCURVE SMOOTH",
"370 403 LINE SMOOTH"
);
}
);
userData = {
assembly = "PUSHW[ ]	/* 4 values pushed */\0126 7 0 4 \012CALL[ ]	/* CallFunction */\012NPUSHW[ ]	/* 11 values pushed */\0126 6 22 6 38 6 54 6 70 6 5 \012DELTAP1[ ]	/* DeltaExceptionP1 */\012SVTCA[0]	/* SetFreedomAndProjectionVectorToAxis */\012PUSHW[ ]	/* 1 value pushed */\0120 \012RCVT[ ]	/* ReadCVT */\012IF[ ]	/* If */\012PUSHW[ ]	/* 1 value pushed */\01223 \012MDAP[1]	/* MoveDirectAbsPt */\012ELSE[ ]	/* Else */\012PUSHW[ ]	/* 2 values pushed */\01223 12 \012MIAP[0]	/* MoveIndirectAbsPt */\012EIF[ ]	/* EndIf */\012PUSHW[ ]	/* 4 values pushed */\0123 5 9 4 \012CALL[ ]	/* CallFunction */\012PUSHW[ ]	/* 1 value pushed */\01223 \012SRP0[ ]	/* SetRefPoint0 */\012PUSHW[ ]	/* 2 values pushed */\01239 1 \012MIRP[10100]	/* MoveIndirectRelPt */\012NPUSHW[ ]	/* 11 values pushed */\0128 39 24 39 40 39 56 39 72 39 5 \012DELTAP1[ ]	/* DeltaExceptionP1 */\012IUP[0]	/* InterpolateUntPts */\012IUP[1]	/* InterpolateUntPts */";
};
width = 816;
}
);
note = A;
unicode = 0041;
},
{
glyphname = B;
layers = (
{
layerId = "54A34634-507D-4D60-97FE-E6568C7C6955";
paths = (
{
closed = 1;
nodes = (
"701 243 LINE SMOOTH",
"716 243 OFFCURVE",
"739 222 OFFCURVE",
"739 206 QCURVE SMOOTH",
"739 191 OFFCURVE",
"716 169 OFFCURVE",
"701 169 QCURVE SMOOTH",
"146 169 LINE",
"146 243 LINE"
);
},
{
closed = 1;
nodes = (
"716 413 OFFCURVE",
"739 390 OFFCURVE",
"739 375 QCURVE SMOOTH",
"739 359 OFFCURVE",
"717 339 OFFCURVE",
"702 339 QCURVE SMOOTH",
"146 339 LINE",
"146 413 LINE",
"701 413 LINE SMOOTH"
);
},
{
closed = 1;
nodes = (
"725 73 OFFCURVE",
"774 94 OFFCURVE",
"811 130 OFFCURVE",
"832 178 OFFCURVE",
"832 206 QCURVE SMOOTH",
"832 230 OFFCURVE",
"815 273 OFFCURVE",
"801 290 QCURVE",
"815 307 OFFCURVE",
"832 350 OFFCURVE",
"832 375 QCURVE SMOOTH",
"832 403 OFFCURVE",
"811 452 OFFCURVE",
"774 488 OFFCURVE",
"725 509 OFFCURVE",
"697 509 QCURVE SMOOTH",
"98 509 LINE SMOOTH",
"78 509 OFFCURVE",
"50 481 OFFCURVE",
"50 461 QCURVE SMOOTH",
"50 121 LINE SMOOTH",
"50 101 OFFCURVE",
"78 73 OFFCURVE",
"98 73 QCURVE SMOOTH",
"697 73 LINE SMOOTH"
);
}
);
userData = {
assembly = "PUSHW[ ]	/* 1 value pushed */\01243 \012MDAP[1]	/* MoveDirectAbsPt */\012PUSHW[ ]	/* 1 value pushed */\0124 \012MDAP[1]	/* MoveDirectAbsPt */\012PUSHW[ ]	/* 1 value pushed */\01243 \012SRP0[ ]	/* SetRefPoint0 */\012PUSHW[ ]	/* 1 value pushed */\01221 \012MDRP[10000]	/* MoveDirectRelPt */\012PUSHW[ ]	/* 1 value pushed */\01221 \012MDAP[1]	/* MoveDirectAbsPt */\012PUSHW[ ]	/* 2 values pushed */\0120 6 \012MIRP[10100]	/* MoveIndirectRelPt */\012NPUSHW[ ]	/* 11 values pushed */\0129 4 25 4 41 4 57 4 73 4 5 \012DELTAP1[ ]	/* DeltaExceptionP1 */\012PUSHW[ ]	/* 1 value pushed */\0129 \012MDRP[10000]	/* MoveDirectRelPt */\012PUSHW[ ]	/* 1 value pushed */\0124 \012SRP0[ ]	/* SetRefPoint0 */\012PUSHW[ ]	/* 1 value pushed */\01214 \012MDRP[10000]	/* MoveDirectRelPt */\012PUSHW[ ]	/* 1 value pushed */\0124 \012SRP0[ ]	/* SetRefPoint0 */\012PUSHW[ ]	/* 2 values pushed */\01237 6 \012MIRP[10100]	/* MoveIndirectRelPt */\012PUSHW[ ]	/* 1 value pushed */\01231 \012MDRP[10000]	/* MoveDirectRelPt */\012PUSHW[ ]	/* 1 value pushed */\01237 \012SRP0[ ]	/* SetRefPoint0 */\012PUSHW[ ]	/* 1 value pushed */\01244 \012MDRP[11100]	/* MoveDirectRelPt */\012SVTCA[0]	/* SetFreedomAndProjectionVectorToAxis */\012PUSHW[ ]	/* 1 value pushed */\0120 \012RCVT[ ]	/* ReadCVT */\012IF[ ]	/* If */\012PUSHW[ ]	/* 1 value pushed */\01225 \012MDAP[1]	/* MoveDirectAbsPt */\012ELSE[ ]	/* Else */\012PUSHW[ ]	/* 2 values pushed */\01225 10 \012MIAP[0]	/* MoveIndirectAbsPt */\012EIF[ ]	/* EndIf */\012PUSHW[ ]	/* 4 values pushed */\0120 1 18 4 \012CALL[ ]	/* CallFunction */\012PUSHW[ ]	/* 4 values pushed */\01211 1 7 4 \012CALL[ ]	/* CallFunction */\012PUSHW[ ]	/* 1 value pushed */\01225 \012SRP0[ ]	/* SetRefPoint0 */\012PUSHW[ ]	/* 2 values pushed */\0129 1 \012MIRP[10100]	/* MoveIndirectRelPt */\012IUP[0]	/* InterpolateUntPts */\012IUP[1]	/* InterpolateUntPts */";
};
width = 882;
}
);
note = B;
unicode = 0042;
},
{
glyphname = C;
layers = (
{
layerId = "54A34634-507D-4D60-97FE-E6568C7C6955";
paths = (
{
closed = 1;
nodes = (
"74 176 OFFCURVE",
"119 113 OFFCURVE",
"183 73 OFFCURVE",
"224 73 QCURVE SMOOTH",
"817 73 LINE SMOOTH",
"837 73 OFFCURVE",
"865 101 OFFCURVE",
"865 121 QCURVE SMOOTH",
"865 141 OFFCURVE",
"837 169 OFFCURVE",
"817 169 QCURVE SMOOTH",
"255 169 LINE SMOOTH",
"220 169 OFFCURVE",
"177 194 OFFCURVE",
"152 230 OFFCURVE",
"143 273 OFFCURVE",
"143 291 QCURVE SMOOTH",
"143 309 OFFCURVE",
"152 352 OFFCURVE",
"177 388 OFFCURVE",
"220 413 OFFCURVE",
"255 413 QCURVE SMOOTH",
"817 413 LINE SMOOTH",
"837 413 OFFCURVE",
"865 441 OFFCURVE",
"865 461 QCURVE SMOOTH",
"865 481 OFFCURVE",
"837 509 OFFCURVE",
"817 509 QCURVE SMOOTH",
"234 509 LINE SMOOTH",
"191 509 OFFCURVE",
"123 469 OFFCURVE",
"75 406 OFFCURVE",
"50 328 OFFCURVE",
"50 291 QCURVE SMOOTH",
"50 253 OFFCURVE"
);
}
);
userData = {
assembly = "PUSHW[ ]	/* 4 values pushed */\01218 6 0 4 \012CALL[ ]	/* CallFunction */\012NPUSHW[ ]	/* 11 values pushed */\0126 18 22 18 38 18 54 18 70 18 5 \012DELTAP1[ ]	/* DeltaExceptionP1 */\012SVTCA[0]	/* SetFreedomAndProjectionVectorToAxis */\012PUSHW[ ]	/* 1 value pushed */\0120 \012RCVT[ ]	/* ReadCVT */\012IF[ ]	/* If */\012PUSHW[ ]	/* 1 value pushed */\0125 \012MDAP[1]	/* MoveDirectAbsPt */\012ELSE[ ]	/* Else */\012PUSHW[ ]	/* 2 values pushed */\0125 10 \012MIAP[0]	/* MoveIndirectAbsPt */\012EIF[ ]	/* EndIf */\012PUSHW[ ]	/* 4 values pushed */\01224 1 30 4 \012CALL[ ]	/* CallFunction */\012PUSHW[ ]	/* 1 value pushed */\0125 \012SRP0[ ]	/* SetRefPoint0 */\012PUSHW[ ]	/* 2 values pushed */\01212 1 \012MIRP[10100]	/* MoveIndirectRelPt */\012IUP[0]	/* InterpolateUntPts */\012IUP[1]	/* InterpolateUntPts */";
};
width = 915;
}
);
note = C;
unicode = 0043;
},
{
glyphname = D;
layers = (
{
layerId = "54A34634-507D-4D60-97FE-E6568C7C6955";
paths = (
{
closed = 1;
nodes = (
"694 413 OFFCURVE",
"738 388 OFFCURVE",
"763 352 OFFCURVE",
"772 309 OFFCURVE",
"772 291 QCURVE SMOOTH",
"772 273 OFFCURVE",
"763 230 OFFCURVE",
"738 194 OFFCURVE",
"694 169 OFFCURVE",
"660 169 QCURVE SMOOTH",
"146 169 LINE",
"146 413 LINE",
"660 413 LINE SMOOTH"
);
},
{
closed = 1;
nodes = (
"840 406 OFFCURVE",
"792 469 OFFCURVE",
"724 509 OFFCURVE",
"681 509 QCURVE SMOOTH",
"98 509 LINE SMOOTH",
"78 509 OFFCURVE",
"50 481 OFFCURVE",
"50 461 QCURVE SMOOTH",
"50 121 LINE SMOOTH",
"50 101 OFFCURVE",
"78 73 OFFCURVE",
"98 73 QCURVE SMOOTH",
"691 73 LINE SMOOTH",
"731 73 OFFCURVE",
"796 113 OFFCURVE",
"841 176 OFFCURVE",
"865 254 OFFCURVE",
"865 291 QCURVE SMOOTH",
"865 328 OFFCURVE"
);
}
);
userData = {
assembly = "PUSHW[ ]	/* 1 value pushed */\01232 \012MDAP[1]	/* MoveDirectAbsPt */\012PUSHW[ ]	/* 1 value pushed */\0127 \012MDAP[1]	/* MoveDirectAbsPt */\012PUSHW[ ]	/* 1 value pushed */\01232 \012SRP0[ ]	/* SetRefPoint0 */\012PUSHW[ ]	/* 1 value pushed */\01222 \012MDRP[10000]	/* MoveDirectRelPt */\012PUSHW[ ]	/* 1 value pushed */\01222 \012MDAP[1]	/* MoveDirectAbsPt */\012PUSHW[ ]	/* 2 values pushed */\0121 6 \012MIRP[10100]	/* MoveIndirectRelPt */\012NPUSHW[ ]	/* 11 values pushed */\0129 7 25 7 41 7 57 7 73 7 5 \012DELTAP1[ ]	/* DeltaExceptionP1 */\012PUSHW[ ]	/* 1 value pushed */\0127 \012SRP0[ ]	/* SetRefPoint0 */\012PUSHW[ ]	/* 2 values pushed */\01213 6 \012MIRP[10100]	/* MoveIndirectRelPt */\012PUSHW[ ]	/* 1 value pushed */\01233 \012MDRP[11100]	/* MoveDirectRelPt */\012SVTCA[0]	/* SetFreedomAndProjectionVectorToAxis */\012PUSHW[ ]	/* 1 value pushed */\0120 \012RCVT[ ]	/* ReadCVT */\012IF[ ]	/* If */\012PUSHW[ ]	/* 1 value pushed */\01226 \012MDAP[1]	/* MoveDirectAbsPt */\012ELSE[ ]	/* Else */\012PUSHW[ ]	/* 2 values pushed */\01226 10 \012MIAP[0]	/* MoveIndirectAbsPt */\012EIF[ ]	/* EndIf */\012PUSHW[ ]	/* 4 values pushed */\0122 1 18 4 \012CALL[ ]	/* CallFunction */\012PUSHW[ ]	/* 1 value pushed */\01226 \012SRP0[ ]	/* SetRefPoint0 */\012PUSHW[ ]	/* 2 values pushed */\0120 1 \012MIRP[10100]	/* MoveIndirectRelPt */\012IUP[0]	/* InterpolateUntPts */\012IUP[1]	/* InterpolateUntPts */";
};
width = 915;
}
);
note = D;
unicode = 0044;
},
{
glyphname = E;
layers = (
{
layerId = "54A34634-507D-4D60-97FE-E6568C7C6955";
paths = (
{
closed = 1;
nodes = (
"247 339 OFFCURVE",
"219 311 OFFCURVE",
"219 291 QCURVE SMOOTH",
"219 271 OFFCURVE",
"247 243 OFFCURVE",
"267 243 QCURVE SMOOTH",
"765 243 LINE SMOOTH",
"785 243 OFFCURVE",
"813 271 OFFCURVE",
"813 291 QCURVE SMOOTH",
"813 311 OFFCURVE",
"785 339 OFFCURVE",
"765 339 QCURVE SMOOTH",
"267 339 LINE SMOOTH"
);
},
{
closed = 1;
nodes = (
"827 413 OFFCURVE",
"855 441 OFFCURVE",
"855 461 QCURVE SMOOTH",
"855 481 OFFCURVE",
"827 509 OFFCURVE",
"807 509 QCURVE SMOOTH",
"234 509 LINE SMOOTH",
"191 509 OFFCURVE",
"123 469 OFFCURVE",
"75 406 OFFCURVE",
"50 328 OFFCURVE",
"50 291 QCURVE SMOOTH",
"50 253 OFFCURVE",
"74 176 OFFCURVE",
"119 113 OFFCURVE",
"183 73 OFFCURVE",
"224 73 QCURVE SMOOTH",
"807 73 LINE SMOOTH",
"827 73 OFFCURVE",
"855 101 OFFCURVE",
"855 121 QCURVE SMOOTH",
"855 141 OFFCURVE",
"827 169 OFFCURVE",
"807 169 QCURVE SMOOTH",
"256 169 LINE SMOOTH",
"221 169 OFFCURVE",
"178 194 OFFCURVE",
"153 230 OFFCURVE",
"144 273 OFFCURVE",
"144 291 QCURVE SMOOTH",
"144 309 OFFCURVE",
"153 352 OFFCURVE",
"178 388 OFFCURVE",
"221 413 OFFCURVE",
"256 413 QCURVE SMOOTH",
"807 413 LINE SMOOTH"
);
}
);
userData = {
assembly = "PUSHW[ ]	/* 4 values pushed */\01219 6 37 4 \012CALL[ ]	/* CallFunction */\012NPUSHW[ ]	/* 11 values pushed */\0126 19 22 19 38 19 54 19 70 19 5 \012DELTAP1[ ]	/* DeltaExceptionP1 */\012SVTCA[0]	/* SetFreedomAndProjectionVectorToAxis */\012PUSHW[ ]	/* 1 value pushed */\0120 \012RCVT[ ]	/* ReadCVT */\012IF[ ]	/* If */\012PUSHW[ ]	/* 1 value pushed */\01242 \012MDAP[1]	/* MoveDirectAbsPt */\012ELSE[ ]	/* Else */\012PUSHW[ ]	/* 2 values pushed */\01242 10 \012MIAP[0]	/* MoveIndirectAbsPt */\012EIF[ ]	/* EndIf */\012PUSHW[ ]	/* 4 values pushed */\01225 1 31 4 \012CALL[ ]	/* CallFunction */\012PUSHW[ ]	/* 4 values pushed */\0120 1 6 4 \012CALL[ ]	/* CallFunction */\012PUSHW[ ]	/* 1 value pushed */\01242 \012SRP0[ ]	/* SetRefPoint0 */\012PUSHW[ ]	/* 2 values pushed */\01214 1 \012MIRP[10100]	/* MoveIndirectRelPt */\012IUP[0]	/* InterpolateUntPts */\012IUP[1]	/* InterpolateUntPts */";
};
width = 905;
}
);
note = E;
unicode = 0045;
},
{
glyphname = F;
layers = (
{
layerId = "54A34634-507D-4D60-97FE-E6568C7C6955";
paths = (
{
closed = 1;
nodes = (
"247 339 OFFCURVE",
"219 311 OFFCURVE",
"219 291 QCURVE SMOOTH",
"219 271 OFFCURVE",
"247 243 OFFCURVE",
"267 243 QCURVE SMOOTH",
"785 243 LINE SMOOTH",
"805 243 OFFCURVE",
"833 271 OFFCURVE",
"833 291 QCURVE SMOOTH",
"833 311 OFFCURVE",
"805 339 OFFCURVE",
"785 339 QCURVE SMOOTH",
"267 339 LINE SMOOTH"
);
},
{
closed = 1;
nodes = (
"51 101 OFFCURVE",
"79 73 OFFCURVE",
"99 73 QCURVE SMOOTH",
"119 73 OFFCURVE",
"147 101 OFFCURVE",
"147 121 QCURVE SMOOTH",
"147 298 LINE SMOOTH",
"147 316 OFFCURVE",
"156 356 OFFCURVE",
"180 391 OFFCURVE",
"223 413 OFFCURVE",
"256 413 QCURVE SMOOTH",
"808 413 LINE SMOOTH",
"828 413 OFFCURVE",
"856 441 OFFCURVE",
"856 461 QCURVE SMOOTH",
"856 481 OFFCURVE",
"828 509 OFFCURVE",
"808 509 QCURVE SMOOTH",
"235 509 LINE SMOOTH",
"192 509 OFFCURVE",
"124 469 OFFCURVE",
"76 406 OFFCURVE",
"51 328 OFFCURVE",
"51 291 QCURVE SMOOTH",
"51 121 LINE SMOOTH"
);
}
);
userData = {
assembly = "PUSHW[ ]	/* 4 values pushed */\01232 6 14 4 \012CALL[ ]	/* CallFunction */\012SVTCA[0]	/* SetFreedomAndProjectionVectorToAxis */\012PUSHW[ ]	/* 1 value pushed */\0120 \012RCVT[ ]	/* ReadCVT */\012IF[ ]	/* If */\012PUSHW[ ]	/* 1 value pushed */\01219 \012MDAP[1]	/* MoveDirectAbsPt */\012ELSE[ ]	/* Else */\012PUSHW[ ]	/* 2 values pushed */\01219 10 \012MIAP[0]	/* MoveIndirectAbsPt */\012EIF[ ]	/* EndIf */\012PUSHW[ ]	/* 4 values pushed */\0120 1 6 4 \012CALL[ ]	/* CallFunction */\012PUSHW[ ]	/* 1 value pushed */\01219 \012SRP0[ ]	/* SetRefPoint0 */\012PUSHW[ ]	/* 2 values pushed */\01226 1 \012MIRP[10100]	/* MoveIndirectRelPt */\012IUP[0]	/* InterpolateUntPts */\012IUP[1]	/* InterpolateUntPts */";
};
width = 905;
}
);
note = F;
unicode = 0046;
},
{
glyphname = G;
layers = (
{
layerId = "54A34634-507D-4D60-97FE-E6568C7C6955";
paths = (
{
closed = 1;
nodes = (
"342 243 OFFCURVE",
"362 243 QCURVE SMOOTH",
"741 243 LINE SMOOTH",
"755 243 OFFCURVE",
"772 221 OFFCURVE",
"772 206 QCURVE SMOOTH",
"772 191 OFFCURVE",
"753 169 OFFCURVE",
"741 169 QCURVE SMOOTH",
"256 169 LINE SMOOTH",
"221 169 OFFCURVE",
"178 194 OFFCURVE",
"153 230 OFFCURVE",
"144 273 OFFCURVE",
"144 291 QCURVE SMOOTH",
"144 309 OFFCURVE",
"153 352 OFFCURVE",
"178 388 OFFCURVE",
"221 413 OFFCURVE",
"256 413 QCURVE SMOOTH",
"817 413 LINE SMOOTH",
"837 413 OFFCURVE",
"865 441 OFFCURVE",
"865 461 QCURVE SMOOTH",
"865 481 OFFCURVE",
"837 509 OFFCURVE",
"817 509 QCURVE SMOOTH",
"234 509 LINE SMOOTH",
"191 509 OFFCURVE",
"123 469 OFFCURVE",
"75 406 OFFCURVE",
"50 328 OFFCURVE",
"50 291 QCURVE SMOOTH",
"50 253 OFFCURVE",
"74 176 OFFCURVE",
"119 113 OFFCURVE",
"183 73 OFFCURVE",
"224 73 QCURVE SMOOTH",
"745 73 LINE SMOOTH",
"770 73 OFFCURVE",
"814 92 OFFCURVE",
"847 125 OFFCURVE",
"865 169 OFFCURVE",
"865 195 QCURVE SMOOTH",
"865 217 LINE SMOOTH",
"865 242 OFFCURVE",
"847 287 OFFCURVE",
"814 320 OFFCURVE",
"770 339 OFFCURVE",
"745 339 QCURVE SMOOTH",
"362 339 LINE SMOOTH",
"342 339 OFFCURVE",
"314 311 OFFCURVE",
"314 291 QCURVE SMOOTH",
"314 271 OFFCURVE"
);
}
);
userData = {
assembly = "PUSHW[ ]	/* 1 value pushed */\01255 \012MDAP[1]	/* MoveDirectAbsPt */\012PUSHW[ ]	/* 1 value pushed */\01248 \012MDAP[1]	/* MoveDirectAbsPt */\012PUSHW[ ]	/* 2 values pushed */\0129 6 \012MIRP[10100]	/* MoveIndirectRelPt */\012PUSHW[ ]	/* 1 value pushed */\01255 \012SRP0[ ]	/* SetRefPoint0 */\012PUSHW[ ]	/* 1 value pushed */\01221 \012MDRP[10000]	/* MoveDirectRelPt */\012PUSHW[ ]	/* 1 value pushed */\01221 \012MDAP[1]	/* MoveDirectAbsPt */\012PUSHW[ ]	/* 1 value pushed */\0129 \012SRP0[ ]	/* SetRefPoint0 */\012PUSHW[ ]	/* 1 value pushed */\01230 \012MDRP[10000]	/* MoveDirectRelPt */\012PUSHW[ ]	/* 1 value pushed */\01221 \012SRP0[ ]	/* SetRefPoint0 */\012PUSHW[ ]	/* 2 values pushed */\01239 6 \012MIRP[10100]	/* MoveIndirectRelPt */\012NPUSHW[ ]	/* 11 values pushed */\0126 39 22 39 38 39 54 39 70 39 5 \012DELTAP1[ ]	/* DeltaExceptionP1 */\012PUSHW[ ]	/* 1 value pushed */\0129 \012SRP0[ ]	/* SetRefPoint0 */\012PUSHW[ ]	/* 1 value pushed */\01256 \012MDRP[11100]	/* MoveDirectRelPt */\012SVTCA[0]	/* SetFreedomAndProjectionVectorToAxis */\012PUSHW[ ]	/* 1 value pushed */\0120 \012RCVT[ ]	/* ReadCVT */\012IF[ ]	/* If */\012PUSHW[ ]	/* 1 value pushed */\01226 \012MDAP[1]	/* MoveDirectAbsPt */\012ELSE[ ]	/* Else */\012PUSHW[ ]	/* 2 values pushed */\01226 10 \012MIAP[0]	/* MoveIndirectAbsPt */\012EIF[ ]	/* EndIf */\012PUSHW[ ]	/* 4 values pushed */\01245 1 15 4 \012CALL[ ]	/* CallFunction */\012PUSHW[ ]	/* 4 values pushed */\0124 1 51 4 \012CALL[ ]	/* CallFunction */\012PUSHW[ ]	/* 1 value pushed */\01226 \012SRP0[ ]	/* SetRefPoint0 */\012PUSHW[ ]	/* 2 values pushed */\01233 1 \012MIRP[10100]	/* MoveIndirectRelPt */\012IUP[0]	/* InterpolateUntPts */\012IUP[1]	/* InterpolateUntPts */";
};
width = 915;
}
);
note = G;
unicode = 0047;
},
{
glyphname = H;
layers = (
{
layerId = "54A34634-507D-4D60-97FE-E6568C7C6955";
paths = (
{
closed = 1;
nodes = (
"832 481 OFFCURVE",
"804 509 OFFCURVE",
"784 509 QCURVE SMOOTH",
"764 509 OFFCURVE",
"736 481 OFFCURVE",
"736 461 QCURVE SMOOTH",
"736 307 LINE",
"708 323 OFFCURVE",
"645 339 OFFCURVE",
"614 339 QCURVE SMOOTH",
"444 339 LINE",
"441 339 LINE",
"440 339 LINE",
"267 339 LINE SMOOTH",
"249 339 OFFCURVE",
"207 348 OFFCURVE",
"170 371 OFFCURVE",
"145 412 OFFCURVE",
"145 444 QCURVE SMOOTH",
"145 461 LINE SMOOTH",
"145 481 OFFCURVE",
"117 509 OFFCURVE",
"97 509 QCURVE SMOOTH",
"77 509 OFFCURVE",
"49 481 OFFCURVE",
"49 461 QCURVE SMOOTH",
"49 121 LINE SMOOTH",
"49 101 OFFCURVE",
"77 73 OFFCURVE",
"97 73 QCURVE SMOOTH",
"117 73 OFFCURVE",
"145 101 OFFCURVE",
"145 121 QCURVE SMOOTH",
"145 275 LINE",
"173 259 OFFCURVE",
"236 243 OFFCURVE",
"267 243 QCURVE SMOOTH",
"437 243 LINE",
"441 243 LINE",
"444 243 LINE",
"614 243 LINE SMOOTH",
"631 243 OFFCURVE",
"674 235 OFFCURVE",
"711 213 OFFCURVE",
"736 174 OFFCURVE",
"736 144 QCURVE SMOOTH",
"736 121 LINE SMOOTH",
"736 101 OFFCURVE",
"764 73 OFFCURVE",
"784 73 QCURVE SMOOTH",
"804 73 OFFCURVE",
"832 101 OFFCURVE",
"832 121 QCURVE SMOOTH",
"832 461 LINE SMOOTH"
);
}
);
userData = {
assembly = "PUSHW[ ]	/* 1 value pushed */\01254 \012MDAP[1]	/* MoveDirectAbsPt */\012PUSHW[ ]	/* 1 value pushed */\0126 \012MDAP[1]	/* MoveDirectAbsPt */\012PUSHW[ ]	/* 2 values pushed */\0120 6 \012MIRP[10100]	/* MoveIndirectRelPt */\012PUSHW[ ]	/* 1 value pushed */\01254 \012SRP0[ ]	/* SetRefPoint0 */\012PUSHW[ ]	/* 1 value pushed */\01226 \012MDRP[10000]	/* MoveDirectRelPt */\012PUSHW[ ]	/* 1 value pushed */\01226 \012MDAP[1]	/* MoveDirectAbsPt */\012PUSHW[ ]	/* 2 values pushed */\01220 6 \012MIRP[10100]	/* MoveIndirectRelPt */\012PUSHW[ ]	/* 1 value pushed */\01233 \012MDRP[10000]	/* MoveDirectRelPt */\012PUSHW[ ]	/* 1 value pushed */\0126 \012SRP0[ ]	/* SetRefPoint0 */\012PUSHW[ ]	/* 1 value pushed */\01246 \012MDRP[10000]	/* MoveDirectRelPt */\012PUSHW[ ]	/* 1 value pushed */\0120 \012SRP0[ ]	/* SetRefPoint0 */\012PUSHW[ ]	/* 1 value pushed */\01255 \012MDRP[11100]	/* MoveDirectRelPt */\012SVTCA[0]	/* SetFreedomAndProjectionVectorToAxis */\012PUSHW[ ]	/* 4 values pushed */\01243 1 12 4 \012CALL[ ]	/* CallFunction */\012PUSHW[ ]	/* 1 value pushed */\01212 \012SRP0[ ]	/* SetRefPoint0 */\012PUSHW[ ]	/* 1 value pushed */\01214 \012MDRP[10000]	/* MoveDirectRelPt */\012PUSHW[ ]	/* 1 value pushed */\01212 \012SRP0[ ]	/* SetRefPoint0 */\012PUSHW[ ]	/* 1 value pushed */\01216 \012MDRP[10000]	/* MoveDirectRelPt */\012PUSHW[ ]	/* 3 values pushed */\01219 12 43 \012SRP1[ ]	/* SetRefPoint1 */\012SRP2[ ]	/* SetRefPoint2 */\012IP[ ]	/* InterpolatePts */\012PUSHW[ ]	/* 1 value pushed */\01243 \012SRP0[ ]	/* SetRefPoint0 */\012PUSHW[ ]	/* 1 value pushed */\01239 \012MDRP[10000]	/* MoveDirectRelPt */\012PUSHW[ ]	/* 3 values pushed */\01246 12 43 \012SRP1[ ]	/* SetRefPoint1 */\012SRP2[ ]	/* SetRefPoint2 */\012IP[ ]	/* InterpolatePts */\012IUP[0]	/* InterpolateUntPts */\012IUP[1]	/* InterpolateUntPts */";
};
width = 883;
}
);
note = H;
unicode = 0048;
},
{
glyphname = I;
layers = (
{
layerId = "54A34634-507D-4D60-97FE-E6568C7C6955";
paths = (
{
closed = 1;
nodes = (
"146 481 OFFCURVE",
"118 509 OFFCURVE",
"98 509 QCURVE SMOOTH",
"78 509 OFFCURVE",
"50 481 OFFCURVE",
"50 461 QCURVE SMOOTH",
"50 121 LINE SMOOTH",
"50 101 OFFCURVE",
"78 73 OFFCURVE",
"98 73 QCURVE SMOOTH",
"118 73 OFFCURVE",
"146 101 OFFCURVE",
"146 121 QCURVE SMOOTH",
"146 461 LINE SMOOTH"
);
}
);
userData = {
assembly = "PUSHW[ ]	/* 4 values pushed */\0120 6 6 4 \012CALL[ ]	/* CallFunction */\012IUP[0]	/* InterpolateUntPts */\012IUP[1]	/* InterpolateUntPts */";
};
width = 196;
}
);
note = I;
unicode = 0049;
},
{
glyphname = J;
layers = (
{
layerId = "54A34634-507D-4D60-97FE-E6568C7C6955";
paths = (
{
closed = 1;
nodes = (
"118 289 OFFCURVE",
"98 289 QCURVE SMOOTH",
"79 289 OFFCURVE",
"50 261 OFFCURVE",
"50 241 QCURVE SMOOTH",
"50 209 OFFCURVE",
"77 148 OFFCURVE",
"123 101 OFFCURVE",
"184 73 OFFCURVE",
"218 73 QCURVE SMOOTH",
"670 73 LINE SMOOTH",
"713 73 OFFCURVE",
"783 113 OFFCURVE",
"832 176 OFFCURVE",
"858 253 OFFCURVE",
"858 291 QCURVE SMOOTH",
"858 461 LINE SMOOTH",
"858 481 OFFCURVE",
"830 509 OFFCURVE",
"810 509 QCURVE SMOOTH",
"791 509 OFFCURVE",
"762 481 OFFCURVE",
"762 461 QCURVE SMOOTH",
"762 283 LINE SMOOTH",
"762 265 OFFCURVE",
"751 225 OFFCURVE",
"726 191 OFFCURVE",
"683 169 OFFCURVE",
"650 169 QCURVE SMOOTH",
"247 169 LINE SMOOTH",
"226 169 OFFCURVE",
"189 181 OFFCURVE",
"162 202 OFFCURVE",
"146 227 OFFCURVE",
"146 241 QCURVE SMOOTH",
"146 261 OFFCURVE"
);
}
);
userData = {
assembly = "PUSHW[ ]	/* 1 value pushed */\01236 \012MDAP[1]	/* MoveDirectAbsPt */\012PUSHW[ ]	/* 1 value pushed */\01211 \012MDAP[1]	/* MoveDirectAbsPt */\012PUSHW[ ]	/* 1 value pushed */\01236 \012SRP0[ ]	/* SetRefPoint0 */\012PUSHW[ ]	/* 1 value pushed */\01230 \012MDRP[10000]	/* MoveDirectRelPt */\012PUSHW[ ]	/* 1 value pushed */\01230 \012MDAP[1]	/* MoveDirectAbsPt */\012PUSHW[ ]	/* 2 values pushed */\0120 6 \012MIRP[10100]	/* MoveIndirectRelPt */\012NPUSHW[ ]	/* 11 values pushed */\0126 0 22 0 38 0 54 0 70 0 5 \012DELTAP1[ ]	/* DeltaExceptionP1 */\012PUSHW[ ]	/* 1 value pushed */\01211 \012SRP0[ ]	/* SetRefPoint0 */\012PUSHW[ ]	/* 2 values pushed */\01219 6 \012MIRP[10100]	/* MoveIndirectRelPt */\012PUSHW[ ]	/* 1 value pushed */\01237 \012MDRP[11100]	/* MoveDirectRelPt */\012SVTCA[0]	/* SetFreedomAndProjectionVectorToAxis */\012PUSHW[ ]	/* 4 values pushed */\0126 1 24 4 \012CALL[ ]	/* CallFunction */\012IUP[0]	/* InterpolateUntPts */\012IUP[1]	/* InterpolateUntPts */";
};
width = 908;
}
);
note = J;
unicode = 004A;
},
{
glyphname = K;
layers = (
{
layerId = "54A34634-507D-4D60-97FE-E6568C7C6955";
paths = (
{
closed = 1;
nodes = (
"145 481 OFFCURVE",
"117 509 OFFCURVE",
"97 509 QCURVE SMOOTH",
"78 509 OFFCURVE",
"50 481 OFFCURVE",
"50 461 QCURVE SMOOTH",
"50 121 LINE SMOOTH",
"50 101 OFFCURVE",
"78 73 OFFCURVE",
"98 73 QCURVE SMOOTH",
"117 73 OFFCURVE",
"145 101 OFFCURVE",
"145 121 QCURVE SMOOTH",
"145 243 LINE",
"376 243 LINE SMOOTH",
"428 243 OFFCURVE",
"528 217 OFFCURVE",
"621 174 OFFCURVE",
"709 117 OFFCURVE",
"750 87 QCURVE SMOOTH",
"758 81 OFFCURVE",
"776 73 OFFCURVE",
"784 73 QCURVE SMOOTH",
"804 73 OFFCURVE",
"832 101 OFFCURVE",
"832 121 QCURVE SMOOTH",
"832 135 OFFCURVE",
"816 156 OFFCURVE",
"805 164 QCURVE SMOOTH",
"779 184 OFFCURVE",
"731 218 OFFCURVE",
"683 249 OFFCURVE",
"632 277 OFFCURVE",
"603 291 QCURVE",
"632 305 OFFCURVE",
"683 333 OFFCURVE",
"731 364 OFFCURVE",
"779 398 OFFCURVE",
"805 418 QCURVE SMOOTH",
"816 426 OFFCURVE",
"832 447 OFFCURVE",
"832 461 QCURVE SMOOTH",
"832 481 OFFCURVE",
"804 509 OFFCURVE",
"784 509 QCURVE SMOOTH",
"776 509 OFFCURVE",
"758 501 OFFCURVE",
"750 495 QCURVE SMOOTH",
"710 466 OFFCURVE",
"623 410 OFFCURVE",
"528 366 OFFCURVE",
"428 339 OFFCURVE",
"376 339 QCURVE SMOOTH",
"145 339 LINE",
"145 461 LINE SMOOTH"
);
}
);
userData = {
assembly = "PUSHW[ ]	/* 4 values pushed */\01241 6 47 4 \012CALL[ ]	/* CallFunction */\012PUSHW[ ]	/* 1 value pushed */\01241 \012SRP0[ ]	/* SetRefPoint0 */\012PUSHW[ ]	/* 1 value pushed */\0120 \012MDRP[10000]	/* MoveDirectRelPt */\012SVTCA[0]	/* SetFreedomAndProjectionVectorToAxis */\012PUSHW[ ]	/* 4 values pushed */\0121 1 39 4 \012CALL[ ]	/* CallFunction */\012PUSHW[ ]	/* 3 values pushed */\01220 39 1 \012SRP1[ ]	/* SetRefPoint1 */\012SRP2[ ]	/* SetRefPoint2 */\012IP[ ]	/* InterpolatePts */\012IUP[0]	/* InterpolateUntPts */\012IUP[1]	/* InterpolateUntPts */";
};
width = 882;
}
);
note = K;
unicode = 004B;
},
{
glyphname = L;
layers = (
{
layerId = "54A34634-507D-4D60-97FE-E6568C7C6955";
paths = (
{
closed = 1;
nodes = (
"804 73 OFFCURVE",
"832 101 OFFCURVE",
"832 121 QCURVE SMOOTH",
"832 141 OFFCURVE",
"804 169 OFFCURVE",
"784 169 QCURVE SMOOTH",
"184 169 LINE SMOOTH",
"169 169 OFFCURVE",
"146 191 OFFCURVE",
"146 206 QCURVE SMOOTH",
"146 461 LINE SMOOTH",
"146 481 OFFCURVE",
"117 509 OFFCURVE",
"98 509 QCURVE SMOOTH",
"78 509 OFFCURVE",
"50 481 OFFCURVE",
"50 461 QCURVE SMOOTH",
"50 206 LINE SMOOTH",
"50 178 OFFCURVE",
"72 130 OFFCURVE",
"109 94 OFFCURVE",
"159 73 OFFCURVE",
"187 73 QCURVE SMOOTH",
"784 73 LINE SMOOTH"
);
}
);
userData = {
assembly = "PUSHW[ ]	/* 4 values pushed */\01213 6 5 4 \012CALL[ ]	/* CallFunction */\012SVTCA[0]	/* SetFreedomAndProjectionVectorToAxis */\012PUSHW[ ]	/* 4 values pushed */\01216 1 0 4 \012CALL[ ]	/* CallFunction */\012IUP[0]	/* InterpolateUntPts */\012IUP[1]	/* InterpolateUntPts */";
};
width = 882;
}
);
note = L;
unicode = 004C;
},
{
glyphname = M;
layers = (
{
layerId = "54A34634-507D-4D60-97FE-E6568C7C6955";
paths = (
{
closed = 1;
nodes = (
"447 59 OFFCURVE",
"473 59 QCURVE SMOOTH",
"499 59 OFFCURVE",
"535 95 OFFCURVE",
"535 121 QCURVE SMOOTH",
"535 147 OFFCURVE",
"499 183 OFFCURVE",
"473 183 QCURVE SMOOTH",
"447 183 OFFCURVE",
"411 147 OFFCURVE",
"411 121 QCURVE SMOOTH",
"411 95 OFFCURVE"
);
},
{
closed = 1;
nodes = (
"191 322 OFFCURVE",
"272 274 OFFCURVE",
"351 245 OFFCURVE",
"430 233 OFFCURVE",
"473 233 QCURVE SMOOTH",
"513 233 OFFCURVE",
"591 245 OFFCURVE",
"670 274 OFFCURVE",
"753 322 OFFCURVE",
"798 358 QCURVE",
"798 121 LINE SMOOTH",
"798 101 OFFCURVE",
"826 73 OFFCURVE",
"846 73 QCURVE SMOOTH",
"866 73 OFFCURVE",
"894 101 OFFCURVE",
"894 121 QCURVE SMOOTH",
"894 461 LINE SMOOTH",
"894 481 OFFCURVE",
"866 509 OFFCURVE",
"846 509 QCURVE SMOOTH",
"829 509 OFFCURVE",
"812 495 QCURVE SMOOTH",
"747 438 OFFCURVE",
"654 374 OFFCURVE",
"579 342 OFFCURVE",
"512 335 OFFCURVE",
"473 335 QCURVE SMOOTH",
"434 335 OFFCURVE",
"365 343 OFFCURVE",
"289 375 OFFCURVE",
"196 439 OFFCURVE",
"132 495 QCURVE SMOOTH",
"124 501 OFFCURVE",
"108 509 OFFCURVE",
"98 509 QCURVE SMOOTH",
"78 509 OFFCURVE",
"50 481 OFFCURVE",
"50 461 QCURVE SMOOTH",
"50 121 LINE SMOOTH",
"50 101 OFFCURVE",
"78 73 OFFCURVE",
"98 73 QCURVE SMOOTH",
"118 73 OFFCURVE",
"146 101 OFFCURVE",
"146 121 QCURVE SMOOTH",
"146 358 LINE"
);
}
);
userData = {
assembly = "PUSHW[ ]	/* 4 values pushed */\01212 6 18 4 \012CALL[ ]	/* CallFunction */\012PUSHW[ ]	/* 4 values pushed */\0126 7 0 4 \012CALL[ ]	/* CallFunction */\012PUSHW[ ]	/* 4 values pushed */\01241 6 47 4 \012CALL[ ]	/* CallFunction */\012NPUSHW[ ]	/* 11 values pushed */\0129 0 25 0 41 0 57 0 73 0 5 \012DELTAP1[ ]	/* DeltaExceptionP1 */\012PUSHW[ ]	/* 1 value pushed */\01241 \012SRP0[ ]	/* SetRefPoint0 */\012PUSHW[ ]	/* 1 value pushed */\01260 \012MDRP[11100]	/* MoveDirectRelPt */\012SVTCA[0]	/* SetFreedomAndProjectionVectorToAxis */\012PUSHW[ ]	/* 4 values pushed */\0123 5 9 4 \012CALL[ ]	/* CallFunction */\012PUSHW[ ]	/* 4 values pushed */\01230 1 53 4 \012CALL[ ]	/* CallFunction */\012IUP[0]	/* InterpolateUntPts */\012IUP[1]	/* InterpolateUntPts */";
};
width = 944;
}
);
note = M;
unicode = 004D;
},
{
glyphname = N;
layers = (
{
layerId = "54A34634-507D-4D60-97FE-E6568C7C6955";
paths = (
{
closed = 1;
nodes = (
"731 101 OFFCURVE",
"759 73 OFFCURVE",
"779 73 QCURVE SMOOTH",
"799 73 OFFCURVE",
"827 101 OFFCURVE",
"827 121 QCURVE SMOOTH",
"827 291 LINE SMOOTH",
"827 328 OFFCURVE",
"803 406 OFFCURVE",
"758 469 OFFCURVE",
"693 509 OFFCURVE",
"653 509 QCURVE SMOOTH",
"234 509 LINE SMOOTH",
"191 509 OFFCURVE",
"123 469 OFFCURVE",
"75 406 OFFCURVE",
"50 328 OFFCURVE",
"50 291 QCURVE SMOOTH",
"50 121 LINE SMOOTH",
"50 101 OFFCURVE",
"78 73 OFFCURVE",
"98 73 QCURVE SMOOTH",
"118 73 OFFCURVE",
"146 101 OFFCURVE",
"146 121 QCURVE SMOOTH",
"146 291 LINE SMOOTH",
"146 309 OFFCURVE",
"155 352 OFFCURVE",
"180 388 OFFCURVE",
"223 413 OFFCURVE",
"258 413 QCURVE SMOOTH",
"619 413 LINE SMOOTH",
"653 413 OFFCURVE",
"697 388 OFFCURVE",
"722 352 OFFCURVE",
"731 309 OFFCURVE",
"731 291 QCURVE SMOOTH",
"731 121 LINE SMOOTH"
);
}
);
userData = {
assembly = "PUSHW[ ]	/* 1 value pushed */\01238 \012MDAP[1]	/* MoveDirectAbsPt */\012PUSHW[ ]	/* 1 value pushed */\0120 \012MDAP[1]	/* MoveDirectAbsPt */\012PUSHW[ ]	/* 1 value pushed */\01238 \012SRP0[ ]	/* SetRefPoint0 */\012PUSHW[ ]	/* 1 value pushed */\01218 \012MDRP[10000]	/* MoveDirectRelPt */\012PUSHW[ ]	/* 1 value pushed */\01218 \012MDAP[1]	/* MoveDirectAbsPt */\012PUSHW[ ]	/* 2 values pushed */\01212 6 \012MIRP[10100]	/* MoveIndirectRelPt */\012PUSHW[ ]	/* 1 value pushed */\0120 \012SRP0[ ]	/* SetRefPoint0 */\012PUSHW[ ]	/* 2 values pushed */\01230 6 \012MIRP[10100]	/* MoveIndirectRelPt */\012PUSHW[ ]	/* 1 value pushed */\01239 \012MDRP[11100]	/* MoveDirectRelPt */\012SVTCA[0]	/* SetFreedomAndProjectionVectorToAxis */\012PUSHW[ ]	/* 1 value pushed */\0120 \012RCVT[ ]	/* ReadCVT */\012IF[ ]	/* If */\012PUSHW[ ]	/* 1 value pushed */\01224 \012MDAP[1]	/* MoveDirectAbsPt */\012ELSE[ ]	/* Else */\012PUSHW[ ]	/* 2 values pushed */\01224 10 \012MIAP[0]	/* MoveIndirectAbsPt */\012EIF[ ]	/* EndIf */\012PUSHW[ ]	/* 2 values pushed */\0125 1 \012MIRP[10100]	/* MoveIndirectRelPt */\012IUP[0]	/* InterpolateUntPts */\012IUP[1]	/* InterpolateUntPts */";
};
width = 877;
}
);
note = N;
unicode = 004E;
},
{
glyphname = O;
layers = (
{
layerId = "54A34634-507D-4D60-97FE-E6568C7C6955";
paths = (
{
closed = 1;
nodes = (
"220 169 OFFCURVE",
"177 194 OFFCURVE",
"152 230 OFFCURVE",
"143 273 OFFCURVE",
"143 291 QCURVE SMOOTH",
"143 309 OFFCURVE",
"152 352 OFFCURVE",
"177 388 OFFCURVE",
"220 413 OFFCURVE",
"255 413 QCURVE SMOOTH",
"659 413 LINE SMOOTH",
"693 413 OFFCURVE",
"737 388 OFFCURVE",
"762 352 OFFCURVE",
"771 309 OFFCURVE",
"771 291 QCURVE SMOOTH",
"771 273 OFFCURVE",
"762 230 OFFCURVE",
"737 194 OFFCURVE",
"693 169 OFFCURVE",
"659 169 QCURVE SMOOTH",
"255 169 LINE SMOOTH"
);
},
{
closed = 1;
nodes = (
"840 406 OFFCURVE",
"795 469 OFFCURVE",
"730 509 OFFCURVE",
"690 509 QCURVE SMOOTH",
"234 509 LINE SMOOTH",
"191 509 OFFCURVE",
"123 469 OFFCURVE",
"75 406 OFFCURVE",
"50 328 OFFCURVE",
"50 291 QCURVE SMOOTH",
"50 254 OFFCURVE",
"74 176 OFFCURVE",
"119 113 OFFCURVE",
"183 73 OFFCURVE",
"224 73 QCURVE SMOOTH",
"680 73 LINE SMOOTH",
"723 73 OFFCURVE",
"791 113 OFFCURVE",
"839 176 OFFCURVE",
"864 253 OFFCURVE",
"864 291 QCURVE SMOOTH",
"864 328 OFFCURVE"
);
}
);
userData = {
assembly = "PUSHW[ ]	/* 1 value pushed */\01244 \012MDAP[1]	/* MoveDirectAbsPt */\012PUSHW[ ]	/* 1 value pushed */\0125 \012MDAP[1]	/* MoveDirectAbsPt */\012NPUSHW[ ]	/* 11 values pushed */\0129 5 25 5 41 5 57 5 73 5 5 \012DELTAP1[ ]	/* DeltaExceptionP1 */\012PUSHW[ ]	/* 1 value pushed */\01244 \012SRP0[ ]	/* SetRefPoint0 */\012PUSHW[ ]	/* 1 value pushed */\01233 \012MDRP[10000]	/* MoveDirectRelPt */\012PUSHW[ ]	/* 1 value pushed */\01233 \012MDAP[1]	/* MoveDirectAbsPt */\012PUSHW[ ]	/* 2 values pushed */\01216 6 \012MIRP[10100]	/* MoveIndirectRelPt */\012NPUSHW[ ]	/* 11 values pushed */\0126 16 22 16 38 16 54 16 70 16 5 \012DELTAP1[ ]	/* DeltaExceptionP1 */\012PUSHW[ ]	/* 1 value pushed */\0125 \012SRP0[ ]	/* SetRefPoint0 */\012PUSHW[ ]	/* 2 values pushed */\01222 6 \012MIRP[10100]	/* MoveIndirectRelPt */\012PUSHW[ ]	/* 1 value pushed */\01245 \012MDRP[11100]	/* MoveDirectRelPt */\012SVTCA[0]	/* SetFreedomAndProjectionVectorToAxis */\012PUSHW[ ]	/* 1 value pushed */\0120 \012RCVT[ ]	/* ReadCVT */\012IF[ ]	/* If */\012PUSHW[ ]	/* 1 value pushed */\01238 \012MDAP[1]	/* MoveDirectAbsPt */\012ELSE[ ]	/* Else */\012PUSHW[ ]	/* 2 values pushed */\01238 10 \012MIAP[0]	/* MoveIndirectAbsPt */\012EIF[ ]	/* EndIf */\012PUSHW[ ]	/* 4 values pushed */\0120 1 27 4 \012CALL[ ]	/* CallFunction */\012PUSHW[ ]	/* 1 value pushed */\01238 \012SRP0[ ]	/* SetRefPoint0 */\012PUSHW[ ]	/* 2 values pushed */\01210 1 \012MIRP[10100]	/* MoveIndirectRelPt */\012IUP[0]	/* InterpolateUntPts */\012IUP[1]	/* InterpolateUntPts */";
};
width = 914;
}
);
note = O;
unicode = 004F;
},
{
glyphname = P;
layers = (
{
layerId = "54A34634-507D-4D60-97FE-E6568C7C6955";
paths = (
{
closed = 1;
nodes = (
"716 413 OFFCURVE",
"739 391 OFFCURVE",
"739 376 QCURVE SMOOTH",
"739 360 OFFCURVE",
"716 339 OFFCURVE",
"701 339 QCURVE SMOOTH",
"146 339 LINE",
"146 413 LINE",
"701 413 LINE SMOOTH"
);
},
{
closed = 1;
nodes = (
"78 509 OFFCURVE",
"50 481 OFFCURVE",
"50 461 QCURVE SMOOTH",
"50 121 LINE SMOOTH",
"50 101 OFFCURVE",
"78 73 OFFCURVE",
"98 73 QCURVE SMOOTH",
"117 73 OFFCURVE",
"146 101 OFFCURVE",
"146 121 QCURVE SMOOTH",
"146 243 LINE",
"697 243 LINE SMOOTH",
"725 243 OFFCURVE",
"774 264 OFFCURVE",
"811 300 OFFCURVE",
"832 348 OFFCURVE",
"832 376 QCURVE SMOOTH",
"832 404 OFFCURVE",
"811 452 OFFCURVE",
"774 488 OFFCURVE",
"725 509 OFFCURVE",
"697 509 QCURVE SMOOTH",
"98 509 LINE SMOOTH"
);
}
);
userData = {
assembly = "PUSHW[ ]	/* 1 value pushed */\01232 \012MDAP[1]	/* MoveDirectAbsPt */\012PUSHW[ ]	/* 1 value pushed */\0125 \012MDAP[1]	/* MoveDirectAbsPt */\012PUSHW[ ]	/* 1 value pushed */\01232 \012SRP0[ ]	/* SetRefPoint0 */\012PUSHW[ ]	/* 1 value pushed */\01227 \012MDRP[10000]	/* MoveDirectRelPt */\012PUSHW[ ]	/* 1 value pushed */\01227 \012MDAP[1]	/* MoveDirectAbsPt */\012PUSHW[ ]	/* 2 values pushed */\01221 6 \012MIRP[10100]	/* MoveIndirectRelPt */\012PUSHW[ ]	/* 1 value pushed */\0120 \012MDRP[10000]	/* MoveDirectRelPt */\012NPUSHW[ ]	/* 11 values pushed */\0129 5 25 5 41 5 57 5 73 5 5 \012DELTAP1[ ]	/* DeltaExceptionP1 */\012PUSHW[ ]	/* 1 value pushed */\0125 \012SRP0[ ]	/* SetRefPoint0 */\012PUSHW[ ]	/* 2 values pushed */\01214 6 \012MIRP[10100]	/* MoveIndirectRelPt */\012PUSHW[ ]	/* 1 value pushed */\01233 \012MDRP[11100]	/* MoveDirectRelPt */\012SVTCA[0]	/* SetFreedomAndProjectionVectorToAxis */\012PUSHW[ ]	/* 1 value pushed */\0120 \012RCVT[ ]	/* ReadCVT */\012IF[ ]	/* If */\012PUSHW[ ]	/* 1 value pushed */\0129 \012MDAP[1]	/* MoveDirectAbsPt */\012ELSE[ ]	/* Else */\012PUSHW[ ]	/* 2 values pushed */\0129 10 \012MIAP[0]	/* MoveIndirectAbsPt */\012EIF[ ]	/* EndIf */\012PUSHW[ ]	/* 4 values pushed */\0122 1 19 4 \012CALL[ ]	/* CallFunction */\012PUSHW[ ]	/* 1 value pushed */\0129 \012SRP0[ ]	/* SetRefPoint0 */\012PUSHW[ ]	/* 2 values pushed */\0120 1 \012MIRP[10100]	/* MoveIndirectRelPt */\012IUP[0]	/* InterpolateUntPts */\012IUP[1]	/* InterpolateUntPts */";
};
width = 882;
}
);
note = P;
unicode = 0050;
},
{
glyphname = Q;
layers = (
{
layerId = "54A34634-507D-4D60-97FE-E6568C7C6955";
paths = (
{
closed = 1;
nodes = (
"611 141 OFFCURVE",
"611 121 QCURVE SMOOTH",
"611 101 OFFCURVE",
"639 73 OFFCURVE",
"659 73 QCURVE SMOOTH",
"680 73 LINE SMOOTH",
"723 73 OFFCURVE",
"791 113 OFFCURVE",
"839 176 OFFCURVE",
"864 253 OFFCURVE",
"864 291 QCURVE SMOOTH",
"864 328 OFFCURVE",
"840 406 OFFCURVE",
"795 469 OFFCURVE",
"730 509 OFFCURVE",
"690 509 QCURVE SMOOTH",
"234 509 LINE SMOOTH",
"191 509 OFFCURVE",
"123 469 OFFCURVE",
"75 406 OFFCURVE",
"50 328 OFFCURVE",
"50 291 QCURVE SMOOTH",
"50 254 OFFCURVE",
"74 176 OFFCURVE",
"119 113 OFFCURVE",
"183 73 OFFCURVE",
"224 73 QCURVE SMOOTH",
"461 73 LINE SMOOTH",
"481 73 OFFCURVE",
"509 101 OFFCURVE",
"509 121 QCURVE SMOOTH",
"509 141 OFFCURVE",
"481 169 OFFCURVE",
"461 169 QCURVE SMOOTH",
"255 169 LINE SMOOTH",
"220 169 OFFCURVE",
"177 194 OFFCURVE",
"152 230 OFFCURVE",
"143 273 OFFCURVE",
"143 291 QCURVE SMOOTH",
"143 309 OFFCURVE",
"152 352 OFFCURVE",
"177 388 OFFCURVE",
"220 413 OFFCURVE",
"255 413 QCURVE SMOOTH",
"659 413 LINE SMOOTH",
"693 413 OFFCURVE",
"737 388 OFFCURVE",
"762 352 OFFCURVE",
"771 309 OFFCURVE",
"771 291 QCURVE SMOOTH",
"771 273 OFFCURVE",
"762 230 OFFCURVE",
"737 194 OFFCURVE",
"693 169 OFFCURVE",
"659 169 QCURVE SMOOTH",
"639 169 OFFCURVE"
);
},
{
closed = 1;
nodes = (
"534 189 OFFCURVE",
"560 189 QCURVE SMOOTH",
"586 189 OFFCURVE",
"622 225 OFFCURVE",
"622 251 QCURVE SMOOTH",
"622 277 OFFCURVE",
"586 313 OFFCURVE",
"560 313 QCURVE SMOOTH",
"534 313 OFFCURVE",
"498 277 OFFCURVE",
"498 251 QCURVE SMOOTH",
"498 225 OFFCURVE"
);
}
);
userData = {
assembly = "PUSHW[ ]	/* 4 values pushed */\01216 6 34 4 \012CALL[ ]	/* CallFunction */\012PUSHW[ ]	/* 4 values pushed */\01263 7 57 4 \012CALL[ ]	/* CallFunction */\012PUSHW[ ]	/* 4 values pushed */\01245 6 5 4 \012CALL[ ]	/* CallFunction */\012NPUSHW[ ]	/* 11 values pushed */\0129 5 25 5 41 5 57 5 73 5 5 \012DELTAP1[ ]	/* DeltaExceptionP1 */\012NPUSHW[ ]	/* 11 values pushed */\0126 16 22 16 38 16 54 16 70 16 5 \012DELTAP1[ ]	/* DeltaExceptionP1 */\012NPUSHW[ ]	/* 11 values pushed */\0129 57 25 57 41 57 57 57 73 57 5 \012DELTAP1[ ]	/* DeltaExceptionP1 */\012PUSHW[ ]	/* 1 value pushed */\01245 \012SRP0[ ]	/* SetRefPoint0 */\012PUSHW[ ]	/* 1 value pushed */\01270 \012MDRP[11100]	/* MoveDirectRelPt */\012SVTCA[0]	/* SetFreedomAndProjectionVectorToAxis */\012PUSHW[ ]	/* 1 value pushed */\0120 \012RCVT[ ]	/* ReadCVT */\012IF[ ]	/* If */\012PUSHW[ ]	/* 1 value pushed */\01239 \012MDAP[1]	/* MoveDirectAbsPt */\012ELSE[ ]	/* Else */\012PUSHW[ ]	/* 2 values pushed */\01239 10 \012MIAP[0]	/* MoveIndirectAbsPt */\012EIF[ ]	/* EndIf */\012PUSHW[ ]	/* 4 values pushed */\01222 1 28 4 \012CALL[ ]	/* CallFunction */\012PUSHW[ ]	/* 4 values pushed */\01260 5 66 4 \012CALL[ ]	/* CallFunction */\012PUSHW[ ]	/* 1 value pushed */\01222 \012SRP0[ ]	/* SetRefPoint0 */\012PUSHW[ ]	/* 1 value pushed */\0120 \012MDRP[10000]	/* MoveDirectRelPt */\012PUSHW[ ]	/* 1 value pushed */\01239 \012SRP0[ ]	/* SetRefPoint0 */\012PUSHW[ ]	/* 2 values pushed */\01210 1 \012MIRP[10100]	/* MoveIndirectRelPt */\012PUSHW[ ]	/* 1 value pushed */\01228 \012SRP0[ ]	/* SetRefPoint0 */\012PUSHW[ ]	/* 1 value pushed */\01250 \012MDRP[10000]	/* MoveDirectRelPt */\012IUP[0]	/* InterpolateUntPts */\012IUP[1]	/* InterpolateUntPts */";
};
width = 914;
}
);
note = Q;
unicode = 0051;
},
{
glyphname = R;
layers = (
{
layerId = "54A34634-507D-4D60-97FE-E6568C7C6955";
paths = (
{
closed = 1;
nodes = (
"822 148 QCURVE SMOOTH",
"786 201 OFFCURVE",
"695 274 OFFCURVE",
"580 319 OFFCURVE",
"438 339 OFFCURVE",
"350 339 QCURVE SMOOTH",
"146 339 LINE",
"146 391 LINE",
"148 400 OFFCURVE",
"164 413 OFFCURVE",
"177 413 QCURVE SMOOTH",
"701 413 LINE",
"715 411 OFFCURVE",
"736 391 OFFCURVE",
"736 376 QCURVE SMOOTH",
"736 356 OFFCURVE",
"764 328 OFFCURVE",
"784 328 QCURVE SMOOTH",
"804 328 OFFCURVE",
"832 356 OFFCURVE",
"832 376 QCURVE SMOOTH",
"832 404 OFFCURVE",
"810 452 OFFCURVE",
"772 488 OFFCURVE",
"722 509 OFFCURVE",
"694 509 QCURVE SMOOTH",
"172 509 LINE SMOOTH",
"150 509 OFFCURVE",
"106 490 OFFCURVE",
"72 456 OFFCURVE",
"50 408 OFFCURVE",
"50 378 QCURVE SMOOTH",
"50 121 LINE SMOOTH",
"50 101 OFFCURVE",
"78 73 OFFCURVE",
"98 73 QCURVE SMOOTH",
"117 73 OFFCURVE",
"146 101 OFFCURVE",
"146 121 QCURVE SMOOTH",
"146 243 LINE",
"350 243 LINE SMOOTH",
"411 243 OFFCURVE",
"518 236 OFFCURVE",
"614 206 OFFCURVE",
"701 148 OFFCURVE",
"742 97 QCURVE SMOOTH",
"744 94 OFFCURVE",
"751 87 QCURVE SMOOTH",
"758 81 OFFCURVE",
"774 73 OFFCURVE",
"784 73 QCURVE SMOOTH",
"804 73 OFFCURVE",
"832 101 OFFCURVE",
"832 121 QCURVE SMOOTH",
"832 133 OFFCURVE"
);
}
);
userData = {
assembly = "PUSHW[ ]	/* 1 value pushed */\01255 \012MDAP[1]	/* MoveDirectAbsPt */\012PUSHW[ ]	/* 1 value pushed */\01239 \012MDAP[1]	/* MoveDirectAbsPt */\012NPUSHW[ ]	/* 11 values pushed */\0129 39 25 39 41 39 57 39 73 39 5 \012DELTAP1[ ]	/* DeltaExceptionP1 */\012PUSHW[ ]	/* 2 values pushed */\01233 6 \012MIRP[10100]	/* MoveIndirectRelPt */\012PUSHW[ ]	/* 1 value pushed */\0120 \012MDRP[10000]	/* MoveDirectRelPt */\012PUSHW[ ]	/* 1 value pushed */\01239 \012SRP0[ ]	/* SetRefPoint0 */\012PUSHW[ ]	/* 1 value pushed */\0128 \012MDRP[10000]	/* MoveDirectRelPt */\012PUSHW[ ]	/* 1 value pushed */\0128 \012MDAP[1]	/* MoveDirectAbsPt */\012PUSHW[ ]	/* 1 value pushed */\01255 \012SRP0[ ]	/* SetRefPoint0 */\012PUSHW[ ]	/* 1 value pushed */\01221 \012MDRP[10000]	/* MoveDirectRelPt */\012PUSHW[ ]	/* 1 value pushed */\01221 \012MDAP[1]	/* MoveDirectAbsPt */\012PUSHW[ ]	/* 2 values pushed */\01215 6 \012MIRP[10100]	/* MoveIndirectRelPt */\012PUSHW[ ]	/* 1 value pushed */\01246 \012MDRP[10000]	/* MoveDirectRelPt */\012PUSHW[ ]	/* 1 value pushed */\01233 \012SRP0[ ]	/* SetRefPoint0 */\012PUSHW[ ]	/* 1 value pushed */\01256 \012MDRP[11100]	/* MoveDirectRelPt */\012SVTCA[0]	/* SetFreedomAndProjectionVectorToAxis */\012PUSHW[ ]	/* 1 value pushed */\0120 \012RCVT[ ]	/* ReadCVT */\012IF[ ]	/* If */\012PUSHW[ ]	/* 1 value pushed */\01227 \012MDAP[1]	/* MoveDirectAbsPt */\012ELSE[ ]	/* Else */\012PUSHW[ ]	/* 2 values pushed */\01227 10 \012MIAP[0]	/* MoveIndirectAbsPt */\012EIF[ ]	/* EndIf */\012PUSHW[ ]	/* 4 values pushed */\01248 1 13 4 \012CALL[ ]	/* CallFunction */\012PUSHW[ ]	/* 1 value pushed */\01227 \012SRP0[ ]	/* SetRefPoint0 */\012PUSHW[ ]	/* 2 values pushed */\01242 1 \012MIRP[10100]	/* MoveIndirectRelPt */\012IUP[0]	/* InterpolateUntPts */\012IUP[1]	/* InterpolateUntPts */";
};
width = 882;
}
);
note = R;
unicode = 0052;
},
{
glyphname = S;
layers = (
{
layerId = "54A34634-507D-4D60-97FE-E6568C7C6955";
paths = (
{
closed = 1;
nodes = (
"753 243 OFFCURVE",
"775 221 OFFCURVE",
"775 205 QCURVE SMOOTH",
"775 190 OFFCURVE",
"753 169 OFFCURVE",
"738 169 QCURVE SMOOTH",
"128 169 LINE SMOOTH",
"108 169 OFFCURVE",
"80 141 OFFCURVE",
"80 121 QCURVE SMOOTH",
"80 101 OFFCURVE",
"108 73 OFFCURVE",
"128 73 QCURVE SMOOTH",
"734 73 LINE SMOOTH",
"762 73 OFFCURVE",
"811 93 OFFCURVE",
"847 129 OFFCURVE",
"868 177 OFFCURVE",
"868 205 QCURVE SMOOTH",
"868 233 OFFCURVE",
"847 282 OFFCURVE",
"811 318 OFFCURVE",
"762 339 OFFCURVE",
"734 339 QCURVE SMOOTH",
"181 339 LINE SMOOTH",
"166 339 OFFCURVE",
"143 361 OFFCURVE",
"143 376 QCURVE SMOOTH",
"143 392 OFFCURVE",
"166 413 OFFCURVE",
"181 413 QCURVE SMOOTH",
"790 413 LINE SMOOTH",
"810 413 OFFCURVE",
"838 441 OFFCURVE",
"838 461 QCURVE SMOOTH",
"838 481 OFFCURVE",
"810 509 OFFCURVE",
"790 509 QCURVE SMOOTH",
"183 509 LINE SMOOTH",
"155 509 OFFCURVE",
"107 488 OFFCURVE",
"71 452 OFFCURVE",
"50 404 OFFCURVE",
"50 376 QCURVE SMOOTH",
"50 348 OFFCURVE",
"71 300 OFFCURVE",
"107 264 OFFCURVE",
"155 243 OFFCURVE",
"183 243 QCURVE SMOOTH",
"738 243 LINE SMOOTH"
);
}
);
userData = {
assembly = "PUSHW[ ]	/* 1 value pushed */\01250 \012MDAP[1]	/* MoveDirectAbsPt */\012PUSHW[ ]	/* 1 value pushed */\01246 \012MDAP[1]	/* MoveDirectAbsPt */\012PUSHW[ ]	/* 1 value pushed */\01250 \012SRP0[ ]	/* SetRefPoint0 */\012PUSHW[ ]	/* 1 value pushed */\0125 \012MDRP[10000]	/* MoveDirectRelPt */\012PUSHW[ ]	/* 1 value pushed */\0125 \012MDAP[1]	/* MoveDirectAbsPt */\012PUSHW[ ]	/* 2 values pushed */\01221 6 \012MIRP[10100]	/* MoveIndirectRelPt */\012NPUSHW[ ]	/* 11 values pushed */\0126 21 22 21 38 21 54 21 70 21 5 \012DELTAP1[ ]	/* DeltaExceptionP1 */\012NPUSHW[ ]	/* 11 values pushed */\0129 46 25 46 41 46 57 46 73 46 5 \012DELTAP1[ ]	/* DeltaExceptionP1 */\012PUSHW[ ]	/* 1 value pushed */\01246 \012SRP0[ ]	/* SetRefPoint0 */\012PUSHW[ ]	/* 2 values pushed */\01230 6 \012MIRP[10100]	/* MoveIndirectRelPt */\012PUSHW[ ]	/* 1 value pushed */\01251 \012MDRP[11100]	/* MoveDirectRelPt */\012SVTCA[0]	/* SetFreedomAndProjectionVectorToAxis */\012PUSHW[ ]	/* 1 value pushed */\0120 \012RCVT[ ]	/* ReadCVT */\012IF[ ]	/* If */\012PUSHW[ ]	/* 1 value pushed */\01210 \012MDAP[1]	/* MoveDirectAbsPt */\012ELSE[ ]	/* Else */\012PUSHW[ ]	/* 2 values pushed */\01210 10 \012MIAP[0]	/* MoveIndirectAbsPt */\012EIF[ ]	/* EndIf */\012PUSHW[ ]	/* 4 values pushed */\01243 1 35 4 \012CALL[ ]	/* CallFunction */\012PUSHW[ ]	/* 4 values pushed */\01224 1 0 4 \012CALL[ ]	/* CallFunction */\012PUSHW[ ]	/* 1 value pushed */\01210 \012SRP0[ ]	/* SetRefPoint0 */\012PUSHW[ ]	/* 2 values pushed */\01217 1 \012MIRP[10100]	/* MoveIndirectRelPt */\012IUP[0]	/* InterpolateUntPts */\012IUP[1]	/* InterpolateUntPts */";
};
width = 918;
}
);
note = S;
unicode = 0053;
},
{
glyphname = T;
layers = (
{
layerId = "54A34634-507D-4D60-97FE-E6568C7C6955";
paths = (
{
closed = 1;
nodes = (
"78 509 OFFCURVE",
"50 481 OFFCURVE",
"50 461 QCURVE SMOOTH",
"50 441 OFFCURVE",
"78 413 OFFCURVE",
"98 413 QCURVE SMOOTH",
"426 413 LINE",
"410 385 OFFCURVE",
"394 322 OFFCURVE",
"394 291 QCURVE SMOOTH",
"394 121 LINE SMOOTH",
"394 101 OFFCURVE",
"422 73 OFFCURVE",
"442 73 QCURVE SMOOTH",
"462 73 OFFCURVE",
"490 101 OFFCURVE",
"490 121 QCURVE SMOOTH",
"490 291 LINE SMOOTH",
"490 309 OFFCURVE",
"498 351 OFFCURVE",
"520 388 OFFCURVE",
"559 413 OFFCURVE",
"589 413 QCURVE SMOOTH",
"790 413 LINE",
"808 415 OFFCURVE",
"834 442 OFFCURVE",
"834 461 QCURVE SMOOTH",
"834 481 OFFCURVE",
"806 509 OFFCURVE",
"786 509 QCURVE SMOOTH",
"98 509 LINE SMOOTH"
);
}
);
userData = {
assembly = "PUSHW[ ]	/* 4 values pushed */\01213 6 19 4 \012CALL[ ]	/* CallFunction */\012PUSHW[ ]	/* 3 values pushed */\01223 19 13 \012SRP1[ ]	/* SetRefPoint1 */\012SRP2[ ]	/* SetRefPoint2 */\012IP[ ]	/* InterpolatePts */\012SVTCA[0]	/* SetFreedomAndProjectionVectorToAxis */\012PUSHW[ ]	/* 1 value pushed */\0120 \012RCVT[ ]	/* ReadCVT */\012IF[ ]	/* If */\012PUSHW[ ]	/* 1 value pushed */\0120 \012MDAP[1]	/* MoveDirectAbsPt */\012ELSE[ ]	/* Else */\012PUSHW[ ]	/* 2 values pushed */\0120 10 \012MIAP[0]	/* MoveIndirectAbsPt */\012EIF[ ]	/* EndIf */\012PUSHW[ ]	/* 2 values pushed */\0126 1 \012MIRP[10100]	/* MoveIndirectRelPt */\012PUSHW[ ]	/* 1 value pushed */\01223 \012MDRP[10000]	/* MoveDirectRelPt */\012PUSHW[ ]	/* 1 value pushed */\01224 \012MDRP[10000]	/* MoveDirectRelPt */\012IUP[0]	/* InterpolateUntPts */\012IUP[1]	/* InterpolateUntPts */";
};
width = 884;
}
);
note = T;
unicode = 0054;
},
{
glyphname = U;
layers = (
{
layerId = "54A34634-507D-4D60-97FE-E6568C7C6955";
paths = (
{
closed = 1;
nodes = (
"146 481 OFFCURVE",
"118 509 OFFCURVE",
"98 509 QCURVE SMOOTH",
"78 509 OFFCURVE",
"50 481 OFFCURVE",
"50 461 QCURVE SMOOTH",
"50 291 LINE SMOOTH",
"50 254 OFFCURVE",
"74 176 OFFCURVE",
"119 113 OFFCURVE",
"183 73 OFFCURVE",
"224 73 QCURVE SMOOTH",
"680 73 LINE SMOOTH",
"723 73 OFFCURVE",
"791 113 OFFCURVE",
"839 176 OFFCURVE",
"864 253 OFFCURVE",
"864 291 QCURVE SMOOTH",
"864 461 LINE SMOOTH",
"864 481 OFFCURVE",
"836 509 OFFCURVE",
"816 509 QCURVE SMOOTH",
"796 509 OFFCURVE",
"768 481 OFFCURVE",
"768 461 QCURVE SMOOTH",
"768 291 LINE SMOOTH",
"768 273 OFFCURVE",
"759 230 OFFCURVE",
"734 194 OFFCURVE",
"690 169 OFFCURVE",
"656 169 QCURVE SMOOTH",
"258 169 LINE SMOOTH",
"223 169 OFFCURVE",
"180 194 OFFCURVE",
"155 230 OFFCURVE",
"146 273 OFFCURVE",
"146 291 QCURVE SMOOTH",
"146 461 LINE SMOOTH"
);
}
);
userData = {
assembly = "PUSHW[ ]	/* 1 value pushed */\01238 \012MDAP[1]	/* MoveDirectAbsPt */\012PUSHW[ ]	/* 1 value pushed */\01211 \012MDAP[1]	/* MoveDirectAbsPt */\012PUSHW[ ]	/* 1 value pushed */\01238 \012SRP0[ ]	/* SetRefPoint0 */\012PUSHW[ ]	/* 1 value pushed */\01230 \012MDRP[10000]	/* MoveDirectRelPt */\012PUSHW[ ]	/* 1 value pushed */\01230 \012MDAP[1]	/* MoveDirectAbsPt */\012PUSHW[ ]	/* 2 values pushed */\0120 6 \012MIRP[10100]	/* MoveIndirectRelPt */\012PUSHW[ ]	/* 1 value pushed */\01211 \012SRP0[ ]	/* SetRefPoint0 */\012PUSHW[ ]	/* 2 values pushed */\01219 6 \012MIRP[10100]	/* MoveIndirectRelPt */\012PUSHW[ ]	/* 1 value pushed */\01239 \012MDRP[11100]	/* MoveDirectRelPt */\012SVTCA[0]	/* SetFreedomAndProjectionVectorToAxis */\012PUSHW[ ]	/* 4 values pushed */\0126 1 24 4 \012CALL[ ]	/* CallFunction */\012IUP[0]	/* InterpolateUntPts */\012IUP[1]	/* InterpolateUntPts */";
};
width = 914;
}
);
note = U;
unicode = 0055;
},
{
glyphname = V;
layers = (
{
layerId = "54A34634-507D-4D60-97FE-E6568C7C6955";
paths = (
{
closed = 1;
nodes = (
"440 171 OFFCURVE",
"419 152 OFFCURVE",
"408 152 QCURVE SMOOTH",
"397 152 OFFCURVE",
"376 171 OFFCURVE",
"369 179 QCURVE SMOOTH",
"136 490 LINE SMOOTH",
"123 509 OFFCURVE",
"98 509 QCURVE SMOOTH",
"78 509 OFFCURVE",
"50 481 OFFCURVE",
"50 461 QCURVE SMOOTH",
"50 451 OFFCURVE",
"59 435 OFFCURVE",
"64 427 QCURVE",
"307 102 LINE SMOOTH",
"324 79 OFFCURVE",
"378 53 OFFCURVE",
"408 53 QCURVE SMOOTH",
"440 53 OFFCURVE",
"496 82 OFFCURVE",
"513 105 QCURVE SMOOTH",
"755 431 LINE",
"756 432 LINE SMOOTH",
"766 442 OFFCURVE",
"766 461 QCURVE SMOOTH",
"766 481 OFFCURVE",
"738 509 OFFCURVE",
"718 509 QCURVE SMOOTH",
"694 509 OFFCURVE",
"681 491 QCURVE SMOOTH",
"446 179 LINE SMOOTH"
);
}
);
userData = {
assembly = "SVTCA[0]	/* SetFreedomAndProjectionVectorToAxis */\012PUSHW[ ]	/* 1 value pushed */\0120 \012RCVT[ ]	/* ReadCVT */\012IF[ ]	/* If */\012PUSHW[ ]	/* 1 value pushed */\0122 \012MDAP[1]	/* MoveDirectAbsPt */\012ELSE[ ]	/* Else */\012PUSHW[ ]	/* 2 values pushed */\0122 10 \012MIAP[0]	/* MoveIndirectAbsPt */\012EIF[ ]	/* EndIf */\012PUSHW[ ]	/* 1 value pushed */\0120 \012RCVT[ ]	/* ReadCVT */\012IF[ ]	/* If */\012PUSHW[ ]	/* 1 value pushed */\01222 \012MDAP[1]	/* MoveDirectAbsPt */\012ELSE[ ]	/* Else */\012PUSHW[ ]	/* 2 values pushed */\01222 10 \012MIAP[0]	/* MoveIndirectAbsPt */\012EIF[ ]	/* EndIf */\012PUSHW[ ]	/* 4 values pushed */\01228 1 12 4 \012CALL[ ]	/* CallFunction */\012IUP[0]	/* InterpolateUntPts */\012IUP[1]	/* InterpolateUntPts */";
};
width = 816;
}
);
note = V;
unicode = 0056;
},
{
glyphname = W;
layers = (
{
layerId = "54A34634-507D-4D60-97FE-E6568C7C6955";
paths = (
{
closed = 1;
nodes = (
"50 253 OFFCURVE",
"74 176 OFFCURVE",
"119 113 OFFCURVE",
"183 73 OFFCURVE",
"224 73 QCURVE SMOOTH",
"778 73 LINE SMOOTH",
"821 73 OFFCURVE",
"889 113 OFFCURVE",
"937 176 OFFCURVE",
"962 253 OFFCURVE",
"962 291 QCURVE SMOOTH",
"962 461 LINE SMOOTH",
"962 481 OFFCURVE",
"934 509 OFFCURVE",
"914 509 QCURVE SMOOTH",
"894 509 OFFCURVE",
"866 481 OFFCURVE",
"866 461 QCURVE SMOOTH",
"866 291 LINE SMOOTH",
"866 273 OFFCURVE",
"857 230 OFFCURVE",
"832 194 OFFCURVE",
"788 169 OFFCURVE",
"754 169 QCURVE SMOOTH",
"659 169 LINE SMOOTH",
"627 169 OFFCURVE",
"586 194 OFFCURVE",
"563 231 OFFCURVE",
"554 273 OFFCURVE",
"554 291 QCURVE SMOOTH",
"554 461 LINE SMOOTH",
"554 481 OFFCURVE",
"526 509 OFFCURVE",
"506 509 QCURVE SMOOTH",
"486 509 OFFCURVE",
"458 481 OFFCURVE",
"458 461 QCURVE SMOOTH",
"458 291 LINE SMOOTH",
"458 260 OFFCURVE",
"474 197 OFFCURVE",
"490 169 QCURVE",
"258 169 LINE SMOOTH",
"223 169 OFFCURVE",
"180 194 OFFCURVE",
"155 230 OFFCURVE",
"146 273 OFFCURVE",
"146 291 QCURVE SMOOTH",
"146 461 LINE SMOOTH",
"146 481 OFFCURVE",
"118 509 OFFCURVE",
"98 509 QCURVE SMOOTH",
"78 509 OFFCURVE",
"50 481 OFFCURVE",
"50 461 QCURVE SMOOTH",
"50 291 LINE SMOOTH"
);
}
);
userData = {
assembly = "PUSHW[ ]	/* 1 value pushed */\01255 \012MDAP[1]	/* MoveDirectAbsPt */\012PUSHW[ ]	/* 1 value pushed */\0120 \012MDRP[10000]	/* MoveDirectRelPt */\012PUSHW[ ]	/* 1 value pushed */\0120 \012MDAP[1]	/* MoveDirectAbsPt */\012PUSHW[ ]	/* 2 values pushed */\0126 6 \012MIRP[10100]	/* MoveIndirectRelPt */\012PUSHW[ ]	/* 1 value pushed */\0120 \012SRP0[ ]	/* SetRefPoint0 */\012PUSHW[ ]	/* 1 value pushed */\01216 \012MDRP[11100]	/* MoveDirectRelPt */\012NPUSHW[ ]	/* 3 values pushed */\01280 16 1 \012DELTAP1[ ]	/* DeltaExceptionP1 */\012NPUSHW[ ]	/* 3 values pushed */\012239 16 1 \012DELTAP1[ ]	/* DeltaExceptionP1 */\012NPUSHW[ ]	/* 3 values pushed */\012112 16 1 \012DELTAP1[ ]	/* DeltaExceptionP1 */\012NPUSHW[ ]	/* 3 values pushed */\012192 16 1 \012DELTAP1[ ]	/* DeltaExceptionP1 */\012PUSHW[ ]	/* 2 values pushed */\01224 6 \012MIRP[10100]	/* MoveIndirectRelPt */\012PUSHW[ ]	/* 3 values pushed */\01213 16 24 \012SRP1[ ]	/* SetRefPoint1 */\012SRP2[ ]	/* SetRefPoint2 */\012IP[ ]	/* InterpolatePts */\012PUSHW[ ]	/* 1 value pushed */\01216 \012SRP0[ ]	/* SetRefPoint0 */\012PUSHW[ ]	/* 1 value pushed */\01235 \012MDRP[11100]	/* MoveDirectRelPt */\012NPUSHW[ ]	/* 3 values pushed */\012192 35 1 \012DELTAP1[ ]	/* DeltaExceptionP1 */\012NPUSHW[ ]	/* 3 values pushed */\012239 35 1 \012DELTAP1[ ]	/* DeltaExceptionP1 */\012NPUSHW[ ]	/* 3 values pushed */\012112 35 1 \012DELTAP1[ ]	/* DeltaExceptionP1 */\012NPUSHW[ ]	/* 3 values pushed */\01280 35 1 \012DELTAP1[ ]	/* DeltaExceptionP1 */\012PUSHW[ ]	/* 2 values pushed */\01243 6 \012MIRP[10100]	/* MoveIndirectRelPt */\012PUSHW[ ]	/* 1 value pushed */\01256 \012MDRP[11100]	/* MoveDirectRelPt */\012SVTCA[0]	/* SetFreedomAndProjectionVectorToAxis */\012PUSHW[ ]	/* 4 values pushed */\01230 1 48 4 \012CALL[ ]	/* CallFunction */\012PUSHW[ ]	/* 1 value pushed */\01230 \012SRP0[ ]	/* SetRefPoint0 */\012PUSHW[ ]	/* 1 value pushed */\01212 \012MDRP[10000]	/* MoveDirectRelPt */\012IUP[0]	/* InterpolateUntPts */\012IUP[1]	/* InterpolateUntPts */";
};
width = 1012;
}
);
note = W;
unicode = 0057;
},
{
glyphname = X;
layers = (
{
layerId = "54A34634-507D-4D60-97FE-E6568C7C6955";
paths = (
{
closed = 1;
nodes = (
"854 101 OFFCURVE",
"854 121 QCURVE SMOOTH",
"854 140 OFFCURVE",
"828 165 OFFCURVE",
"809 169 QCURVE SMOOTH",
"778 175 OFFCURVE",
"722 201 OFFCURVE",
"679 234 OFFCURVE",
"654 272 OFFCURVE",
"654 291 QCURVE SMOOTH",
"654 310 OFFCURVE",
"679 347 OFFCURVE",
"722 380 OFFCURVE",
"778 406 OFFCURVE",
"809 413 QCURVE SMOOTH",
"828 418 OFFCURVE",
"854 442 OFFCURVE",
"854 461 QCURVE SMOOTH",
"854 481 OFFCURVE",
"826 509 OFFCURVE",
"806 509 QCURVE SMOOTH",
"802 509 OFFCURVE",
"796 508 OFFCURVE",
"792 507 QCURVE SMOOTH",
"748 498 OFFCURVE",
"664 456 OFFCURVE",
"598 397 OFFCURVE",
"558 327 OFFCURVE",
"558 291 QCURVE SMOOTH",
"558 254 OFFCURVE",
"598 184 OFFCURVE",
"664 126 OFFCURVE",
"748 84 OFFCURVE",
"792 75 QCURVE SMOOTH",
"796 74 OFFCURVE",
"802 73 OFFCURVE",
"806 73 QCURVE SMOOTH",
"826 73 OFFCURVE"
);
},
{
closed = 1;
nodes = (
"426 229 OFFCURVE",
"452 229 QCURVE SMOOTH",
"478 229 OFFCURVE",
"514 265 OFFCURVE",
"514 291 QCURVE SMOOTH",
"514 317 OFFCURVE",
"478 353 OFFCURVE",
"452 353 QCURVE SMOOTH",
"426 353 OFFCURVE",
"390 317 OFFCURVE",
"390 291 QCURVE SMOOTH",
"390 265 OFFCURVE"
);
},
{
closed = 1;
nodes = (
"108 74 OFFCURVE",
"112 75 QCURVE SMOOTH",
"156 84 OFFCURVE",
"240 126 OFFCURVE",
"306 184 OFFCURVE",
"346 254 OFFCURVE",
"346 291 QCURVE SMOOTH",
"346 327 OFFCURVE",
"306 397 OFFCURVE",
"240 456 OFFCURVE",
"156 498 OFFCURVE",
"112 507 QCURVE SMOOTH",
"108 508 OFFCURVE",
"102 509 OFFCURVE",
"98 509 QCURVE SMOOTH",
"78 509 OFFCURVE",
"50 481 OFFCURVE",
"50 461 QCURVE SMOOTH",
"50 442 OFFCURVE",
"76 418 OFFCURVE",
"95 413 QCURVE SMOOTH",
"126 406 OFFCURVE",
"182 380 OFFCURVE",
"225 347 OFFCURVE",
"250 310 OFFCURVE",
"250 291 QCURVE SMOOTH",
"250 272 OFFCURVE",
"225 234 OFFCURVE",
"182 201 OFFCURVE",
"126 175 OFFCURVE",
"95 169 QCURVE SMOOTH",
"76 165 OFFCURVE",
"50 140 OFFCURVE",
"50 121 QCURVE SMOOTH",
"50 101 OFFCURVE",
"78 73 OFFCURVE",
"98 73 QCURVE SMOOTH",
"102 73 OFFCURVE"
);
}
);
userData = {
assembly = "PUSHW[ ]	/* 1 value pushed */\01288 \012MDAP[1]	/* MoveDirectAbsPt */\012PUSHW[ ]	/* 1 value pushed */\01261 \012MDRP[10000]	/* MoveDirectRelPt */\012PUSHW[ ]	/* 1 value pushed */\01261 \012MDAP[1]	/* MoveDirectAbsPt */\012PUSHW[ ]	/* 1 value pushed */\01238 \012MDRP[11100]	/* MoveDirectRelPt */\012NPUSHW[ ]	/* 3 values pushed */\012144 38 1 \012DELTAP1[ ]	/* DeltaExceptionP1 */\012NPUSHW[ ]	/* 3 values pushed */\01232 38 1 \012DELTAP1[ ]	/* DeltaExceptionP1 */\012PUSHW[ ]	/* 1 value pushed */\0128 \012MDRP[11100]	/* MoveDirectRelPt */\012NPUSHW[ ]	/* 3 values pushed */\01232 8 1 \012DELTAP1[ ]	/* DeltaExceptionP1 */\012NPUSHW[ ]	/* 3 values pushed */\012144 8 1 \012DELTAP1[ ]	/* DeltaExceptionP1 */\012PUSHW[ ]	/* 2 values pushed */\01227 6 \012MIRP[10100]	/* MoveIndirectRelPt */\012PUSHW[ ]	/* 1 value pushed */\01238 \012SRP0[ ]	/* SetRefPoint0 */\012PUSHW[ ]	/* 2 values pushed */\01244 7 \012MIRP[10100]	/* MoveIndirectRelPt */\012PUSHW[ ]	/* 1 value pushed */\01261 \012SRP0[ ]	/* SetRefPoint0 */\012PUSHW[ ]	/* 2 values pushed */\01280 6 \012MIRP[10100]	/* MoveIndirectRelPt */\012PUSHW[ ]	/* 1 value pushed */\01227 \012SRP0[ ]	/* SetRefPoint0 */\012PUSHW[ ]	/* 1 value pushed */\01289 \012MDRP[11100]	/* MoveDirectRelPt */\012SVTCA[0]	/* SetFreedomAndProjectionVectorToAxis */\012PUSHW[ ]	/* 4 values pushed */\01241 5 47 4 \012CALL[ ]	/* CallFunction */\012IUP[0]	/* InterpolateUntPts */\012IUP[1]	/* InterpolateUntPts */";
};
width = 904;
}
);
note = X;
unicode = 0058;
},
{
glyphname = Y;
layers = (
{
layerId = "54A34634-507D-4D60-97FE-E6568C7C6955";
paths = (
{
closed = 1;
nodes = (
"427 59 OFFCURVE",
"453 59 QCURVE SMOOTH",
"479 59 OFFCURVE",
"515 95 OFFCURVE",
"515 121 QCURVE SMOOTH",
"515 147 OFFCURVE",
"479 183 OFFCURVE",
"453 183 QCURVE SMOOTH",
"427 183 OFFCURVE",
"391 147 OFFCURVE",
"391 121 QCURVE SMOOTH",
"391 95 OFFCURVE"
);
},
{
closed = 1;
nodes = (
"352 343 OFFCURVE",
"283 375 OFFCURVE",
"196 439 OFFCURVE",
"132 495 QCURVE SMOOTH",
"124 501 OFFCURVE",
"108 509 OFFCURVE",
"98 509 QCURVE SMOOTH",
"78 509 OFFCURVE",
"50 481 OFFCURVE",
"50 461 QCURVE SMOOTH",
"50 450 OFFCURVE",
"61 430 OFFCURVE",
"69 423 QCURVE SMOOTH",
"133 367 OFFCURVE",
"231 294 OFFCURVE",
"317 250 OFFCURVE",
"402 233 OFFCURVE",
"453 233 QCURVE SMOOTH",
"501 233 OFFCURVE",
"585 250 OFFCURVE",
"673 294 OFFCURVE",
"772 367 OFFCURVE",
"835 423 QCURVE SMOOTH",
"843 430 OFFCURVE",
"854 450 OFFCURVE",
"854 461 QCURVE SMOOTH",
"854 481 OFFCURVE",
"826 509 OFFCURVE",
"806 509 QCURVE SMOOTH",
"789 509 OFFCURVE",
"772 495 QCURVE SMOOTH",
"707 438 OFFCURVE",
"620 374 OFFCURVE",
"552 342 OFFCURVE",
"492 335 OFFCURVE",
"453 335 QCURVE SMOOTH",
"414 335 OFFCURVE"
);
}
);
userData = {
assembly = "PUSHW[ ]	/* 4 values pushed */\0126 7 0 4 \012CALL[ ]	/* CallFunction */\012NPUSHW[ ]	/* 11 values pushed */\0129 0 25 0 41 0 57 0 73 0 5 \012DELTAP1[ ]	/* DeltaExceptionP1 */\012SVTCA[0]	/* SetFreedomAndProjectionVectorToAxis */\012PUSHW[ ]	/* 4 values pushed */\0123 5 9 4 \012CALL[ ]	/* CallFunction */\012PUSHW[ ]	/* 4 values pushed */\01212 1 30 4 \012CALL[ ]	/* CallFunction */\012IUP[0]	/* InterpolateUntPts */\012IUP[1]	/* InterpolateUntPts */";
};
width = 904;
}
);
note = Y;
unicode = 0059;
},
{
glyphname = Z;
layers = (
{
layerId = "54A34634-507D-4D60-97FE-E6568C7C6955";
paths = (
{
closed = 1;
nodes = (
"699 413 OFFCURVE",
"699 403 QCURVE SMOOTH",
"699 397 OFFCURVE",
"683 393 QCURVE SMOOTH",
"113 259 LINE SMOOTH",
"84 252 OFFCURVE",
"50 200 OFFCURVE",
"50 169 QCURVE SMOOTH",
"50 129 OFFCURVE",
"106 73 OFFCURVE",
"146 73 QCURVE SMOOTH",
"807 73 LINE SMOOTH",
"827 73 OFFCURVE",
"855 101 OFFCURVE",
"855 121 QCURVE SMOOTH",
"855 141 OFFCURVE",
"827 169 OFFCURVE",
"807 169 QCURVE SMOOTH",
"242 169 LINE SMOOTH",
"199 169 OFFCURVE",
"199 176 QCURVE SMOOTH",
"199 181 OFFCURVE",
"223 187 QCURVE SMOOTH",
"784 320 LINE SMOOTH",
"815 328 OFFCURVE",
"855 379 OFFCURVE",
"855 413 QCURVE SMOOTH",
"855 453 OFFCURVE",
"799 509 OFFCURVE",
"759 509 QCURVE SMOOTH",
"98 509 LINE SMOOTH",
"78 509 OFFCURVE",
"50 481 OFFCURVE",
"50 461 QCURVE SMOOTH",
"50 441 OFFCURVE",
"78 413 OFFCURVE",
"98 413 QCURVE SMOOTH",
"663 413 LINE SMOOTH"
);
}
);
userData = {
assembly = "SVTCA[0]	/* SetFreedomAndProjectionVectorToAxis */\012PUSHW[ ]	/* 1 value pushed */\0120 \012RCVT[ ]	/* ReadCVT */\012IF[ ]	/* If */\012PUSHW[ ]	/* 1 value pushed */\0126 \012MDAP[1]	/* MoveDirectAbsPt */\012ELSE[ ]	/* Else */\012PUSHW[ ]	/* 2 values pushed */\0126 10 \012MIAP[0]	/* MoveIndirectAbsPt */\012EIF[ ]	/* EndIf */\012PUSHW[ ]	/* 4 values pushed */\01219 1 25 4 \012CALL[ ]	/* CallFunction */\012PUSHW[ ]	/* 1 value pushed */\0126 \012SRP0[ ]	/* SetRefPoint0 */\012PUSHW[ ]	/* 2 values pushed */\0120 1 \012MIRP[10100]	/* MoveIndirectRelPt */\012IUP[0]	/* InterpolateUntPts */\012IUP[1]	/* InterpolateUntPts */";
};
width = 905;
}
);
note = Z;
unicode = 005A;
},
{
glyphname = bracketleft;
layers = (
{
layerId = "54A34634-507D-4D60-97FE-E6568C7C6955";
paths = (
{
closed = 1;
nodes = (
"376 411 OFFCURVE",
"397 430 OFFCURVE",
"408 430 QCURVE SMOOTH",
"419 430 OFFCURVE",
"440 411 OFFCURVE",
"447 403 QCURVE SMOOTH",
"550 265 LINE",
"266 265 LINE",
"370 403 LINE SMOOTH"
);
},
{
closed = 1;
nodes = (
"695 73 OFFCURVE",
"718 73 QCURVE SMOOTH",
"738 73 OFFCURVE",
"766 101 OFFCURVE",
"766 121 QCURVE SMOOTH",
"766 131 OFFCURVE",
"757 147 OFFCURVE",
"752 155 QCURVE",
"509 480 LINE SMOOTH",
"492 503 OFFCURVE",
"438 529 OFFCURVE",
"408 529 QCURVE SMOOTH",
"376 529 OFFCURVE",
"320 500 OFFCURVE",
"303 477 QCURVE SMOOTH",
"60 150 LINE",
"50 140 OFFCURVE",
"50 121 QCURVE SMOOTH",
"50 101 OFFCURVE",
"78 73 OFFCURVE",
"98 73 QCURVE SMOOTH",
"123 73 OFFCURVE",
"135 91 QCURVE SMOOTH",
"193 169 LINE",
"622 169 LINE",
"680 92 LINE SMOOTH"
);
}
);
userData = {
assembly = "SVTCA[0]	/* SetFreedomAndProjectionVectorToAxis */\012PUSHW[ ]	/* 1 value pushed */\0120 \012RCVT[ ]	/* ReadCVT */\012IF[ ]	/* If */\012PUSHW[ ]	/* 1 value pushed */\01222 \012MDAP[1]	/* MoveDirectAbsPt */\012ELSE[ ]	/* Else */\012PUSHW[ ]	/* 2 values pushed */\01222 12 \012MIAP[0]	/* MoveIndirectAbsPt */\012EIF[ ]	/* EndIf */\012PUSHW[ ]	/* 4 values pushed */\0121 1 9 4 \012CALL[ ]	/* CallFunction */\012PUSHW[ ]	/* 1 value pushed */\01222 \012SRP0[ ]	/* SetRefPoint0 */\012PUSHW[ ]	/* 2 values pushed */\0125 1 \012MIRP[10100]	/* MoveIndirectRelPt */\012NPUSHW[ ]	/* 11 values pushed */\0128 5 24 5 40 5 56 5 72 5 5 \012DELTAP1[ ]	/* DeltaExceptionP1 */\012IUP[0]	/* InterpolateUntPts */\012IUP[1]	/* InterpolateUntPts */";
};
width = 816;
}
);
note = bracketleft;
unicode = 005B;
},
{
glyphname = backslash;
layers = (
{
layerId = "54A34634-507D-4D60-97FE-E6568C7C6955";
paths = (
{
closed = 1;
nodes = (
"263 85 OFFCURVE",
"286 73 OFFCURVE",
"299 73 QCURVE SMOOTH",
"319 73 OFFCURVE",
"346 102 OFFCURVE",
"346 121 QCURVE SMOOTH",
"346 134 OFFCURVE",
"340 145 QCURVE SMOOTH",
"140 485 LINE SMOOTH",
"133 497 OFFCURVE",
"110 509 OFFCURVE",
"97 509 QCURVE SMOOTH",
"77 509 OFFCURVE",
"50 480 OFFCURVE",
"50 461 QCURVE SMOOTH",
"50 447 OFFCURVE",
"56 437 QCURVE SMOOTH",
"256 97 LINE SMOOTH"
);
}
);
userData = {
assembly = "PUSHW[ ]	/* 3 values pushed */\01211 2 3 \012CALL[ ]	/* CallFunction */\012NPUSHW[ ]	/* 27 values pushed */\0126 11 22 11 38 11 54 11 70 11 86 11 102 11 118 11 134 11 150 11 166 11 182 11 198 11 13 \012DELTAP1[ ]	/* DeltaExceptionP1 */\012NPUSHW[ ]	/* 5 values pushed */\012213 11 229 11 2 \012DELTAP1[ ]	/* DeltaExceptionP1 */\012PUSHW[ ]	/* 1 value pushed */\01211 \012SRP0[ ]	/* SetRefPoint0 */\012PUSHW[ ]	/* 1 value pushed */\01219 \012MDRP[11100]	/* MoveDirectRelPt */\012IUP[0]	/* InterpolateUntPts */\012IUP[1]	/* InterpolateUntPts */";
};
width = 396;
}
);
note = backslash;
unicode = 005C;
},
{
glyphname = bracketright;
layers = (
{
layerId = "54A34634-507D-4D60-97FE-E6568C7C6955";
paths = (
{
closed = 1;
nodes = (
"444 509 QCURVE SMOOTH",
"424 509 OFFCURVE",
"396 481 OFFCURVE",
"396 461 QCURVE SMOOTH",
"396 442 OFFCURVE",
"408 429 QCURVE",
"556 246 LINE",
"209 246 LINE SMOOTH",
"175 246 OFFCURVE",
"119 224 OFFCURVE",
"102 202 QCURVE SMOOTH",
"60 150 LINE",
"50 140 OFFCURVE",
"50 121 QCURVE SMOOTH",
"50 101 OFFCURVE",
"78 73 OFFCURVE",
"98 73 QCURVE SMOOTH",
"120 73 OFFCURVE",
"135 91 QCURVE SMOOTH",
"137 94 LINE",
"138 94 LINE",
"152 112 LINE SMOOTH",
"174 140 OFFCURVE",
"215 150 OFFCURVE",
"233 150 QCURVE SMOOTH",
"633 150 LINE",
"680 92 LINE SMOOTH",
"688 83 OFFCURVE",
"705 73 OFFCURVE",
"718 73 QCURVE SMOOTH",
"738 73 OFFCURVE",
"766 101 OFFCURVE",
"766 121 QCURVE SMOOTH",
"766 131 OFFCURVE",
"757 148 OFFCURVE",
"752 155 QCURVE SMOOTH",
"696 224 OFFCURVE",
"619 320 OFFCURVE",
"560 394 OFFCURVE",
"510 456 OFFCURVE",
"481 491 QCURVE SMOOTH",
"466 509 OFFCURVE"
);
}
);
userData = {
assembly = "SVTCA[0]	/* SetFreedomAndProjectionVectorToAxis */\012PUSHW[ ]	/* 1 value pushed */\0120 \012RCVT[ ]	/* ReadCVT */\012IF[ ]	/* If */\012PUSHW[ ]	/* 1 value pushed */\01240 \012MDAP[1]	/* MoveDirectAbsPt */\012ELSE[ ]	/* Else */\012PUSHW[ ]	/* 2 values pushed */\01240 10 \012MIAP[0]	/* MoveIndirectAbsPt */\012EIF[ ]	/* EndIf */\012PUSHW[ ]	/* 4 values pushed */\01234 1 15 4 \012CALL[ ]	/* CallFunction */\012IUP[0]	/* InterpolateUntPts */\012IUP[1]	/* InterpolateUntPts */";
};
width = 816;
}
);
note = bracketright;
unicode = 005D;
},
{
glyphname = asciicircum;
layers = (
{
layerId = "54A34634-507D-4D60-97FE-E6568C7C6955";
paths = (
{
closed = 1;
nodes = (
"78 339 OFFCURVE",
"98 339 QCURVE SMOOTH",
"115 339 OFFCURVE",
"138 359 OFFCURVE",
"144 372 QCURVE SMOOTH",
"251 594 LINE",
"362 365 LINE SMOOTH",
"374 339 OFFCURVE",
"405 339 QCURVE SMOOTH",
"425 339 OFFCURVE",
"453 367 OFFCURVE",
"453 387 QCURVE SMOOTH",
"453 394 OFFCURVE",
"448 406 OFFCURVE",
"444 413 QCURVE SMOOTH",
"331 645 LINE SMOOTH",
"320 668 OFFCURVE",
"279 701 OFFCURVE",
"251 701 QCURVE SMOOTH",
"225 701 OFFCURVE",
"182 673 OFFCURVE",
"171 650 QCURVE SMOOTH",
"54 409 LINE",
"50 398 OFFCURVE",
"50 387 QCURVE SMOOTH",
"50 367 OFFCURVE"
);
}
);
userData = {
assembly = "PUSHW[ ]	/* 3 values pushed */\01213 0 3 \012CALL[ ]	/* CallFunction */\012NPUSHW[ ]	/* 5 values pushed */\012218 0 234 0 2 \012DELTAP1[ ]	/* DeltaExceptionP1 */\012NPUSHW[ ]	/* 27 values pushed */\0129 0 25 0 41 0 57 0 73 0 89 0 105 0 121 0 137 0 153 0 169 0 185 0 201 0 13 \012DELTAP1[ ]	/* DeltaExceptionP1 */\012PUSHW[ ]	/* 3 values pushed */\01219 0 13 \012SRP1[ ]	/* SetRefPoint1 */\012SRP2[ ]	/* SetRefPoint2 */\012IP[ ]	/* InterpolatePts */\012PUSHW[ ]	/* 1 value pushed */\01213 \012SRP0[ ]	/* SetRefPoint0 */\012PUSHW[ ]	/* 1 value pushed */\01227 \012MDRP[11100]	/* MoveDirectRelPt */\012SVTCA[0]	/* SetFreedomAndProjectionVectorToAxis */\012PUSHW[ ]	/* 3 values pushed */\0126 23 3 \012CALL[ ]	/* CallFunction */\012PUSHW[ ]	/* 1 value pushed */\01223 \012SRP0[ ]	/* SetRefPoint0 */\012PUSHW[ ]	/* 1 value pushed */\01216 \012MDRP[10000]	/* MoveDirectRelPt */\012PUSHW[ ]	/* 3 values pushed */\01219 23 6 \012SRP1[ ]	/* SetRefPoint1 */\012SRP2[ ]	/* SetRefPoint2 */\012IP[ ]	/* InterpolatePts */\012IUP[0]	/* InterpolateUntPts */\012IUP[1]	/* InterpolateUntPts */";
};
width = 503;
}
);
note = asciicircum;
unicode = 005E;
},
{
glyphname = underscore;
layers = (
{
layerId = "54A34634-507D-4D60-97FE-E6568C7C6955";
paths = (
{
closed = 1;
nodes = (
"-167 169 OFFCURVE",
"-195 141 OFFCURVE",
"-195 121 QCURVE SMOOTH",
"-195 102 OFFCURVE",
"-169 75 OFFCURVE",
"-151 73 QCURVE",
"148 73 LINE SMOOTH",
"168 73 OFFCURVE",
"196 101 OFFCURVE",
"196 121 QCURVE SMOOTH",
"196 141 OFFCURVE",
"168 169 OFFCURVE",
"148 169 QCURVE SMOOTH",
"-147 169 LINE SMOOTH"
);
}
);
userData = {
assembly = "PUSHW[ ]	/* 3 values pushed */\0123 10 3 \012CALL[ ]	/* CallFunction */\012NPUSHW[ ]	/* 5 values pushed */\012218 10 234 10 2 \012DELTAP1[ ]	/* DeltaExceptionP1 */\012NPUSHW[ ]	/* 27 values pushed */\0129 10 25 10 41 10 57 10 73 10 89 10 105 10 121 10 137 10 153 10 169 10 185 10 201 10 13 \012DELTAP1[ ]	/* DeltaExceptionP1 */\012PUSHW[ ]	/* 1 value pushed */\0123 \012SRP0[ ]	/* SetRefPoint0 */\012PUSHW[ ]	/* 1 value pushed */\01215 \012MDRP[11100]	/* MoveDirectRelPt */\012SVTCA[0]	/* SetFreedomAndProjectionVectorToAxis */\012PUSHW[ ]	/* 4 values pushed */\0120 1 6 4 \012CALL[ ]	/* CallFunction */\012IUP[0]	/* InterpolateUntPts */\012IUP[1]	/* InterpolateUntPts */";
};
width = 0;
}
);
note = underscore;
unicode = 005F;
},
{
glyphname = grave;
layers = (
{
layerId = "54A34634-507D-4D60-97FE-E6568C7C6955";
paths = (
{
closed = 1;
nodes = (
"76 720 OFFCURVE",
"38 709 OFFCURVE",
"28 692 QCURVE SMOOTH",
"18 675 OFFCURVE",
"28 637 OFFCURVE",
"45 627 QCURVE SMOOTH",
"193 542 LINE SMOOTH",
"210 532 OFFCURVE",
"248 543 OFFCURVE",
"258 560 QCURVE SMOOTH",
"268 577 OFFCURVE",
"258 615 OFFCURVE",
"241 625 QCURVE SMOOTH",
"93 710 LINE SMOOTH"
);
}
);
width = 285;
}
);
note = grave;
unicode = 0060;
},
{
glyphname = a;
layers = (
{
layerId = "54A34634-507D-4D60-97FE-E6568C7C6955";
paths = (
{
closed = 1;
nodes = (
"376 411 OFFCURVE",
"397 430 OFFCURVE",
"408 430 QCURVE SMOOTH",
"419 430 OFFCURVE",
"440 411 OFFCURVE",
"447 403 QCURVE SMOOTH",
"680 92 LINE SMOOTH",
"693 73 OFFCURVE",
"718 73 QCURVE SMOOTH",
"738 73 OFFCURVE",
"766 101 OFFCURVE",
"766 121 QCURVE SMOOTH",
"766 131 OFFCURVE",
"757 147 OFFCURVE",
"752 155 QCURVE",
"509 480 LINE SMOOTH",
"492 503 OFFCURVE",
"438 529 OFFCURVE",
"408 529 QCURVE SMOOTH",
"376 529 OFFCURVE",
"320 500 OFFCURVE",
"303 477 QCURVE SMOOTH",
"60 150 LINE",
"50 140 OFFCURVE",
"50 121 QCURVE SMOOTH",
"50 101 OFFCURVE",
"78 73 OFFCURVE",
"98 73 QCURVE SMOOTH",
"121 73 OFFCURVE",
"135 91 QCURVE SMOOTH",
"370 403 LINE SMOOTH"
);
}
);
userData = {
assembly = "SVTCA[0]	/* SetFreedomAndProjectionVectorToAxis */\012PUSHW[ ]	/* 1 value pushed */\0120 \012RCVT[ ]	/* ReadCVT */\012IF[ ]	/* If */\012PUSHW[ ]	/* 1 value pushed */\01211 \012MDAP[1]	/* MoveDirectAbsPt */\012ELSE[ ]	/* Else */\012PUSHW[ ]	/* 2 values pushed */\01211 12 \012MIAP[0]	/* MoveIndirectAbsPt */\012EIF[ ]	/* EndIf */\012PUSHW[ ]	/* 2 values pushed */\01227 1 \012MIRP[10100]	/* MoveIndirectRelPt */\012NPUSHW[ ]	/* 11 values pushed */\0128 27 24 27 40 27 56 27 72 27 5 \012DELTAP1[ ]	/* DeltaExceptionP1 */\012IUP[0]	/* InterpolateUntPts */\012IUP[1]	/* InterpolateUntPts */";
};
width = 816;
}
);
note = a;
unicode = 0061;
},
{
glyphname = b;
layers = (
{
layerId = "54A34634-507D-4D60-97FE-E6568C7C6955";
paths = (
{
closed = 1;
nodes = (
"163 169 OFFCURVE",
"146 184 OFFCURVE",
"146 194 QCURVE SMOOTH",
"146 243 LINE",
"701 243 LINE SMOOTH",
"716 243 OFFCURVE",
"739 222 OFFCURVE",
"739 206 QCURVE SMOOTH",
"739 191 OFFCURVE",
"716 169 OFFCURVE",
"701 169 QCURVE SMOOTH",
"177 169 LINE SMOOTH"
);
},
{
closed = 1;
nodes = (
"78 413 OFFCURVE",
"98 413 QCURVE SMOOTH",
"701 413 LINE SMOOTH",
"716 413 OFFCURVE",
"739 390 OFFCURVE",
"739 375 QCURVE SMOOTH",
"739 359 OFFCURVE",
"717 339 OFFCURVE",
"702 339 QCURVE SMOOTH",
"114 339 LINE SMOOTH",
"81 339 OFFCURVE",
"50 321 OFFCURVE",
"50 294 QCURVE SMOOTH",
"50 204 LINE SMOOTH",
"50 174 OFFCURVE",
"72 126 OFFCURVE",
"106 92 OFFCURVE",
"150 73 OFFCURVE",
"172 73 QCURVE SMOOTH",
"697 73 LINE SMOOTH",
"725 73 OFFCURVE",
"774 94 OFFCURVE",
"811 130 OFFCURVE",
"832 178 OFFCURVE",
"832 206 QCURVE SMOOTH",
"832 230 OFFCURVE",
"815 273 OFFCURVE",
"801 290 QCURVE",
"815 307 OFFCURVE",
"832 350 OFFCURVE",
"832 375 QCURVE SMOOTH",
"832 403 OFFCURVE",
"811 452 OFFCURVE",
"774 488 OFFCURVE",
"725 509 OFFCURVE",
"697 509 QCURVE SMOOTH",
"98 509 LINE SMOOTH",
"78 509 OFFCURVE",
"50 481 OFFCURVE",
"50 461 QCURVE SMOOTH",
"50 441 OFFCURVE"
);
}
);
userData = {
assembly = "PUSHW[ ]	/* 1 value pushed */\01253 \012MDAP[1]	/* MoveDirectAbsPt */\012PUSHW[ ]	/* 1 value pushed */\0123 \012MDAP[1]	/* MoveDirectAbsPt */\012NPUSHW[ ]	/* 11 values pushed */\0129 3 25 3 41 3 57 3 73 3 5 \012DELTAP1[ ]	/* DeltaExceptionP1 */\012PUSHW[ ]	/* 1 value pushed */\01253 \012SRP0[ ]	/* SetRefPoint0 */\012PUSHW[ ]	/* 1 value pushed */\01238 \012MDRP[10000]	/* MoveDirectRelPt */\012PUSHW[ ]	/* 1 value pushed */\01238 \012MDAP[1]	/* MoveDirectAbsPt */\012PUSHW[ ]	/* 2 values pushed */\0127 6 \012MIRP[10100]	/* MoveIndirectRelPt */\012PUSHW[ ]	/* 1 value pushed */\01238 \012SRP0[ ]	/* SetRefPoint0 */\012PUSHW[ ]	/* 1 value pushed */\01212 \012MDRP[10000]	/* MoveDirectRelPt */\012PUSHW[ ]	/* 1 value pushed */\0123 \012SRP0[ ]	/* SetRefPoint0 */\012PUSHW[ ]	/* 2 values pushed */\01227 6 \012MIRP[10100]	/* MoveIndirectRelPt */\012PUSHW[ ]	/* 1 value pushed */\01221 \012MDRP[10000]	/* MoveDirectRelPt */\012PUSHW[ ]	/* 1 value pushed */\0123 \012SRP0[ ]	/* SetRefPoint0 */\012PUSHW[ ]	/* 1 value pushed */\01246 \012MDRP[10000]	/* MoveDirectRelPt */\012PUSHW[ ]	/* 1 value pushed */\01227 \012SRP0[ ]	/* SetRefPoint0 */\012PUSHW[ ]	/* 1 value pushed */\01254 \012MDRP[11100]	/* MoveDirectRelPt */\012SVTCA[0]	/* SetFreedomAndProjectionVectorToAxis */\012PUSHW[ ]	/* 1 value pushed */\0120 \012RCVT[ ]	/* ReadCVT */\012IF[ ]	/* If */\012PUSHW[ ]	/* 1 value pushed */\01215 \012MDAP[1]	/* MoveDirectAbsPt */\012ELSE[ ]	/* Else */\012PUSHW[ ]	/* 2 values pushed */\01215 10 \012MIAP[0]	/* MoveIndirectAbsPt */\012EIF[ ]	/* EndIf */\012PUSHW[ ]	/* 4 values pushed */\0120 1 32 4 \012CALL[ ]	/* CallFunction */\012PUSHW[ ]	/* 4 values pushed */\01243 1 6 4 \012CALL[ ]	/* CallFunction */\012PUSHW[ ]	/* 1 value pushed */\01215 \012SRP0[ ]	/* SetRefPoint0 */\012PUSHW[ ]	/* 2 values pushed */\01249 1 \012MIRP[10100]	/* MoveIndirectRelPt */\012IUP[0]	/* InterpolateUntPts */\012IUP[1]	/* InterpolateUntPts */";
};
width = 882;
}
);
note = b;
unicode = 0062;
},
{
glyphname = c;
layers = (
{
layerId = "54A34634-507D-4D60-97FE-E6568C7C6955";
paths = (
{
closed = 1;
nodes = (
"74 176 OFFCURVE",
"119 113 OFFCURVE",
"183 73 OFFCURVE",
"224 73 QCURVE SMOOTH",
"817 73 LINE SMOOTH",
"837 73 OFFCURVE",
"865 101 OFFCURVE",
"865 121 QCURVE SMOOTH",
"865 141 OFFCURVE",
"837 169 OFFCURVE",
"817 169 QCURVE SMOOTH",
"255 169 LINE SMOOTH",
"220 169 OFFCURVE",
"177 194 OFFCURVE",
"152 230 OFFCURVE",
"143 273 OFFCURVE",
"143 291 QCURVE SMOOTH",
"143 309 OFFCURVE",
"152 352 OFFCURVE",
"177 388 OFFCURVE",
"220 413 OFFCURVE",
"255 413 QCURVE SMOOTH",
"817 413 LINE SMOOTH",
"837 413 OFFCURVE",
"865 441 OFFCURVE",
"865 461 QCURVE SMOOTH",
"865 481 OFFCURVE",
"837 509 OFFCURVE",
"817 509 QCURVE SMOOTH",
"234 509 LINE SMOOTH",
"191 509 OFFCURVE",
"123 469 OFFCURVE",
"75 406 OFFCURVE",
"50 328 OFFCURVE",
"50 291 QCURVE SMOOTH",
"50 253 OFFCURVE"
);
}
);
userData = {
assembly = "PUSHW[ ]	/* 4 values pushed */\01218 6 0 4 \012CALL[ ]	/* CallFunction */\012NPUSHW[ ]	/* 11 values pushed */\0126 18 22 18 38 18 54 18 70 18 5 \012DELTAP1[ ]	/* DeltaExceptionP1 */\012SVTCA[0]	/* SetFreedomAndProjectionVectorToAxis */\012PUSHW[ ]	/* 1 value pushed */\0120 \012RCVT[ ]	/* ReadCVT */\012IF[ ]	/* If */\012PUSHW[ ]	/* 1 value pushed */\0125 \012MDAP[1]	/* MoveDirectAbsPt */\012ELSE[ ]	/* Else */\012PUSHW[ ]	/* 2 values pushed */\0125 10 \012MIAP[0]	/* MoveIndirectAbsPt */\012EIF[ ]	/* EndIf */\012PUSHW[ ]	/* 4 values pushed */\01224 1 30 4 \012CALL[ ]	/* CallFunction */\012PUSHW[ ]	/* 1 value pushed */\0125 \012SRP0[ ]	/* SetRefPoint0 */\012PUSHW[ ]	/* 2 values pushed */\01212 1 \012MIRP[10100]	/* MoveIndirectRelPt */\012IUP[0]	/* InterpolateUntPts */\012IUP[1]	/* InterpolateUntPts */";
};
width = 915;
}
);
note = c;
unicode = 0063;
},
{
glyphname = d;
layers = (
{
layerId = "54A34634-507D-4D60-97FE-E6568C7C6955";
paths = (
{
closed = 1;
nodes = (
"146 291 LINE SMOOTH",
"146 311 OFFCURVE",
"118 339 OFFCURVE",
"98 339 QCURVE SMOOTH",
"78 339 OFFCURVE",
"50 311 OFFCURVE",
"50 291 QCURVE SMOOTH",
"50 121 LINE SMOOTH",
"50 101 OFFCURVE",
"78 73 OFFCURVE",
"98 73 QCURVE SMOOTH",
"691 73 LINE SMOOTH",
"731 73 OFFCURVE",
"796 113 OFFCURVE",
"841 176 OFFCURVE",
"865 254 OFFCURVE",
"865 291 QCURVE SMOOTH",
"865 328 OFFCURVE",
"840 406 OFFCURVE",
"792 469 OFFCURVE",
"724 509 OFFCURVE",
"681 509 QCURVE SMOOTH",
"98 509 LINE SMOOTH",
"78 509 OFFCURVE",
"50 481 OFFCURVE",
"50 461 QCURVE SMOOTH",
"50 441 OFFCURVE",
"78 413 OFFCURVE",
"98 413 QCURVE SMOOTH",
"660 413 LINE SMOOTH",
"694 413 OFFCURVE",
"738 388 OFFCURVE",
"763 352 OFFCURVE",
"772 309 OFFCURVE",
"772 291 QCURVE SMOOTH",
"772 273 OFFCURVE",
"763 230 OFFCURVE",
"738 194 OFFCURVE",
"694 169 OFFCURVE",
"660 169 QCURVE SMOOTH",
"146 169 LINE"
);
}
);
userData = {
assembly = "PUSHW[ ]	/* 1 value pushed */\01241 \012MDAP[1]	/* MoveDirectAbsPt */\012PUSHW[ ]	/* 1 value pushed */\0125 \012MDAP[1]	/* MoveDirectAbsPt */\012NPUSHW[ ]	/* 11 values pushed */\0129 5 25 5 41 5 57 5 73 5 5 \012DELTAP1[ ]	/* DeltaExceptionP1 */\012PUSHW[ ]	/* 1 value pushed */\01241 \012SRP0[ ]	/* SetRefPoint0 */\012PUSHW[ ]	/* 1 value pushed */\01233 \012MDRP[10000]	/* MoveDirectRelPt */\012PUSHW[ ]	/* 1 value pushed */\01233 \012MDAP[1]	/* MoveDirectAbsPt */\012PUSHW[ ]	/* 1 value pushed */\01214 \012MDRP[10000]	/* MoveDirectRelPt */\012PUSHW[ ]	/* 1 value pushed */\0125 \012SRP0[ ]	/* SetRefPoint0 */\012PUSHW[ ]	/* 2 values pushed */\01223 6 \012MIRP[10100]	/* MoveIndirectRelPt */\012PUSHW[ ]	/* 1 value pushed */\01233 \012SRP0[ ]	/* SetRefPoint0 */\012PUSHW[ ]	/* 2 values pushed */\01239 6 \012MIRP[10100]	/* MoveIndirectRelPt */\012PUSHW[ ]	/* 1 value pushed */\01223 \012SRP0[ ]	/* SetRefPoint0 */\012PUSHW[ ]	/* 1 value pushed */\01242 \012MDRP[11100]	/* MoveDirectRelPt */\012SVTCA[0]	/* SetFreedomAndProjectionVectorToAxis */\012PUSHW[ ]	/* 1 value pushed */\0120 \012RCVT[ ]	/* ReadCVT */\012IF[ ]	/* If */\012PUSHW[ ]	/* 1 value pushed */\01217 \012MDAP[1]	/* MoveDirectAbsPt */\012ELSE[ ]	/* Else */\012PUSHW[ ]	/* 2 values pushed */\01217 10 \012MIAP[0]	/* MoveIndirectAbsPt */\012EIF[ ]	/* EndIf */\012PUSHW[ ]	/* 4 values pushed */\0120 1 28 4 \012CALL[ ]	/* CallFunction */\012PUSHW[ ]	/* 1 value pushed */\01217 \012SRP0[ ]	/* SetRefPoint0 */\012PUSHW[ ]	/* 2 values pushed */\01210 1 \012MIRP[10100]	/* MoveIndirectRelPt */\012IUP[0]	/* InterpolateUntPts */\012IUP[1]	/* InterpolateUntPts */";
};
width = 915;
}
);
note = d;
unicode = 0064;
},
{
glyphname = e;
layers = (
{
layerId = "54A34634-507D-4D60-97FE-E6568C7C6955";
paths = (
{
closed = 1;
nodes = (
"78 413 OFFCURVE",
"98 413 QCURVE SMOOTH",
"807 413 LINE SMOOTH",
"827 413 OFFCURVE",
"855 441 OFFCURVE",
"855 461 QCURVE SMOOTH",
"855 481 OFFCURVE",
"827 509 OFFCURVE",
"807 509 QCURVE SMOOTH",
"98 509 LINE SMOOTH",
"78 509 OFFCURVE",
"50 481 OFFCURVE",
"50 461 QCURVE SMOOTH",
"50 441 OFFCURVE"
);
},
{
closed = 1;
nodes = (
"827 73 OFFCURVE",
"855 101 OFFCURVE",
"855 121 QCURVE SMOOTH",
"855 141 OFFCURVE",
"827 169 OFFCURVE",
"807 169 QCURVE SMOOTH",
"177 169 LINE SMOOTH",
"163 169 OFFCURVE",
"146 184 OFFCURVE",
"146 194 QCURVE SMOOTH",
"146 243 LINE",
"785 243 LINE SMOOTH",
"805 243 OFFCURVE",
"833 271 OFFCURVE",
"833 291 QCURVE SMOOTH",
"833 311 OFFCURVE",
"805 339 OFFCURVE",
"785 339 QCURVE SMOOTH",
"114 339 LINE SMOOTH",
"81 339 OFFCURVE",
"50 321 OFFCURVE",
"50 294 QCURVE SMOOTH",
"50 204 LINE SMOOTH",
"50 174 OFFCURVE",
"72 126 OFFCURVE",
"106 92 OFFCURVE",
"150 73 OFFCURVE",
"172 73 QCURVE SMOOTH",
"807 73 LINE SMOOTH"
);
}
);
userData = {
assembly = "PUSHW[ ]	/* 4 values pushed */\01231 6 19 4 \012CALL[ ]	/* CallFunction */\012PUSHW[ ]	/* 1 value pushed */\01219 \012SRP0[ ]	/* SetRefPoint0 */\012PUSHW[ ]	/* 1 value pushed */\0120 \012MDRP[10000]	/* MoveDirectRelPt */\012SVTCA[0]	/* SetFreedomAndProjectionVectorToAxis */\012PUSHW[ ]	/* 1 value pushed */\0120 \012RCVT[ ]	/* ReadCVT */\012IF[ ]	/* If */\012PUSHW[ ]	/* 1 value pushed */\0123 \012MDAP[1]	/* MoveDirectAbsPt */\012ELSE[ ]	/* Else */\012PUSHW[ ]	/* 2 values pushed */\0123 10 \012MIAP[0]	/* MoveIndirectAbsPt */\012EIF[ ]	/* EndIf */\012PUSHW[ ]	/* 4 values pushed */\01235 1 14 4 \012CALL[ ]	/* CallFunction */\012PUSHW[ ]	/* 4 values pushed */\01224 1 30 4 \012CALL[ ]	/* CallFunction */\012PUSHW[ ]	/* 1 value pushed */\0123 \012SRP0[ ]	/* SetRefPoint0 */\012PUSHW[ ]	/* 2 values pushed */\01210 1 \012MIRP[10100]	/* MoveIndirectRelPt */\012IUP[0]	/* InterpolateUntPts */\012IUP[1]	/* InterpolateUntPts */";
};
width = 905;
}
);
note = e;
unicode = 0065;
},
{
glyphname = f;
layers = (
{
layerId = "54A34634-507D-4D60-97FE-E6568C7C6955";
paths = (
{
closed = 1;
nodes = (
"78 413 OFFCURVE",
"98 413 QCURVE SMOOTH",
"807 413 LINE SMOOTH",
"827 413 OFFCURVE",
"855 441 OFFCURVE",
"855 461 QCURVE SMOOTH",
"855 481 OFFCURVE",
"827 509 OFFCURVE",
"807 509 QCURVE SMOOTH",
"98 509 LINE SMOOTH",
"78 509 OFFCURVE",
"50 481 OFFCURVE",
"50 461 QCURVE SMOOTH",
"50 441 OFFCURVE"
);
},
{
closed = 1;
nodes = (
"50 101 OFFCURVE",
"78 73 OFFCURVE",
"98 73 QCURVE SMOOTH",
"118 73 OFFCURVE",
"146 101 OFFCURVE",
"146 121 QCURVE SMOOTH",
"146 243 LINE",
"785 243 LINE SMOOTH",
"805 243 OFFCURVE",
"833 271 OFFCURVE",
"833 291 QCURVE SMOOTH",
"833 311 OFFCURVE",
"805 339 OFFCURVE",
"785 339 QCURVE SMOOTH",
"114 339 LINE SMOOTH",
"81 339 OFFCURVE",
"50 321 OFFCURVE",
"50 294 QCURVE SMOOTH",
"50 121 LINE SMOOTH"
);
}
);
userData = {
assembly = "PUSHW[ ]	/* 4 values pushed */\01225 6 14 4 \012CALL[ ]	/* CallFunction */\012PUSHW[ ]	/* 1 value pushed */\01214 \012SRP0[ ]	/* SetRefPoint0 */\012PUSHW[ ]	/* 1 value pushed */\0120 \012MDRP[10000]	/* MoveDirectRelPt */\012SVTCA[0]	/* SetFreedomAndProjectionVectorToAxis */\012PUSHW[ ]	/* 1 value pushed */\0120 \012RCVT[ ]	/* ReadCVT */\012IF[ ]	/* If */\012PUSHW[ ]	/* 1 value pushed */\0123 \012MDAP[1]	/* MoveDirectAbsPt */\012ELSE[ ]	/* Else */\012PUSHW[ ]	/* 2 values pushed */\0123 10 \012MIAP[0]	/* MoveIndirectAbsPt */\012EIF[ ]	/* EndIf */\012PUSHW[ ]	/* 4 values pushed */\01218 1 24 4 \012CALL[ ]	/* CallFunction */\012PUSHW[ ]	/* 1 value pushed */\0123 \012SRP0[ ]	/* SetRefPoint0 */\012PUSHW[ ]	/* 2 values pushed */\01210 1 \012MIRP[10100]	/* MoveIndirectRelPt */\012IUP[0]	/* InterpolateUntPts */\012IUP[1]	/* InterpolateUntPts */";
};
width = 905;
}
);
note = f;
unicode = 0066;
},
{
glyphname = g;
layers = (
{
layerId = "54A34634-507D-4D60-97FE-E6568C7C6955";
paths = (
{
closed = 1;
nodes = (
"342 243 OFFCURVE",
"362 243 QCURVE SMOOTH",
"741 243 LINE SMOOTH",
"755 243 OFFCURVE",
"772 221 OFFCURVE",
"772 206 QCURVE SMOOTH",
"772 191 OFFCURVE",
"753 169 OFFCURVE",
"741 169 QCURVE SMOOTH",
"256 169 LINE SMOOTH",
"221 169 OFFCURVE",
"178 194 OFFCURVE",
"153 230 OFFCURVE",
"144 273 OFFCURVE",
"144 291 QCURVE SMOOTH",
"144 309 OFFCURVE",
"153 352 OFFCURVE",
"178 388 OFFCURVE",
"221 413 OFFCURVE",
"256 413 QCURVE SMOOTH",
"817 413 LINE SMOOTH",
"837 413 OFFCURVE",
"865 441 OFFCURVE",
"865 461 QCURVE SMOOTH",
"865 481 OFFCURVE",
"837 509 OFFCURVE",
"817 509 QCURVE SMOOTH",
"234 509 LINE SMOOTH",
"191 509 OFFCURVE",
"123 469 OFFCURVE",
"75 406 OFFCURVE",
"50 328 OFFCURVE",
"50 291 QCURVE SMOOTH",
"50 253 OFFCURVE",
"74 176 OFFCURVE",
"119 113 OFFCURVE",
"183 73 OFFCURVE",
"224 73 QCURVE SMOOTH",
"745 73 LINE SMOOTH",
"770 73 OFFCURVE",
"814 92 OFFCURVE",
"847 125 OFFCURVE",
"865 169 OFFCURVE",
"865 195 QCURVE SMOOTH",
"865 217 LINE SMOOTH",
"865 242 OFFCURVE",
"847 287 OFFCURVE",
"814 320 OFFCURVE",
"770 339 OFFCURVE",
"745 339 QCURVE SMOOTH",
"362 339 LINE SMOOTH",
"342 339 OFFCURVE",
"314 311 OFFCURVE",
"314 291 QCURVE SMOOTH",
"314 271 OFFCURVE"
);
}
);
userData = {
assembly = "PUSHW[ ]	/* 1 value pushed */\01255 \012MDAP[1]	/* MoveDirectAbsPt */\012PUSHW[ ]	/* 1 value pushed */\01248 \012MDAP[1]	/* MoveDirectAbsPt */\012PUSHW[ ]	/* 2 values pushed */\0129 6 \012MIRP[10100]	/* MoveIndirectRelPt */\012PUSHW[ ]	/* 1 value pushed */\01255 \012SRP0[ ]	/* SetRefPoint0 */\012PUSHW[ ]	/* 1 value pushed */\01221 \012MDRP[10000]	/* MoveDirectRelPt */\012PUSHW[ ]	/* 1 value pushed */\01221 \012MDAP[1]	/* MoveDirectAbsPt */\012PUSHW[ ]	/* 1 value pushed */\0129 \012SRP0[ ]	/* SetRefPoint0 */\012PUSHW[ ]	/* 1 value pushed */\01230 \012MDRP[10000]	/* MoveDirectRelPt */\012PUSHW[ ]	/* 1 value pushed */\01221 \012SRP0[ ]	/* SetRefPoint0 */\012PUSHW[ ]	/* 2 values pushed */\01239 6 \012MIRP[10100]	/* MoveIndirectRelPt */\012NPUSHW[ ]	/* 11 values pushed */\0126 39 22 39 38 39 54 39 70 39 5 \012DELTAP1[ ]	/* DeltaExceptionP1 */\012PUSHW[ ]	/* 1 value pushed */\0129 \012SRP0[ ]	/* SetRefPoint0 */\012PUSHW[ ]	/* 1 value pushed */\01256 \012MDRP[11100]	/* MoveDirectRelPt */\012SVTCA[0]	/* SetFreedomAndProjectionVectorToAxis */\012PUSHW[ ]	/* 1 value pushed */\0120 \012RCVT[ ]	/* ReadCVT */\012IF[ ]	/* If */\012PUSHW[ ]	/* 1 value pushed */\01226 \012MDAP[1]	/* MoveDirectAbsPt */\012ELSE[ ]	/* Else */\012PUSHW[ ]	/* 2 values pushed */\01226 10 \012MIAP[0]	/* MoveIndirectAbsPt */\012EIF[ ]	/* EndIf */\012PUSHW[ ]	/* 4 values pushed */\01245 1 15 4 \012CALL[ ]	/* CallFunction */\012PUSHW[ ]	/* 4 values pushed */\0124 1 51 4 \012CALL[ ]	/* CallFunction */\012PUSHW[ ]	/* 1 value pushed */\01226 \012SRP0[ ]	/* SetRefPoint0 */\012PUSHW[ ]	/* 2 values pushed */\01233 1 \012MIRP[10100]	/* MoveIndirectRelPt */\012IUP[0]	/* InterpolateUntPts */\012IUP[1]	/* InterpolateUntPts */";
};
width = 915;
}
);
note = g;
unicode = 0067;
},
{
glyphname = h;
layers = (
{
layerId = "54A34634-507D-4D60-97FE-E6568C7C6955";
paths = (
{
closed = 1;
nodes = (
"833 481 OFFCURVE",
"805 509 OFFCURVE",
"785 509 QCURVE SMOOTH",
"765 509 OFFCURVE",
"737 481 OFFCURVE",
"737 461 QCURVE SMOOTH",
"737 339 LINE",
"146 339 LINE",
"146 461 LINE SMOOTH",
"146 481 OFFCURVE",
"118 509 OFFCURVE",
"98 509 QCURVE SMOOTH",
"78 509 OFFCURVE",
"50 481 OFFCURVE",
"50 461 QCURVE SMOOTH",
"50 121 LINE SMOOTH",
"50 101 OFFCURVE",
"78 73 OFFCURVE",
"98 73 QCURVE SMOOTH",
"118 73 OFFCURVE",
"146 101 OFFCURVE",
"146 121 QCURVE SMOOTH",
"146 243 LINE",
"737 243 LINE",
"737 121 LINE SMOOTH",
"737 101 OFFCURVE",
"765 73 OFFCURVE",
"785 73 QCURVE SMOOTH",
"805 73 OFFCURVE",
"833 101 OFFCURVE",
"833 121 QCURVE SMOOTH",
"833 461 LINE SMOOTH"
);
}
);
userData = {
assembly = "PUSHW[ ]	/* 1 value pushed */\01232 \012MDAP[1]	/* MoveDirectAbsPt */\012PUSHW[ ]	/* 1 value pushed */\0126 \012MDAP[1]	/* MoveDirectAbsPt */\012PUSHW[ ]	/* 2 values pushed */\0120 6 \012MIRP[10100]	/* MoveIndirectRelPt */\012PUSHW[ ]	/* 1 value pushed */\01232 \012SRP0[ ]	/* SetRefPoint0 */\012PUSHW[ ]	/* 1 value pushed */\01215 \012MDRP[10000]	/* MoveDirectRelPt */\012PUSHW[ ]	/* 1 value pushed */\01215 \012MDAP[1]	/* MoveDirectAbsPt */\012PUSHW[ ]	/* 2 values pushed */\0129 6 \012MIRP[10100]	/* MoveIndirectRelPt */\012PUSHW[ ]	/* 1 value pushed */\01222 \012MDRP[10000]	/* MoveDirectRelPt */\012PUSHW[ ]	/* 1 value pushed */\0126 \012SRP0[ ]	/* SetRefPoint0 */\012PUSHW[ ]	/* 1 value pushed */\01224 \012MDRP[10000]	/* MoveDirectRelPt */\012PUSHW[ ]	/* 1 value pushed */\0120 \012SRP0[ ]	/* SetRefPoint0 */\012PUSHW[ ]	/* 1 value pushed */\01233 \012MDRP[11100]	/* MoveDirectRelPt */\012SVTCA[0]	/* SetFreedomAndProjectionVectorToAxis */\012PUSHW[ ]	/* 4 values pushed */\01224 1 7 4 \012CALL[ ]	/* CallFunction */\012IUP[0]	/* InterpolateUntPts */\012IUP[1]	/* InterpolateUntPts */";
};
width = 883;
}
);
note = h;
unicode = 0068;
},
{
glyphname = i;
layers = (
{
layerId = "54A34634-507D-4D60-97FE-E6568C7C6955";
paths = (
{
closed = 1;
nodes = (
"146 481 OFFCURVE",
"118 509 OFFCURVE",
"98 509 QCURVE SMOOTH",
"78 509 OFFCURVE",
"50 481 OFFCURVE",
"50 461 QCURVE SMOOTH",
"50 121 LINE SMOOTH",
"50 101 OFFCURVE",
"78 73 OFFCURVE",
"98 73 QCURVE SMOOTH",
"118 73 OFFCURVE",
"146 101 OFFCURVE",
"146 121 QCURVE SMOOTH",
"146 461 LINE SMOOTH"
);
}
);
userData = {
assembly = "PUSHW[ ]	/* 4 values pushed */\0120 6 6 4 \012CALL[ ]	/* CallFunction */\012IUP[0]	/* InterpolateUntPts */\012IUP[1]	/* InterpolateUntPts */";
};
width = 196;
}
);
note = i;
unicode = 0069;
},
{
glyphname = j;
layers = (
{
layerId = "54A34634-507D-4D60-97FE-E6568C7C6955";
paths = (
{
closed = 1;
nodes = (
"118 289 OFFCURVE",
"98 289 QCURVE SMOOTH",
"79 289 OFFCURVE",
"50 261 OFFCURVE",
"50 241 QCURVE SMOOTH",
"50 209 OFFCURVE",
"77 148 OFFCURVE",
"123 101 OFFCURVE",
"184 73 OFFCURVE",
"218 73 QCURVE SMOOTH",
"670 73 LINE SMOOTH",
"713 73 OFFCURVE",
"783 113 OFFCURVE",
"832 176 OFFCURVE",
"858 253 OFFCURVE",
"858 291 QCURVE SMOOTH",
"858 461 LINE SMOOTH",
"858 481 OFFCURVE",
"830 509 OFFCURVE",
"810 509 QCURVE SMOOTH",
"791 509 OFFCURVE",
"762 481 OFFCURVE",
"762 461 QCURVE SMOOTH",
"762 283 LINE SMOOTH",
"762 265 OFFCURVE",
"751 225 OFFCURVE",
"726 191 OFFCURVE",
"683 169 OFFCURVE",
"650 169 QCURVE SMOOTH",
"247 169 LINE SMOOTH",
"226 169 OFFCURVE",
"189 181 OFFCURVE",
"162 202 OFFCURVE",
"146 227 OFFCURVE",
"146 241 QCURVE SMOOTH",
"146 261 OFFCURVE"
);
}
);
userData = {
assembly = "PUSHW[ ]	/* 1 value pushed */\01236 \012MDAP[1]	/* MoveDirectAbsPt */\012PUSHW[ ]	/* 1 value pushed */\01211 \012MDAP[1]	/* MoveDirectAbsPt */\012PUSHW[ ]	/* 1 value pushed */\01236 \012SRP0[ ]	/* SetRefPoint0 */\012PUSHW[ ]	/* 1 value pushed */\01230 \012MDRP[10000]	/* MoveDirectRelPt */\012PUSHW[ ]	/* 1 value pushed */\01230 \012MDAP[1]	/* MoveDirectAbsPt */\012PUSHW[ ]	/* 2 values pushed */\0120 6 \012MIRP[10100]	/* MoveIndirectRelPt */\012NPUSHW[ ]	/* 11 values pushed */\0126 0 22 0 38 0 54 0 70 0 5 \012DELTAP1[ ]	/* DeltaExceptionP1 */\012PUSHW[ ]	/* 1 value pushed */\01211 \012SRP0[ ]	/* SetRefPoint0 */\012PUSHW[ ]	/* 2 values pushed */\01219 6 \012MIRP[10100]	/* MoveIndirectRelPt */\012PUSHW[ ]	/* 1 value pushed */\01237 \012MDRP[11100]	/* MoveDirectRelPt */\012SVTCA[0]	/* SetFreedomAndProjectionVectorToAxis */\012PUSHW[ ]	/* 4 values pushed */\0126 1 24 4 \012CALL[ ]	/* CallFunction */\012IUP[0]	/* InterpolateUntPts */\012IUP[1]	/* InterpolateUntPts */";
};
width = 908;
}
);
note = j;
unicode = 006A;
},
{
glyphname = k;
layers = (
{
layerId = "54A34634-507D-4D60-97FE-E6568C7C6955";
paths = (
{
closed = 1;
nodes = (
"145 481 OFFCURVE",
"117 509 OFFCURVE",
"97 509 QCURVE SMOOTH",
"78 509 OFFCURVE",
"50 481 OFFCURVE",
"50 461 QCURVE SMOOTH",
"50 121 LINE SMOOTH",
"50 101 OFFCURVE",
"78 73 OFFCURVE",
"98 73 QCURVE SMOOTH",
"117 73 OFFCURVE",
"145 101 OFFCURVE",
"145 121 QCURVE SMOOTH",
"145 243 LINE",
"376 243 LINE SMOOTH",
"428 243 OFFCURVE",
"528 217 OFFCURVE",
"621 174 OFFCURVE",
"709 117 OFFCURVE",
"750 87 QCURVE SMOOTH",
"758 81 OFFCURVE",
"776 73 OFFCURVE",
"784 73 QCURVE SMOOTH",
"804 73 OFFCURVE",
"832 101 OFFCURVE",
"832 121 QCURVE SMOOTH",
"832 135 OFFCURVE",
"816 156 OFFCURVE",
"805 164 QCURVE SMOOTH",
"779 184 OFFCURVE",
"731 218 OFFCURVE",
"683 249 OFFCURVE",
"632 277 OFFCURVE",
"603 291 QCURVE",
"632 305 OFFCURVE",
"683 333 OFFCURVE",
"731 364 OFFCURVE",
"779 398 OFFCURVE",
"805 418 QCURVE SMOOTH",
"816 426 OFFCURVE",
"832 447 OFFCURVE",
"832 461 QCURVE SMOOTH",
"832 481 OFFCURVE",
"804 509 OFFCURVE",
"784 509 QCURVE SMOOTH",
"776 509 OFFCURVE",
"758 501 OFFCURVE",
"750 495 QCURVE SMOOTH",
"710 466 OFFCURVE",
"623 410 OFFCURVE",
"528 366 OFFCURVE",
"428 339 OFFCURVE",
"376 339 QCURVE SMOOTH",
"145 339 LINE",
"145 461 LINE SMOOTH"
);
}
);
userData = {
assembly = "PUSHW[ ]	/* 4 values pushed */\01241 6 47 4 \012CALL[ ]	/* CallFunction */\012PUSHW[ ]	/* 1 value pushed */\01241 \012SRP0[ ]	/* SetRefPoint0 */\012PUSHW[ ]	/* 1 value pushed */\0120 \012MDRP[10000]	/* MoveDirectRelPt */\012SVTCA[0]	/* SetFreedomAndProjectionVectorToAxis */\012PUSHW[ ]	/* 4 values pushed */\0121 1 39 4 \012CALL[ ]	/* CallFunction */\012PUSHW[ ]	/* 3 values pushed */\01220 39 1 \012SRP1[ ]	/* SetRefPoint1 */\012SRP2[ ]	/* SetRefPoint2 */\012IP[ ]	/* InterpolatePts */\012IUP[0]	/* InterpolateUntPts */\012IUP[1]	/* InterpolateUntPts */";
};
width = 882;
}
);
note = k;
unicode = 006B;
},
{
glyphname = l;
layers = (
{
layerId = "54A34634-507D-4D60-97FE-E6568C7C6955";
paths = (
{
closed = 1;
nodes = (
"804 73 OFFCURVE",
"832 101 OFFCURVE",
"832 121 QCURVE SMOOTH",
"832 141 OFFCURVE",
"804 169 OFFCURVE",
"784 169 QCURVE SMOOTH",
"184 169 LINE SMOOTH",
"169 169 OFFCURVE",
"146 191 OFFCURVE",
"146 206 QCURVE SMOOTH",
"146 461 LINE SMOOTH",
"146 481 OFFCURVE",
"117 509 OFFCURVE",
"98 509 QCURVE SMOOTH",
"78 509 OFFCURVE",
"50 481 OFFCURVE",
"50 461 QCURVE SMOOTH",
"50 206 LINE SMOOTH",
"50 178 OFFCURVE",
"72 130 OFFCURVE",
"109 94 OFFCURVE",
"159 73 OFFCURVE",
"187 73 QCURVE SMOOTH",
"784 73 LINE SMOOTH"
);
}
);
userData = {
assembly = "PUSHW[ ]	/* 4 values pushed */\01213 6 5 4 \012CALL[ ]	/* CallFunction */\012SVTCA[0]	/* SetFreedomAndProjectionVectorToAxis */\012PUSHW[ ]	/* 4 values pushed */\01216 1 0 4 \012CALL[ ]	/* CallFunction */\012IUP[0]	/* InterpolateUntPts */\012IUP[1]	/* InterpolateUntPts */";
};
width = 882;
}
);
note = l;
unicode = 006C;
},
{
glyphname = m;
layers = (
{
layerId = "54A34634-507D-4D60-97FE-E6568C7C6955";
paths = (
{
closed = 1;
nodes = (
"894 453 OFFCURVE",
"848 509 OFFCURVE",
"808 509 QCURVE SMOOTH",
"784 509 OFFCURVE",
"744 487 OFFCURVE",
"730 468 QCURVE",
"729 468 LINE",
"500 206 LINE SMOOTH",
"495 201 OFFCURVE",
"480 190 OFFCURVE",
"472 190 QCURVE SMOOTH",
"464 190 OFFCURVE",
"449 201 OFFCURVE",
"444 206 QCURVE SMOOTH",
"214 468 LINE SMOOTH",
"198 485 OFFCURVE",
"160 509 OFFCURVE",
"136 509 QCURVE SMOOTH",
"96 509 OFFCURVE",
"50 453 OFFCURVE",
"50 413 QCURVE SMOOTH",
"50 121 LINE SMOOTH",
"50 101 OFFCURVE",
"78 73 OFFCURVE",
"98 73 QCURVE SMOOTH",
"118 73 OFFCURVE",
"146 101 OFFCURVE",
"146 121 QCURVE SMOOTH",
"146 339 LINE SMOOTH",
"146 380 OFFCURVE",
"151 380 QCURVE SMOOTH",
"156 380 OFFCURVE",
"179 353 QCURVE SMOOTH",
"399 103 LINE SMOOTH",
"412 88 OFFCURVE",
"450 73 OFFCURVE",
"472 73 QCURVE SMOOTH",
"494 73 OFFCURVE",
"532 88 OFFCURVE",
"545 103 QCURVE SMOOTH",
"765 353 LINE SMOOTH",
"789 380 OFFCURVE",
"793 380 QCURVE SMOOTH",
"798 380 OFFCURVE",
"798 339 QCURVE SMOOTH",
"798 121 LINE SMOOTH",
"798 101 OFFCURVE",
"826 73 OFFCURVE",
"846 73 QCURVE SMOOTH",
"866 73 OFFCURVE",
"894 101 OFFCURVE",
"894 121 QCURVE SMOOTH",
"894 413 LINE SMOOTH"
);
}
);
userData = {
assembly = "PUSHW[ ]	/* 1 value pushed */\01253 \012MDAP[1]	/* MoveDirectAbsPt */\012PUSHW[ ]	/* 1 value pushed */\0126 \012MDAP[1]	/* MoveDirectAbsPt */\012PUSHW[ ]	/* 2 values pushed */\0120 6 \012MIRP[10100]	/* MoveIndirectRelPt */\012PUSHW[ ]	/* 1 value pushed */\0126 \012SRP0[ ]	/* SetRefPoint0 */\012PUSHW[ ]	/* 1 value pushed */\0129 \012MDRP[10000]	/* MoveDirectRelPt */\012PUSHW[ ]	/* 1 value pushed */\0129 \012MDAP[1]	/* MoveDirectAbsPt */\012PUSHW[ ]	/* 1 value pushed */\01253 \012SRP0[ ]	/* SetRefPoint0 */\012PUSHW[ ]	/* 1 value pushed */\01230 \012MDRP[10000]	/* MoveDirectRelPt */\012PUSHW[ ]	/* 1 value pushed */\01230 \012MDAP[1]	/* MoveDirectAbsPt */\012PUSHW[ ]	/* 2 values pushed */\01224 6 \012MIRP[10100]	/* MoveIndirectRelPt */\012PUSHW[ ]	/* 1 value pushed */\01221 \012MDRP[10000]	/* MoveDirectRelPt */\012PUSHW[ ]	/* 1 value pushed */\01221 \012MDAP[1]	/* MoveDirectAbsPt */\012PUSHW[ ]	/* 1 value pushed */\0120 \012SRP0[ ]	/* SetRefPoint0 */\012PUSHW[ ]	/* 1 value pushed */\01254 \012MDRP[11100]	/* MoveDirectRelPt */\012SVTCA[0]	/* SetFreedomAndProjectionVectorToAxis */\012PUSHW[ ]	/* 4 values pushed */\01241 4 15 4 \012CALL[ ]	/* CallFunction */\012PUSHW[ ]	/* 1 value pushed */\01215 \012SRP0[ ]	/* SetRefPoint0 */\012PUSHW[ ]	/* 1 value pushed */\0123 \012MDRP[10000]	/* MoveDirectRelPt */\012PUSHW[ ]	/* 1 value pushed */\01215 \012SRP0[ ]	/* SetRefPoint0 */\012PUSHW[ ]	/* 1 value pushed */\01227 \012MDRP[10000]	/* MoveDirectRelPt */\012IUP[0]	/* InterpolateUntPts */\012IUP[1]	/* InterpolateUntPts */";
};
width = 944;
}
);
note = m;
unicode = 006D;
},
{
glyphname = n;
layers = (
{
layerId = "54A34634-507D-4D60-97FE-E6568C7C6955";
paths = (
{
closed = 1;
nodes = (
"731 228 OFFCURVE",
"723 190 OFFCURVE",
"708 190 QCURVE SMOOTH",
"700 190 OFFCURVE",
"675 203 OFFCURVE",
"656 214 QCURVE SMOOTH",
"198 494 LINE SMOOTH",
"187 501 OFFCURVE",
"160 509 OFFCURVE",
"146 509 QCURVE SMOOTH",
"104 509 OFFCURVE",
"50 454 OFFCURVE",
"50 412 QCURVE SMOOTH",
"50 121 LINE SMOOTH",
"50 101 OFFCURVE",
"78 73 OFFCURVE",
"98 73 QCURVE SMOOTH",
"118 73 OFFCURVE",
"146 101 OFFCURVE",
"146 121 QCURVE SMOOTH",
"146 318 LINE SMOOTH",
"146 354 OFFCURVE",
"154 392 OFFCURVE",
"169 392 QCURVE SMOOTH",
"177 392 OFFCURVE",
"202 379 OFFCURVE",
"221 368 QCURVE SMOOTH",
"679 88 LINE SMOOTH",
"690 81 OFFCURVE",
"717 73 OFFCURVE",
"731 73 QCURVE SMOOTH",
"773 73 OFFCURVE",
"827 128 OFFCURVE",
"827 170 QCURVE SMOOTH",
"827 461 LINE SMOOTH",
"827 481 OFFCURVE",
"799 509 OFFCURVE",
"779 509 QCURVE SMOOTH",
"759 509 OFFCURVE",
"731 481 OFFCURVE",
"731 461 QCURVE SMOOTH",
"731 264 LINE SMOOTH"
);
}
);
userData = {
assembly = "PUSHW[ ]	/* 1 value pushed */\01242 \012MDAP[1]	/* MoveDirectAbsPt */\012PUSHW[ ]	/* 1 value pushed */\0120 \012MDAP[1]	/* MoveDirectAbsPt */\012PUSHW[ ]	/* 2 values pushed */\0126 6 \012MIRP[10100]	/* MoveIndirectRelPt */\012PUSHW[ ]	/* 1 value pushed */\0120 \012SRP0[ ]	/* SetRefPoint0 */\012PUSHW[ ]	/* 1 value pushed */\01210 \012MDRP[10000]	/* MoveDirectRelPt */\012PUSHW[ ]	/* 1 value pushed */\01242 \012SRP0[ ]	/* SetRefPoint0 */\012PUSHW[ ]	/* 1 value pushed */\01227 \012MDRP[10000]	/* MoveDirectRelPt */\012PUSHW[ ]	/* 1 value pushed */\01227 \012MDAP[1]	/* MoveDirectAbsPt */\012PUSHW[ ]	/* 2 values pushed */\01221 6 \012MIRP[10100]	/* MoveIndirectRelPt */\012PUSHW[ ]	/* 1 value pushed */\01231 \012MDRP[10000]	/* MoveDirectRelPt */\012PUSHW[ ]	/* 1 value pushed */\0126 \012SRP0[ ]	/* SetRefPoint0 */\012PUSHW[ ]	/* 1 value pushed */\01243 \012MDRP[11100]	/* MoveDirectRelPt */\012SVTCA[0]	/* SetFreedomAndProjectionVectorToAxis */\012PUSHW[ ]	/* 1 value pushed */\0120 \012RCVT[ ]	/* ReadCVT */\012IF[ ]	/* If */\012PUSHW[ ]	/* 1 value pushed */\0123 \012MDAP[1]	/* MoveDirectAbsPt */\012ELSE[ ]	/* Else */\012PUSHW[ ]	/* 2 values pushed */\0123 10 \012MIAP[0]	/* MoveIndirectAbsPt */\012EIF[ ]	/* EndIf */\012PUSHW[ ]	/* 1 value pushed */\0120 \012RCVT[ ]	/* ReadCVT */\012IF[ ]	/* If */\012PUSHW[ ]	/* 1 value pushed */\01231 \012MDAP[1]	/* MoveDirectAbsPt */\012ELSE[ ]	/* Else */\012PUSHW[ ]	/* 2 values pushed */\01231 10 \012MIAP[0]	/* MoveIndirectAbsPt */\012EIF[ ]	/* EndIf */\012PUSHW[ ]	/* 4 values pushed */\01238 4 10 4 \012CALL[ ]	/* CallFunction */\012PUSHW[ ]	/* 1 value pushed */\01231 \012SRP0[ ]	/* SetRefPoint0 */\012PUSHW[ ]	/* 2 values pushed */\01217 4 \012MIRP[10100]	/* MoveIndirectRelPt */\012NPUSHW[ ]	/* 11 values pushed */\0128 17 24 17 40 17 56 17 72 17 5 \012DELTAP1[ ]	/* DeltaExceptionP1 */\012PUSHW[ ]	/* 1 value pushed */\01210 \012SRP0[ ]	/* SetRefPoint0 */\012PUSHW[ ]	/* 1 value pushed */\01224 \012MDRP[10000]	/* MoveDirectRelPt */\012IUP[0]	/* InterpolateUntPts */\012IUP[1]	/* InterpolateUntPts */";
};
width = 877;
}
);
note = n;
unicode = 006E;
},
{
glyphname = o;
layers = (
{
layerId = "54A34634-507D-4D60-97FE-E6568C7C6955";
paths = (
{
closed = 1;
nodes = (
"220 169 OFFCURVE",
"177 194 OFFCURVE",
"152 230 OFFCURVE",
"143 273 OFFCURVE",
"143 291 QCURVE SMOOTH",
"143 309 OFFCURVE",
"152 352 OFFCURVE",
"177 388 OFFCURVE",
"220 413 OFFCURVE",
"255 413 QCURVE SMOOTH",
"659 413 LINE SMOOTH",
"693 413 OFFCURVE",
"737 388 OFFCURVE",
"762 352 OFFCURVE",
"771 309 OFFCURVE",
"771 291 QCURVE SMOOTH",
"771 273 OFFCURVE",
"762 230 OFFCURVE",
"737 194 OFFCURVE",
"693 169 OFFCURVE",
"659 169 QCURVE SMOOTH",
"255 169 LINE SMOOTH"
);
},
{
closed = 1;
nodes = (
"840 406 OFFCURVE",
"795 469 OFFCURVE",
"730 509 OFFCURVE",
"690 509 QCURVE SMOOTH",
"234 509 LINE SMOOTH",
"191 509 OFFCURVE",
"123 469 OFFCURVE",
"75 406 OFFCURVE",
"50 328 OFFCURVE",
"50 291 QCURVE SMOOTH",
"50 254 OFFCURVE",
"74 176 OFFCURVE",
"119 113 OFFCURVE",
"183 73 OFFCURVE",
"224 73 QCURVE SMOOTH",
"680 73 LINE SMOOTH",
"723 73 OFFCURVE",
"791 113 OFFCURVE",
"839 176 OFFCURVE",
"864 253 OFFCURVE",
"864 291 QCURVE SMOOTH",
"864 328 OFFCURVE"
);
}
);
userData = {
assembly = "PUSHW[ ]	/* 1 value pushed */\01244 \012MDAP[1]	/* MoveDirectAbsPt */\012PUSHW[ ]	/* 1 value pushed */\0125 \012MDAP[1]	/* MoveDirectAbsPt */\012NPUSHW[ ]	/* 11 values pushed */\0129 5 25 5 41 5 57 5 73 5 5 \012DELTAP1[ ]	/* DeltaExceptionP1 */\012PUSHW[ ]	/* 1 value pushed */\01244 \012SRP0[ ]	/* SetRefPoint0 */\012PUSHW[ ]	/* 1 value pushed */\01233 \012MDRP[10000]	/* MoveDirectRelPt */\012PUSHW[ ]	/* 1 value pushed */\01233 \012MDAP[1]	/* MoveDirectAbsPt */\012PUSHW[ ]	/* 2 values pushed */\01216 6 \012MIRP[10100]	/* MoveIndirectRelPt */\012NPUSHW[ ]	/* 11 values pushed */\0126 16 22 16 38 16 54 16 70 16 5 \012DELTAP1[ ]	/* DeltaExceptionP1 */\012PUSHW[ ]	/* 1 value pushed */\0125 \012SRP0[ ]	/* SetRefPoint0 */\012PUSHW[ ]	/* 2 values pushed */\01222 6 \012MIRP[10100]	/* MoveIndirectRelPt */\012PUSHW[ ]	/* 1 value pushed */\01245 \012MDRP[11100]	/* MoveDirectRelPt */\012SVTCA[0]	/* SetFreedomAndProjectionVectorToAxis */\012PUSHW[ ]	/* 1 value pushed */\0120 \012RCVT[ ]	/* ReadCVT */\012IF[ ]	/* If */\012PUSHW[ ]	/* 1 value pushed */\01238 \012MDAP[1]	/* MoveDirectAbsPt */\012ELSE[ ]	/* Else */\012PUSHW[ ]	/* 2 values pushed */\01238 10 \012MIAP[0]	/* MoveIndirectAbsPt */\012EIF[ ]	/* EndIf */\012PUSHW[ ]	/* 4 values pushed */\0120 1 27 4 \012CALL[ ]	/* CallFunction */\012PUSHW[ ]	/* 1 value pushed */\01238 \012SRP0[ ]	/* SetRefPoint0 */\012PUSHW[ ]	/* 2 values pushed */\01210 1 \012MIRP[10100]	/* MoveIndirectRelPt */\012IUP[0]	/* InterpolateUntPts */\012IUP[1]	/* InterpolateUntPts */";
};
width = 914;
}
);
note = o;
unicode = 006F;
},
{
glyphname = p;
layers = (
{
layerId = "54A34634-507D-4D60-97FE-E6568C7C6955";
paths = (
{
closed = 1;
nodes = (
"78 413 OFFCURVE",
"98 413 QCURVE SMOOTH",
"701 413 LINE SMOOTH",
"716 413 OFFCURVE",
"739 391 OFFCURVE",
"739 376 QCURVE SMOOTH",
"739 360 OFFCURVE",
"716 339 OFFCURVE",
"701 339 QCURVE SMOOTH",
"170 339 LINE SMOOTH",
"144 339 OFFCURVE",
"101 320 OFFCURVE",
"68 287 OFFCURVE",
"50 242 OFFCURVE",
"50 217 QCURVE SMOOTH",
"50 121 LINE SMOOTH",
"50 101 OFFCURVE",
"78 73 OFFCURVE",
"98 73 QCURVE SMOOTH",
"117 73 OFFCURVE",
"146 101 OFFCURVE",
"146 121 QCURVE SMOOTH",
"146 206 LINE SMOOTH",
"146 221 OFFCURVE",
"164 241 OFFCURVE",
"177 243 QCURVE",
"697 243 LINE SMOOTH",
"725 243 OFFCURVE",
"774 264 OFFCURVE",
"811 300 OFFCURVE",
"832 348 OFFCURVE",
"832 376 QCURVE SMOOTH",
"832 404 OFFCURVE",
"811 452 OFFCURVE",
"774 488 OFFCURVE",
"725 509 OFFCURVE",
"697 509 QCURVE SMOOTH",
"98 509 LINE SMOOTH",
"78 509 OFFCURVE",
"50 481 OFFCURVE",
"50 461 QCURVE SMOOTH",
"50 441 OFFCURVE"
);
}
);
userData = {
assembly = "PUSHW[ ]	/* 1 value pushed */\01242 \012MDAP[1]	/* MoveDirectAbsPt */\012PUSHW[ ]	/* 1 value pushed */\01235 \012MDAP[1]	/* MoveDirectAbsPt */\012PUSHW[ ]	/* 1 value pushed */\01242 \012SRP0[ ]	/* SetRefPoint0 */\012PUSHW[ ]	/* 1 value pushed */\01226 \012MDRP[10000]	/* MoveDirectRelPt */\012PUSHW[ ]	/* 1 value pushed */\01226 \012MDAP[1]	/* MoveDirectAbsPt */\012PUSHW[ ]	/* 1 value pushed */\0120 \012MDRP[10000]	/* MoveDirectRelPt */\012NPUSHW[ ]	/* 11 values pushed */\0129 35 25 35 41 35 57 35 73 35 5 \012DELTAP1[ ]	/* DeltaExceptionP1 */\012PUSHW[ ]	/* 1 value pushed */\01235 \012SRP0[ ]	/* SetRefPoint0 */\012PUSHW[ ]	/* 2 values pushed */\0129 6 \012MIRP[10100]	/* MoveIndirectRelPt */\012PUSHW[ ]	/* 1 value pushed */\01226 \012SRP0[ ]	/* SetRefPoint0 */\012PUSHW[ ]	/* 2 values pushed */\01218 6 \012MIRP[10100]	/* MoveIndirectRelPt */\012PUSHW[ ]	/* 1 value pushed */\0129 \012SRP0[ ]	/* SetRefPoint0 */\012PUSHW[ ]	/* 1 value pushed */\01243 \012MDRP[11100]	/* MoveDirectRelPt */\012SVTCA[0]	/* SetFreedomAndProjectionVectorToAxis */\012PUSHW[ ]	/* 1 value pushed */\0120 \012RCVT[ ]	/* ReadCVT */\012IF[ ]	/* If */\012PUSHW[ ]	/* 1 value pushed */\0123 \012MDAP[1]	/* MoveDirectAbsPt */\012ELSE[ ]	/* Else */\012PUSHW[ ]	/* 2 values pushed */\0123 10 \012MIAP[0]	/* MoveIndirectAbsPt */\012EIF[ ]	/* EndIf */\012PUSHW[ ]	/* 4 values pushed */\01232 1 14 4 \012CALL[ ]	/* CallFunction */\012PUSHW[ ]	/* 1 value pushed */\0123 \012SRP0[ ]	/* SetRefPoint0 */\012PUSHW[ ]	/* 2 values pushed */\01238 1 \012MIRP[10100]	/* MoveIndirectRelPt */\012IUP[0]	/* InterpolateUntPts */\012IUP[1]	/* InterpolateUntPts */";
};
width = 882;
}
);
note = p;
unicode = 0070;
},
{
glyphname = q;
layers = (
{
layerId = "54A34634-507D-4D60-97FE-E6568C7C6955";
paths = (
{
closed = 1;
nodes = (
"555 264 OFFCURVE",
"526 292 OFFCURVE",
"507 292 QCURVE SMOOTH",
"487 292 OFFCURVE",
"459 264 OFFCURVE",
"459 244 QCURVE SMOOTH",
"459 195 LINE SMOOTH",
"459 169 OFFCURVE",
"477 125 OFFCURVE",
"510 92 OFFCURVE",
"553 73 OFFCURVE",
"579 73 QCURVE SMOOTH",
"680 73 LINE SMOOTH",
"723 73 OFFCURVE",
"791 113 OFFCURVE",
"839 176 OFFCURVE",
"864 253 OFFCURVE",
"864 291 QCURVE SMOOTH",
"864 328 OFFCURVE",
"840 406 OFFCURVE",
"795 469 OFFCURVE",
"730 509 OFFCURVE",
"690 509 QCURVE SMOOTH",
"234 509 LINE SMOOTH",
"191 509 OFFCURVE",
"123 469 OFFCURVE",
"75 406 OFFCURVE",
"50 328 OFFCURVE",
"50 291 QCURVE SMOOTH",
"50 254 OFFCURVE",
"74 176 OFFCURVE",
"119 113 OFFCURVE",
"183 73 OFFCURVE",
"224 73 QCURVE SMOOTH",
"341 73 LINE",
"341 74 LINE",
"361 74 OFFCURVE",
"389 102 OFFCURVE",
"389 122 QCURVE SMOOTH",
"389 142 OFFCURVE",
"361 169 OFFCURVE",
"341 169 QCURVE SMOOTH",
"255 169 LINE SMOOTH",
"220 169 OFFCURVE",
"177 194 OFFCURVE",
"152 230 OFFCURVE",
"143 273 OFFCURVE",
"143 291 QCURVE SMOOTH",
"143 309 OFFCURVE",
"152 352 OFFCURVE",
"177 388 OFFCURVE",
"220 413 OFFCURVE",
"255 413 QCURVE SMOOTH",
"659 413 LINE SMOOTH",
"693 413 OFFCURVE",
"737 388 OFFCURVE",
"762 352 OFFCURVE",
"771 309 OFFCURVE",
"771 291 QCURVE SMOOTH",
"771 273 OFFCURVE",
"762 230 OFFCURVE",
"737 194 OFFCURVE",
"693 169 OFFCURVE",
"659 169 QCURVE SMOOTH",
"584 169 LINE",
"572 171 OFFCURVE",
"555 191 OFFCURVE",
"555 206 QCURVE SMOOTH",
"555 244 LINE SMOOTH"
);
}
);
userData = {
assembly = "PUSHW[ ]	/* 4 values pushed */\01220 6 39 4 \012CALL[ ]	/* CallFunction */\012PUSHW[ ]	/* 4 values pushed */\0120 6 61 4 \012CALL[ ]	/* CallFunction */\012PUSHW[ ]	/* 4 values pushed */\01250 6 9 4 \012CALL[ ]	/* CallFunction */\012NPUSHW[ ]	/* 11 values pushed */\0129 9 25 9 41 9 57 9 73 9 5 \012DELTAP1[ ]	/* DeltaExceptionP1 */\012NPUSHW[ ]	/* 11 values pushed */\0126 20 22 20 38 20 54 20 70 20 5 \012DELTAP1[ ]	/* DeltaExceptionP1 */\012PUSHW[ ]	/* 1 value pushed */\01250 \012SRP0[ ]	/* SetRefPoint0 */\012PUSHW[ ]	/* 1 value pushed */\01270 \012MDRP[11100]	/* MoveDirectRelPt */\012SVTCA[0]	/* SetFreedomAndProjectionVectorToAxis */\012PUSHW[ ]	/* 1 value pushed */\0120 \012RCVT[ ]	/* ReadCVT */\012IF[ ]	/* If */\012PUSHW[ ]	/* 1 value pushed */\01244 \012MDAP[1]	/* MoveDirectAbsPt */\012ELSE[ ]	/* Else */\012PUSHW[ ]	/* 2 values pushed */\01244 10 \012MIAP[0]	/* MoveIndirectAbsPt */\012EIF[ ]	/* EndIf */\012PUSHW[ ]	/* 4 values pushed */\01226 1 33 4 \012CALL[ ]	/* CallFunction */\012PUSHW[ ]	/* 1 value pushed */\01226 \012SRP0[ ]	/* SetRefPoint0 */\012PUSHW[ ]	/* 1 value pushed */\0123 \012MDRP[10000]	/* MoveDirectRelPt */\012PUSHW[ ]	/* 1 value pushed */\01244 \012SRP0[ ]	/* SetRefPoint0 */\012PUSHW[ ]	/* 2 values pushed */\01214 1 \012MIRP[10100]	/* MoveIndirectRelPt */\012PUSHW[ ]	/* 1 value pushed */\01233 \012SRP0[ ]	/* SetRefPoint0 */\012PUSHW[ ]	/* 1 value pushed */\01255 \012MDRP[10000]	/* MoveDirectRelPt */\012IUP[0]	/* InterpolateUntPts */\012IUP[1]	/* InterpolateUntPts */";
};
width = 914;
}
);
note = q;
unicode = 0071;
},
{
glyphname = r;
layers = (
{
layerId = "54A34634-507D-4D60-97FE-E6568C7C6955";
paths = (
{
closed = 1;
nodes = (
"725 243 OFFCURVE",
"774 264 OFFCURVE",
"811 300 OFFCURVE",
"832 348 OFFCURVE",
"832 376 QCURVE SMOOTH",
"832 404 OFFCURVE",
"811 452 OFFCURVE",
"774 488 OFFCURVE",
"725 509 OFFCURVE",
"697 509 QCURVE SMOOTH",
"98 509 LINE SMOOTH",
"78 509 OFFCURVE",
"50 481 OFFCURVE",
"50 461 QCURVE SMOOTH",
"50 441 OFFCURVE",
"78 413 OFFCURVE",
"98 413 QCURVE SMOOTH",
"701 413 LINE SMOOTH",
"716 413 OFFCURVE",
"739 391 OFFCURVE",
"739 376 QCURVE SMOOTH",
"739 360 OFFCURVE",
"716 339 OFFCURVE",
"701 339 QCURVE SMOOTH",
"171 339 LINE SMOOTH",
"145 339 OFFCURVE",
"101 320 OFFCURVE",
"69 287 OFFCURVE",
"50 242 OFFCURVE",
"50 217 QCURVE SMOOTH",
"50 121 LINE SMOOTH",
"50 101 OFFCURVE",
"78 73 OFFCURVE",
"98 73 QCURVE SMOOTH",
"117 73 OFFCURVE",
"146 101 OFFCURVE",
"146 121 QCURVE SMOOTH",
"146 206 LINE SMOOTH",
"146 221 OFFCURVE",
"164 241 OFFCURVE",
"177 243 QCURVE",
"376 243 LINE SMOOTH",
"430 243 OFFCURVE",
"530 217 OFFCURVE",
"623 174 OFFCURVE",
"709 117 OFFCURVE",
"750 87 QCURVE SMOOTH",
"758 81 OFFCURVE",
"776 73 OFFCURVE",
"784 73 QCURVE SMOOTH",
"804 73 OFFCURVE",
"832 101 OFFCURVE",
"832 121 QCURVE SMOOTH",
"832 135 OFFCURVE",
"816 156 OFFCURVE",
"805 164 QCURVE SMOOTH",
"776 187 OFFCURVE",
"720 226 OFFCURVE",
"693 243 QCURVE",
"697 243 LINE SMOOTH"
);
}
);
userData = {
assembly = "PUSHW[ ]	/* 1 value pushed */\01260 \012MDAP[1]	/* MoveDirectAbsPt */\012PUSHW[ ]	/* 1 value pushed */\01238 \012MDAP[1]	/* MoveDirectAbsPt */\012PUSHW[ ]	/* 1 value pushed */\01260 \012SRP0[ ]	/* SetRefPoint0 */\012PUSHW[ ]	/* 1 value pushed */\01228 \012MDRP[10000]	/* MoveDirectRelPt */\012PUSHW[ ]	/* 1 value pushed */\01228 \012MDAP[1]	/* MoveDirectAbsPt */\012NPUSHW[ ]	/* 11 values pushed */\0129 38 25 38 41 38 57 38 73 38 5 \012DELTAP1[ ]	/* DeltaExceptionP1 */\012PUSHW[ ]	/* 1 value pushed */\01238 \012SRP0[ ]	/* SetRefPoint0 */\012PUSHW[ ]	/* 2 values pushed */\01254 6 \012MIRP[10100]	/* MoveIndirectRelPt */\012PUSHW[ ]	/* 3 values pushed */\0120 28 54 \012SRP1[ ]	/* SetRefPoint1 */\012SRP2[ ]	/* SetRefPoint2 */\012IP[ ]	/* InterpolatePts */\012PUSHW[ ]	/* 1 value pushed */\0126 \012MDRP[10000]	/* MoveDirectRelPt */\012PUSHW[ ]	/* 1 value pushed */\01228 \012SRP0[ ]	/* SetRefPoint0 */\012PUSHW[ ]	/* 2 values pushed */\01222 6 \012MIRP[10100]	/* MoveIndirectRelPt */\012PUSHW[ ]	/* 1 value pushed */\01228 \012SRP0[ ]	/* SetRefPoint0 */\012PUSHW[ ]	/* 1 value pushed */\01245 \012MDRP[10000]	/* MoveDirectRelPt */\012PUSHW[ ]	/* 1 value pushed */\01254 \012SRP0[ ]	/* SetRefPoint0 */\012PUSHW[ ]	/* 1 value pushed */\01261 \012MDRP[11100]	/* MoveDirectRelPt */\012SVTCA[0]	/* SetFreedomAndProjectionVectorToAxis */\012PUSHW[ ]	/* 1 value pushed */\0120 \012RCVT[ ]	/* ReadCVT */\012IF[ ]	/* If */\012PUSHW[ ]	/* 1 value pushed */\01248 \012MDAP[1]	/* MoveDirectAbsPt */\012ELSE[ ]	/* Else */\012PUSHW[ ]	/* 2 values pushed */\01248 10 \012MIAP[0]	/* MoveIndirectAbsPt */\012EIF[ ]	/* EndIf */\012PUSHW[ ]	/* 4 values pushed */\01235 1 59 4 \012CALL[ ]	/* CallFunction */\012PUSHW[ ]	/* 1 value pushed */\01259 \012SRP0[ ]	/* SetRefPoint0 */\012PUSHW[ ]	/* 1 value pushed */\01217 \012MDRP[10000]	/* MoveDirectRelPt */\012PUSHW[ ]	/* 1 value pushed */\01248 \012SRP0[ ]	/* SetRefPoint0 */\012PUSHW[ ]	/* 2 values pushed */\01241 1 \012MIRP[10100]	/* MoveIndirectRelPt */\012IUP[0]	/* InterpolateUntPts */\012IUP[1]	/* InterpolateUntPts */";
};
width = 882;
}
);
note = r;
unicode = 0072;
},
{
glyphname = s;
layers = (
{
layerId = "54A34634-507D-4D60-97FE-E6568C7C6955";
paths = (
{
closed = 1;
nodes = (
"753 243 OFFCURVE",
"775 221 OFFCURVE",
"775 205 QCURVE SMOOTH",
"775 190 OFFCURVE",
"753 169 OFFCURVE",
"738 169 QCURVE SMOOTH",
"128 169 LINE SMOOTH",
"108 169 OFFCURVE",
"80 141 OFFCURVE",
"80 121 QCURVE SMOOTH",
"80 101 OFFCURVE",
"108 73 OFFCURVE",
"128 73 QCURVE SMOOTH",
"734 73 LINE SMOOTH",
"762 73 OFFCURVE",
"811 93 OFFCURVE",
"847 129 OFFCURVE",
"868 177 OFFCURVE",
"868 205 QCURVE SMOOTH",
"868 233 OFFCURVE",
"847 282 OFFCURVE",
"811 318 OFFCURVE",
"762 339 OFFCURVE",
"734 339 QCURVE SMOOTH",
"181 339 LINE SMOOTH",
"166 339 OFFCURVE",
"143 361 OFFCURVE",
"143 376 QCURVE SMOOTH",
"143 392 OFFCURVE",
"166 413 OFFCURVE",
"181 413 QCURVE SMOOTH",
"790 413 LINE SMOOTH",
"810 413 OFFCURVE",
"838 441 OFFCURVE",
"838 461 QCURVE SMOOTH",
"838 481 OFFCURVE",
"810 509 OFFCURVE",
"790 509 QCURVE SMOOTH",
"183 509 LINE SMOOTH",
"155 509 OFFCURVE",
"107 488 OFFCURVE",
"71 452 OFFCURVE",
"50 404 OFFCURVE",
"50 376 QCURVE SMOOTH",
"50 348 OFFCURVE",
"71 300 OFFCURVE",
"107 264 OFFCURVE",
"155 243 OFFCURVE",
"183 243 QCURVE SMOOTH",
"738 243 LINE SMOOTH"
);
}
);
userData = {
assembly = "PUSHW[ ]	/* 1 value pushed */\01250 \012MDAP[1]	/* MoveDirectAbsPt */\012PUSHW[ ]	/* 1 value pushed */\01246 \012MDAP[1]	/* MoveDirectAbsPt */\012PUSHW[ ]	/* 1 value pushed */\01250 \012SRP0[ ]	/* SetRefPoint0 */\012PUSHW[ ]	/* 1 value pushed */\0125 \012MDRP[10000]	/* MoveDirectRelPt */\012PUSHW[ ]	/* 1 value pushed */\0125 \012MDAP[1]	/* MoveDirectAbsPt */\012PUSHW[ ]	/* 2 values pushed */\01221 6 \012MIRP[10100]	/* MoveIndirectRelPt */\012NPUSHW[ ]	/* 11 values pushed */\0126 21 22 21 38 21 54 21 70 21 5 \012DELTAP1[ ]	/* DeltaExceptionP1 */\012NPUSHW[ ]	/* 11 values pushed */\0129 46 25 46 41 46 57 46 73 46 5 \012DELTAP1[ ]	/* DeltaExceptionP1 */\012PUSHW[ ]	/* 1 value pushed */\01246 \012SRP0[ ]	/* SetRefPoint0 */\012PUSHW[ ]	/* 2 values pushed */\01230 6 \012MIRP[10100]	/* MoveIndirectRelPt */\012PUSHW[ ]	/* 1 value pushed */\01251 \012MDRP[11100]	/* MoveDirectRelPt */\012SVTCA[0]	/* SetFreedomAndProjectionVectorToAxis */\012PUSHW[ ]	/* 1 value pushed */\0120 \012RCVT[ ]	/* ReadCVT */\012IF[ ]	/* If */\012PUSHW[ ]	/* 1 value pushed */\01210 \012MDAP[1]	/* MoveDirectAbsPt */\012ELSE[ ]	/* Else */\012PUSHW[ ]	/* 2 values pushed */\01210 10 \012MIAP[0]	/* MoveIndirectAbsPt */\012EIF[ ]	/* EndIf */\012PUSHW[ ]	/* 4 values pushed */\01243 1 35 4 \012CALL[ ]	/* CallFunction */\012PUSHW[ ]	/* 4 values pushed */\01224 1 0 4 \012CALL[ ]	/* CallFunction */\012PUSHW[ ]	/* 1 value pushed */\01210 \012SRP0[ ]	/* SetRefPoint0 */\012PUSHW[ ]	/* 2 values pushed */\01217 1 \012MIRP[10100]	/* MoveIndirectRelPt */\012IUP[0]	/* InterpolateUntPts */\012IUP[1]	/* InterpolateUntPts */";
};
width = 918;
}
);
note = s;
unicode = 0073;
},
{
glyphname = t;
layers = (
{
layerId = "54A34634-507D-4D60-97FE-E6568C7C6955";
paths = (
{
closed = 1;
nodes = (
"78 509 OFFCURVE",
"50 481 OFFCURVE",
"50 461 QCURVE SMOOTH",
"50 442 OFFCURVE",
"76 415 OFFCURVE",
"94 413 QCURVE",
"394 413 LINE",
"394 121 LINE SMOOTH",
"394 101 OFFCURVE",
"422 73 OFFCURVE",
"442 73 QCURVE SMOOTH",
"462 73 OFFCURVE",
"490 101 OFFCURVE",
"490 121 QCURVE SMOOTH",
"490 413 LINE",
"786 413 LINE SMOOTH",
"806 413 OFFCURVE",
"834 441 OFFCURVE",
"834 461 QCURVE SMOOTH",
"834 481 OFFCURVE",
"806 509 OFFCURVE",
"786 509 QCURVE SMOOTH",
"98 509 LINE SMOOTH"
);
}
);
userData = {
assembly = "PUSHW[ ]	/* 4 values pushed */\0128 6 14 4 \012CALL[ ]	/* CallFunction */\012SVTCA[0]	/* SetFreedomAndProjectionVectorToAxis */\012PUSHW[ ]	/* 1 value pushed */\0120 \012RCVT[ ]	/* ReadCVT */\012IF[ ]	/* If */\012PUSHW[ ]	/* 1 value pushed */\0120 \012MDAP[1]	/* MoveDirectAbsPt */\012ELSE[ ]	/* Else */\012PUSHW[ ]	/* 2 values pushed */\0120 10 \012MIAP[0]	/* MoveIndirectAbsPt */\012EIF[ ]	/* EndIf */\012PUSHW[ ]	/* 2 values pushed */\0126 1 \012MIRP[10100]	/* MoveIndirectRelPt */\012PUSHW[ ]	/* 1 value pushed */\01215 \012MDRP[10000]	/* MoveDirectRelPt */\012PUSHW[ ]	/* 1 value pushed */\01216 \012MDRP[10000]	/* MoveDirectRelPt */\012IUP[0]	/* InterpolateUntPts */\012IUP[1]	/* InterpolateUntPts */";
};
width = 884;
}
);
note = t;
unicode = 0074;
},
{
glyphname = u;
layers = (
{
layerId = "54A34634-507D-4D60-97FE-E6568C7C6955";
paths = (
{
closed = 1;
nodes = (
"146 480 OFFCURVE",
"118 508 OFFCURVE",
"98 508 QCURVE SMOOTH",
"78 508 OFFCURVE",
"50 480 OFFCURVE",
"50 460 QCURVE SMOOTH",
"50 291 LINE SMOOTH",
"50 254 OFFCURVE",
"74 176 OFFCURVE",
"119 113 OFFCURVE",
"183 73 OFFCURVE",
"224 73 QCURVE SMOOTH",
"680 73 LINE SMOOTH",
"723 73 OFFCURVE",
"791 113 OFFCURVE",
"839 176 OFFCURVE",
"864 253 OFFCURVE",
"864 291 QCURVE SMOOTH",
"864 460 LINE SMOOTH",
"864 480 OFFCURVE",
"836 508 OFFCURVE",
"816 508 QCURVE SMOOTH",
"796 508 OFFCURVE",
"768 480 OFFCURVE",
"768 460 QCURVE SMOOTH",
"768 291 LINE SMOOTH",
"768 273 OFFCURVE",
"759 230 OFFCURVE",
"734 194 OFFCURVE",
"690 169 OFFCURVE",
"656 169 QCURVE SMOOTH",
"258 169 LINE SMOOTH",
"223 169 OFFCURVE",
"180 194 OFFCURVE",
"155 230 OFFCURVE",
"146 273 OFFCURVE",
"146 291 QCURVE SMOOTH",
"146 460 LINE SMOOTH"
);
}
);
userData = {
assembly = "PUSHW[ ]	/* 1 value pushed */\01238 \012MDAP[1]	/* MoveDirectAbsPt */\012PUSHW[ ]	/* 1 value pushed */\01211 \012MDAP[1]	/* MoveDirectAbsPt */\012PUSHW[ ]	/* 1 value pushed */\01238 \012SRP0[ ]	/* SetRefPoint0 */\012PUSHW[ ]	/* 1 value pushed */\01230 \012MDRP[10000]	/* MoveDirectRelPt */\012PUSHW[ ]	/* 1 value pushed */\01230 \012MDAP[1]	/* MoveDirectAbsPt */\012PUSHW[ ]	/* 2 values pushed */\0120 6 \012MIRP[10100]	/* MoveIndirectRelPt */\012PUSHW[ ]	/* 1 value pushed */\01211 \012SRP0[ ]	/* SetRefPoint0 */\012PUSHW[ ]	/* 2 values pushed */\01219 6 \012MIRP[10100]	/* MoveIndirectRelPt */\012PUSHW[ ]	/* 1 value pushed */\01239 \012MDRP[11100]	/* MoveDirectRelPt */\012SVTCA[0]	/* SetFreedomAndProjectionVectorToAxis */\012PUSHW[ ]	/* 4 values pushed */\0126 1 24 4 \012CALL[ ]	/* CallFunction */\012IUP[0]	/* InterpolateUntPts */\012IUP[1]	/* InterpolateUntPts */";
};
width = 914;
}
);
note = u;
unicode = 0075;
},
{
glyphname = v;
layers = (
{
layerId = "54A34634-507D-4D60-97FE-E6568C7C6955";
paths = (
{
closed = 1;
nodes = (
"440 171 OFFCURVE",
"419 152 OFFCURVE",
"408 152 QCURVE SMOOTH",
"397 152 OFFCURVE",
"376 171 OFFCURVE",
"369 179 QCURVE SMOOTH",
"136 490 LINE SMOOTH",
"123 509 OFFCURVE",
"98 509 QCURVE SMOOTH",
"78 509 OFFCURVE",
"50 481 OFFCURVE",
"50 461 QCURVE SMOOTH",
"50 451 OFFCURVE",
"59 435 OFFCURVE",
"64 427 QCURVE",
"307 102 LINE SMOOTH",
"324 79 OFFCURVE",
"378 53 OFFCURVE",
"408 53 QCURVE SMOOTH",
"440 53 OFFCURVE",
"496 82 OFFCURVE",
"513 105 QCURVE SMOOTH",
"755 431 LINE",
"756 432 LINE SMOOTH",
"766 442 OFFCURVE",
"766 461 QCURVE SMOOTH",
"766 481 OFFCURVE",
"738 509 OFFCURVE",
"718 509 QCURVE SMOOTH",
"694 509 OFFCURVE",
"681 491 QCURVE SMOOTH",
"446 179 LINE SMOOTH"
);
}
);
userData = {
assembly = "SVTCA[0]	/* SetFreedomAndProjectionVectorToAxis */\012PUSHW[ ]	/* 1 value pushed */\0120 \012RCVT[ ]	/* ReadCVT */\012IF[ ]	/* If */\012PUSHW[ ]	/* 1 value pushed */\0122 \012MDAP[1]	/* MoveDirectAbsPt */\012ELSE[ ]	/* Else */\012PUSHW[ ]	/* 2 values pushed */\0122 10 \012MIAP[0]	/* MoveIndirectAbsPt */\012EIF[ ]	/* EndIf */\012PUSHW[ ]	/* 1 value pushed */\0120 \012RCVT[ ]	/* ReadCVT */\012IF[ ]	/* If */\012PUSHW[ ]	/* 1 value pushed */\01222 \012MDAP[1]	/* MoveDirectAbsPt */\012ELSE[ ]	/* Else */\012PUSHW[ ]	/* 2 values pushed */\01222 10 \012MIAP[0]	/* MoveIndirectAbsPt */\012EIF[ ]	/* EndIf */\012PUSHW[ ]	/* 4 values pushed */\01228 1 12 4 \012CALL[ ]	/* CallFunction */\012IUP[0]	/* InterpolateUntPts */\012IUP[1]	/* InterpolateUntPts */";
};
width = 816;
}
);
note = v;
unicode = 0076;
},
{
glyphname = w;
layers = (
{
layerId = "54A34634-507D-4D60-97FE-E6568C7C6955";
paths = (
{
closed = 1;
nodes = (
"50 253 OFFCURVE",
"74 176 OFFCURVE",
"119 113 OFFCURVE",
"183 73 OFFCURVE",
"224 73 QCURVE SMOOTH",
"778 73 LINE SMOOTH",
"821 73 OFFCURVE",
"889 113 OFFCURVE",
"937 176 OFFCURVE",
"962 253 OFFCURVE",
"962 291 QCURVE SMOOTH",
"962 461 LINE SMOOTH",
"962 481 OFFCURVE",
"934 509 OFFCURVE",
"914 509 QCURVE SMOOTH",
"894 509 OFFCURVE",
"866 481 OFFCURVE",
"866 461 QCURVE SMOOTH",
"866 291 LINE SMOOTH",
"866 273 OFFCURVE",
"857 230 OFFCURVE",
"832 194 OFFCURVE",
"788 169 OFFCURVE",
"754 169 QCURVE SMOOTH",
"659 169 LINE SMOOTH",
"627 169 OFFCURVE",
"586 194 OFFCURVE",
"563 231 OFFCURVE",
"554 273 OFFCURVE",
"554 291 QCURVE SMOOTH",
"554 461 LINE SMOOTH",
"554 481 OFFCURVE",
"526 509 OFFCURVE",
"506 509 QCURVE SMOOTH",
"486 509 OFFCURVE",
"458 481 OFFCURVE",
"458 461 QCURVE SMOOTH",
"458 291 LINE SMOOTH",
"458 260 OFFCURVE",
"474 197 OFFCURVE",
"490 169 QCURVE",
"258 169 LINE SMOOTH",
"223 169 OFFCURVE",
"180 194 OFFCURVE",
"155 230 OFFCURVE",
"146 273 OFFCURVE",
"146 291 QCURVE SMOOTH",
"146 461 LINE SMOOTH",
"146 481 OFFCURVE",
"118 509 OFFCURVE",
"98 509 QCURVE SMOOTH",
"78 509 OFFCURVE",
"50 481 OFFCURVE",
"50 461 QCURVE SMOOTH",
"50 291 LINE SMOOTH"
);
}
);
userData = {
assembly = "PUSHW[ ]	/* 1 value pushed */\01255 \012MDAP[1]	/* MoveDirectAbsPt */\012PUSHW[ ]	/* 1 value pushed */\0120 \012MDRP[10000]	/* MoveDirectRelPt */\012PUSHW[ ]	/* 1 value pushed */\0120 \012MDAP[1]	/* MoveDirectAbsPt */\012PUSHW[ ]	/* 2 values pushed */\0126 6 \012MIRP[10100]	/* MoveIndirectRelPt */\012PUSHW[ ]	/* 1 value pushed */\0120 \012SRP0[ ]	/* SetRefPoint0 */\012PUSHW[ ]	/* 1 value pushed */\01216 \012MDRP[11100]	/* MoveDirectRelPt */\012NPUSHW[ ]	/* 3 values pushed */\01280 16 1 \012DELTAP1[ ]	/* DeltaExceptionP1 */\012NPUSHW[ ]	/* 3 values pushed */\012239 16 1 \012DELTAP1[ ]	/* DeltaExceptionP1 */\012NPUSHW[ ]	/* 3 values pushed */\012112 16 1 \012DELTAP1[ ]	/* DeltaExceptionP1 */\012NPUSHW[ ]	/* 3 values pushed */\012192 16 1 \012DELTAP1[ ]	/* DeltaExceptionP1 */\012PUSHW[ ]	/* 2 values pushed */\01224 6 \012MIRP[10100]	/* MoveIndirectRelPt */\012PUSHW[ ]	/* 3 values pushed */\01213 16 24 \012SRP1[ ]	/* SetRefPoint1 */\012SRP2[ ]	/* SetRefPoint2 */\012IP[ ]	/* InterpolatePts */\012PUSHW[ ]	/* 1 value pushed */\01216 \012SRP0[ ]	/* SetRefPoint0 */\012PUSHW[ ]	/* 1 value pushed */\01235 \012MDRP[11100]	/* MoveDirectRelPt */\012NPUSHW[ ]	/* 3 values pushed */\012192 35 1 \012DELTAP1[ ]	/* DeltaExceptionP1 */\012NPUSHW[ ]	/* 3 values pushed */\012239 35 1 \012DELTAP1[ ]	/* DeltaExceptionP1 */\012NPUSHW[ ]	/* 3 values pushed */\012112 35 1 \012DELTAP1[ ]	/* DeltaExceptionP1 */\012NPUSHW[ ]	/* 3 values pushed */\01280 35 1 \012DELTAP1[ ]	/* DeltaExceptionP1 */\012PUSHW[ ]	/* 2 values pushed */\01243 6 \012MIRP[10100]	/* MoveIndirectRelPt */\012PUSHW[ ]	/* 1 value pushed */\01256 \012MDRP[11100]	/* MoveDirectRelPt */\012SVTCA[0]	/* SetFreedomAndProjectionVectorToAxis */\012PUSHW[ ]	/* 4 values pushed */\01230 1 48 4 \012CALL[ ]	/* CallFunction */\012PUSHW[ ]	/* 1 value pushed */\01230 \012SRP0[ ]	/* SetRefPoint0 */\012PUSHW[ ]	/* 1 value pushed */\01212 \012MDRP[10000]	/* MoveDirectRelPt */\012IUP[0]	/* InterpolateUntPts */\012IUP[1]	/* InterpolateUntPts */";
};
width = 1012;
}
);
note = w;
unicode = 0077;
},
{
glyphname = x;
layers = (
{
layerId = "54A34634-507D-4D60-97FE-E6568C7C6955";
paths = (
{
closed = 1;
nodes = (
"854 450 OFFCURVE",
"854 461 QCURVE SMOOTH",
"854 481 OFFCURVE",
"826 509 OFFCURVE",
"806 509 QCURVE SMOOTH",
"789 509 OFFCURVE",
"772 495 QCURVE SMOOTH",
"707 438 OFFCURVE",
"620 375 OFFCURVE",
"552 345 OFFCURVE",
"492 339 OFFCURVE",
"453 339 QCURVE SMOOTH",
"438 339 LINE SMOOTH",
"403 339 OFFCURVE",
"344 348 OFFCURVE",
"277 379 OFFCURVE",
"193 441 OFFCURVE",
"132 495 QCURVE SMOOTH",
"124 501 OFFCURVE",
"108 509 OFFCURVE",
"98 509 QCURVE SMOOTH",
"78 509 OFFCURVE",
"50 481 OFFCURVE",
"50 461 QCURVE SMOOTH",
"50 450 OFFCURVE",
"61 430 OFFCURVE",
"69 423 QCURVE SMOOTH",
"121 377 OFFCURVE",
"206 312 OFFCURVE",
"244 290 QCURVE",
"169 248 OFFCURVE",
"69 159 QCURVE SMOOTH",
"61 152 OFFCURVE",
"50 132 OFFCURVE",
"50 121 QCURVE SMOOTH",
"50 101 OFFCURVE",
"78 73 OFFCURVE",
"98 73 QCURVE SMOOTH",
"116 73 OFFCURVE",
"132 87 QCURVE SMOOTH",
"193 139 OFFCURVE",
"276 201 OFFCURVE",
"340 233 OFFCURVE",
"396 243 OFFCURVE",
"429 243 QCURVE SMOOTH",
"451 243 LINE SMOOTH",
"490 243 OFFCURVE",
"552 236 OFFCURVE",
"621 206 OFFCURVE",
"708 143 OFFCURVE",
"772 87 QCURVE SMOOTH",
"789 73 OFFCURVE",
"806 73 QCURVE SMOOTH",
"826 73 OFFCURVE",
"854 101 OFFCURVE",
"854 121 QCURVE SMOOTH",
"854 132 OFFCURVE",
"843 152 OFFCURVE",
"835 159 QCURVE SMOOTH",
"781 204 OFFCURVE",
"698 269 OFFCURVE",
"660 291 QCURVE",
"698 313 OFFCURVE",
"784 378 OFFCURVE",
"835 423 QCURVE SMOOTH",
"843 430 OFFCURVE"
);
}
);
userData = {
assembly = "SVTCA[0]	/* SetFreedomAndProjectionVectorToAxis */\012PUSHW[ ]	/* 4 values pushed */\01253 1 19 4 \012CALL[ ]	/* CallFunction */\012PUSHW[ ]	/* 3 values pushed */\0123 19 53 \012SRP1[ ]	/* SetRefPoint1 */\012SRP2[ ]	/* SetRefPoint2 */\012IP[ ]	/* InterpolatePts */\012PUSHW[ ]	/* 3 values pushed */\01235 19 53 \012SRP1[ ]	/* SetRefPoint1 */\012SRP2[ ]	/* SetRefPoint2 */\012IP[ ]	/* InterpolatePts */\012IUP[0]	/* InterpolateUntPts */\012IUP[1]	/* InterpolateUntPts */";
};
width = 904;
}
);
note = x;
unicode = 0078;
},
{
glyphname = y;
layers = (
{
layerId = "54A34634-507D-4D60-97FE-E6568C7C6955";
paths = (
{
closed = 1;
nodes = (
"535 243 OFFCURVE",
"607 263 OFFCURVE",
"688 307 OFFCURVE",
"780 375 OFFCURVE",
"835 423 QCURVE SMOOTH",
"843 430 OFFCURVE",
"854 450 OFFCURVE",
"854 461 QCURVE SMOOTH",
"854 481 OFFCURVE",
"826 509 OFFCURVE",
"806 509 QCURVE SMOOTH",
"789 509 OFFCURVE",
"772 495 QCURVE SMOOTH",
"707 438 OFFCURVE",
"620 375 OFFCURVE",
"552 345 OFFCURVE",
"492 339 OFFCURVE",
"453 339 QCURVE SMOOTH",
"414 339 OFFCURVE",
"352 346 OFFCURVE",
"283 376 OFFCURVE",
"196 439 OFFCURVE",
"132 495 QCURVE SMOOTH",
"124 501 OFFCURVE",
"108 509 OFFCURVE",
"98 509 QCURVE SMOOTH",
"78 509 OFFCURVE",
"50 481 OFFCURVE",
"50 461 QCURVE SMOOTH",
"50 450 OFFCURVE",
"61 430 OFFCURVE",
"69 423 QCURVE SMOOTH",
"124 374 OFFCURVE",
"215 306 OFFCURVE",
"294 263 OFFCURVE",
"366 243 OFFCURVE",
"404 243 QCURVE",
"404 121 LINE SMOOTH",
"404 101 OFFCURVE",
"432 73 OFFCURVE",
"452 73 QCURVE SMOOTH",
"472 73 OFFCURVE",
"500 101 OFFCURVE",
"500 121 QCURVE SMOOTH",
"500 243 LINE"
);
}
);
userData = {
assembly = "PUSHW[ ]	/* 4 values pushed */\0120 6 6 4 \012CALL[ ]	/* CallFunction */\012SVTCA[0]	/* SetFreedomAndProjectionVectorToAxis */\012PUSHW[ ]	/* 4 values pushed */\01226 1 44 4 \012CALL[ ]	/* CallFunction */\012PUSHW[ ]	/* 1 value pushed */\01244 \012SRP0[ ]	/* SetRefPoint0 */\012PUSHW[ ]	/* 1 value pushed */\0127 \012MDRP[10000]	/* MoveDirectRelPt */\012IUP[0]	/* InterpolateUntPts */\012IUP[1]	/* InterpolateUntPts */";
};
width = 904;
}
);
note = y;
unicode = 0079;
},
{
glyphname = z;
layers = (
{
layerId = "54A34634-507D-4D60-97FE-E6568C7C6955";
paths = (
{
closed = 1;
nodes = (
"699 413 OFFCURVE",
"699 403 QCURVE SMOOTH",
"699 397 OFFCURVE",
"683 393 QCURVE SMOOTH",
"113 259 LINE SMOOTH",
"84 252 OFFCURVE",
"50 200 OFFCURVE",
"50 169 QCURVE SMOOTH",
"50 129 OFFCURVE",
"106 73 OFFCURVE",
"146 73 QCURVE SMOOTH",
"807 73 LINE SMOOTH",
"827 73 OFFCURVE",
"855 101 OFFCURVE",
"855 121 QCURVE SMOOTH",
"855 141 OFFCURVE",
"827 169 OFFCURVE",
"807 169 QCURVE SMOOTH",
"242 169 LINE SMOOTH",
"199 169 OFFCURVE",
"199 176 QCURVE SMOOTH",
"199 181 OFFCURVE",
"223 187 QCURVE SMOOTH",
"784 320 LINE SMOOTH",
"815 328 OFFCURVE",
"855 379 OFFCURVE",
"855 413 QCURVE SMOOTH",
"855 453 OFFCURVE",
"799 509 OFFCURVE",
"759 509 QCURVE SMOOTH",
"98 509 LINE SMOOTH",
"78 509 OFFCURVE",
"50 481 OFFCURVE",
"50 461 QCURVE SMOOTH",
"50 441 OFFCURVE",
"78 413 OFFCURVE",
"98 413 QCURVE SMOOTH",
"663 413 LINE SMOOTH"
);
}
);
userData = {
assembly = "SVTCA[0]	/* SetFreedomAndProjectionVectorToAxis */\012PUSHW[ ]	/* 1 value pushed */\0120 \012RCVT[ ]	/* ReadCVT */\012IF[ ]	/* If */\012PUSHW[ ]	/* 1 value pushed */\0126 \012MDAP[1]	/* MoveDirectAbsPt */\012ELSE[ ]	/* Else */\012PUSHW[ ]	/* 2 values pushed */\0126 10 \012MIAP[0]	/* MoveIndirectAbsPt */\012EIF[ ]	/* EndIf */\012PUSHW[ ]	/* 4 values pushed */\01219 1 25 4 \012CALL[ ]	/* CallFunction */\012PUSHW[ ]	/* 1 value pushed */\0126 \012SRP0[ ]	/* SetRefPoint0 */\012PUSHW[ ]	/* 2 values pushed */\0120 1 \012MIRP[10100]	/* MoveIndirectRelPt */\012IUP[0]	/* InterpolateUntPts */\012IUP[1]	/* InterpolateUntPts */";
};
width = 905;
}
);
note = z;
unicode = 007A;
},
{
glyphname = braceleft;
lastChange = "2020-12-17 01:48:42 +0000";
layers = (
{
layerId = "54A34634-507D-4D60-97FE-E6568C7C6955";
paths = (
{
closed = 1;
nodes = (
"320 -51 OFFCURVE",
"320 -31 QCURVE SMOOTH",
"320 -14 OFFCURVE",
"306 2 QCURVE SMOOTH",
"258 60 OFFCURVE",
"196 136 OFFCURVE",
"160 196 OFFCURVE",
"146 252 OFFCURVE",
"146 291 QCURVE SMOOTH",
"146 330 OFFCURVE",
"161 392 OFFCURVE",
"197 456 OFFCURVE",
"259 531 OFFCURVE",
"306 582 QCURVE SMOOTH",
"320 596 OFFCURVE",
"320 616 QCURVE SMOOTH",
"320 636 OFFCURVE",
"292 664 OFFCURVE",
"272 664 QCURVE SMOOTH",
"261 664 OFFCURVE",
"242 653 OFFCURVE",
"234 645 QCURVE SMOOTH",
"184 593 OFFCURVE",
"114 507 OFFCURVE",
"70 425 OFFCURVE",
"50 341 OFFCURVE",
"50 291 QCURVE SMOOTH",
"50 244 OFFCURVE",
"70 166 OFFCURVE",
"114 87 OFFCURVE",
"184 -2 OFFCURVE",
"234 -60 QCURVE SMOOTH",
"241 -68 OFFCURVE",
"261 -79 OFFCURVE",
"272 -79 QCURVE SMOOTH",
"292 -79 OFFCURVE"
);
}
);
width = 345;
}
);
note = braceleft;
unicode = 007B;
},
